<?xml version="1.0" encoding="UTF-8"?>
<!DOCTYPE svg PUBLIC "-//W3C//DTD SVG 1.1//EN" "http://www.w3.org/Graphics/SVG/1.1/DTD/svg11.dtd">
<svg xmlns="http://www.w3.org/2000/svg" version="1.1" width="300px" height="300px" style="shape-rendering:geometricPrecision; text-rendering:geometricPrecision; image-rendering:optimizeQuality; fill-rule:evenodd; clip-rule:evenodd" xmlns:xlink="http://www.w3.org/1999/xlink">
<g><path style="opacity:0.976" fill="#102a49" d="M 130.5,-0.5 C 143.167,-0.5 155.833,-0.5 168.5,-0.5C 197.614,3.92817 223.614,15.4282 246.5,34C 261.278,32.2712 269.945,38.7712 272.5,53.5C 269.998,68.2561 261.331,74.4227 246.5,72C 235.509,67.0185 231.509,58.6852 234.5,47C 202.665,20.956 166.332,11.2894 125.5,18C 80.7375,27.4397 48.2375,52.6064 28,93.5C 9.31188,138.554 12.6452,181.888 38,223.5C 75.4785,273.801 124.978,291.967 186.5,278C 240.582,259.916 272.415,222.75 282,166.5C 283.846,148.163 282.68,129.996 278.5,112C 278.065,106.266 280.732,103.099 286.5,102.5C 288.811,103.214 290.978,104.214 293,105.5C 296.241,113.672 298.407,122.005 299.5,130.5C 299.5,143.167 299.5,155.833 299.5,168.5C 287.983,232.518 251.317,274.684 189.5,295C 182.41,296.731 175.41,298.231 168.5,299.5C 155.833,299.5 143.167,299.5 130.5,299.5C 66.4841,287.985 24.3174,251.319 4,189.5C 2.41113,182.379 0.911125,175.379 -0.5,168.5C -0.5,155.833 -0.5,143.167 -0.5,130.5C 13.502,57.1646 57.1687,13.498 130.5,-0.5 Z"/></g>
<g><path style="opacity:0.988" fill="#102b49" d="M 131.5,73.5 C 143.851,73.1676 156.185,73.501 168.5,74.5C 186.029,119.088 203.363,163.755 220.5,208.5C 209.167,209.833 197.833,209.833 186.5,208.5C 174.235,174.205 162.068,139.871 150,105.5C 143.598,123.538 137.098,141.538 130.5,159.5C 141.146,160.499 151.813,160.832 162.5,160.5C 165.365,169.095 168.032,177.762 170.5,186.5C 154.167,186.5 137.833,186.5 121.5,186.5C 119.411,194.018 116.744,201.352 113.5,208.5C 102.167,209.833 90.8333,209.833 79.5,208.5C 97.124,163.59 114.457,118.59 131.5,73.5 Z"/></g>
</svg>
