<?xml version="1.0" encoding="UTF-8"?>
<!DOCTYPE svg PUBLIC "-//W3C//DTD SVG 1.1//EN" "http://www.w3.org/Graphics/SVG/1.1/DTD/svg11.dtd">
<svg xmlns="http://www.w3.org/2000/svg" version="1.1" width="616px" height="405px" style="shape-rendering:geometricPrecision; text-rendering:geometricPrecision; image-rendering:optimizeQuality; fill-rule:evenodd; clip-rule:evenodd" xmlns:xlink="http://www.w3.org/1999/xlink">
<g><path style="opacity:1" fill="#2f2d3e" d="M 188.5,89.5 C 189.631,84.2796 189.631,79.1129 188.5,74C 180.611,77.1202 172.278,78.1202 163.5,77C 162.833,76.6667 162.167,76.3333 161.5,76C 163.044,75.7104 164.377,75.0437 165.5,74C 161.767,73.9345 158.267,73.1011 155,71.5C 152.746,74.4282 151.579,77.7616 151.5,81.5C 151.964,84.8868 152.631,88.2201 153.5,91.5C 147.26,84.8691 145.593,77.2024 148.5,68.5C 138.913,67.6593 136.413,62.9926 141,54.5C 144.396,50.7973 148.563,49.6306 153.5,51C 155.422,52.4196 156.755,54.2529 157.5,56.5C 163.154,53.1678 169.154,52.1678 175.5,53.5C 175.083,48.0841 177.583,45.4174 183,45.5C 191.289,45.4501 194.956,49.4501 194,57.5C 192.58,59.422 190.747,60.7554 188.5,61.5C 195.139,70.9261 195.139,80.2594 188.5,89.5 Z"/></g>
<g><path style="opacity:1" fill="#f9b6b7" d="M 188.5,89.5 C 180.906,101.53 170.906,104.03 158.5,97C 156.627,95.2962 154.96,93.4628 153.5,91.5C 152.631,88.2201 151.964,84.8868 151.5,81.5C 151.579,77.7616 152.746,74.4282 155,71.5C 158.267,73.1011 161.767,73.9345 165.5,74C 164.377,75.0437 163.044,75.7104 161.5,76C 162.167,76.3333 162.833,76.6667 163.5,77C 172.278,78.1202 180.611,77.1202 188.5,74C 189.631,79.1129 189.631,84.2796 188.5,89.5 Z"/></g>
<g><path style="opacity:1" fill="#2e2d3f" d="M 199.5,106.5 C 200.771,111.111 201.937,115.778 203,120.5C 205.478,123.789 207.144,127.456 208,131.5C 208.603,138.925 208.103,146.259 206.5,153.5C 205.944,161.168 205.777,168.834 206,176.5C 216.072,208.215 226.239,239.882 236.5,271.5C 236.805,274.007 236.971,276.674 237,279.5C 237.833,280.333 238.667,281.167 239.5,282C 238.565,284.381 238.232,286.881 238.5,289.5C 239.5,289.5 240.5,289.5 241.5,289.5C 241.077,290.265 240.743,291.098 240.5,292C 243.203,305.037 246.203,317.871 249.5,330.5C 249.396,332.703 248.73,334.703 247.5,336.5C 247.167,336.5 246.833,336.5 246.5,336.5C 246.53,335.503 246.03,334.836 245,334.5C 241.17,335.582 237.337,336.582 233.5,337.5C 229.749,338.21 226.082,339.21 222.5,340.5C 219.933,341.475 217.267,342.142 214.5,342.5C 212.986,334.442 211.153,326.442 209,318.5C 196.667,293.167 184.333,267.833 172,242.5C 162.389,275.162 152.889,307.828 143.5,340.5C 138.814,339.963 134.147,339.296 129.5,338.5C 126.239,335.568 122.572,334.901 118.5,336.5C 118.389,335.883 118.056,335.383 117.5,335C 110.863,333.761 104.53,331.761 98.5,329C 113.389,289.619 125.889,249.453 136,208.5C 141,193.496 148.333,179.829 158,167.5C 158.295,161.404 156.795,155.737 153.5,150.5C 150.68,140.525 147.014,130.858 142.5,121.5C 148.013,115.824 154.013,110.658 160.5,106C 173.616,102.853 186.616,103.02 199.5,106.5 Z"/></g>
<g><path style="opacity:1" fill="#6b62fc" d="M 329.5,109.5 C 335.144,112.101 340.81,114.601 346.5,117C 351.537,118.527 356.537,120.027 361.5,121.5C 364.735,124.814 368.735,126.814 373.5,127.5C 375.5,128.167 377.5,128.833 379.5,129.5C 382.385,130.807 384.718,132.807 386.5,135.5C 387.845,137.697 389.011,140.03 390,142.5C 390.167,145.333 390.333,148.167 390.5,151C 389.096,159.083 388.429,167.249 388.5,175.5C 387.839,178.787 387.339,182.12 387,185.5C 384.036,192.618 380.87,199.618 377.5,206.5C 374.182,207.986 371.682,210.319 370,213.5C 369.667,215.167 369.333,216.833 369,218.5C 367.333,219.5 365.667,220.5 364,221.5C 364.243,226.377 362.077,229.377 357.5,230.5C 357.863,231.183 358.196,231.85 358.5,232.5C 355.473,236.861 351.806,240.527 347.5,243.5C 341.615,247.268 335.949,251.268 330.5,255.5C 325.528,256.422 320.528,256.588 315.5,256C 307.711,252.003 300.378,247.503 293.5,242.5C 288.586,239.258 284.253,235.258 280.5,230.5C 278.912,226.577 276.246,223.577 272.5,221.5C 271.006,218.148 268.839,215.148 266,212.5C 263.325,204.981 260.158,197.648 256.5,190.5C 255.526,188.257 255.192,185.924 255.5,183.5C 253.42,173.272 252.087,162.938 251.5,152.5C 251.467,146.703 252.134,141.037 253.5,135.5C 256.787,133.383 260.12,131.383 263.5,129.5C 267.76,128.204 272.094,127.204 276.5,126.5C 276.5,125.5 276.5,124.5 276.5,123.5C 281.35,121.585 286.35,119.918 291.5,118.5C 297.393,116.125 303.393,113.959 309.5,112C 310.571,111.148 311.571,110.315 312.5,109.5C 312.611,108.883 312.944,108.383 313.5,108C 319.014,107.07 324.348,107.57 329.5,109.5 Z"/></g>
<g><path style="opacity:1" fill="#554fcb" d="M 363.5,143.5 C 366.157,143.747 368.49,144.747 370.5,146.5C 371.664,153.476 371.831,160.476 371,167.5C 367.001,181.796 361.334,195.463 354,208.5C 347.476,216.022 340.643,223.189 333.5,230C 329.504,231.663 325.837,233.829 322.5,236.5C 321.893,236.376 321.56,236.043 321.5,235.5C 321.548,232.687 322.215,230.021 323.5,227.5C 322.577,194.49 322.244,161.49 322.5,128.5C 325.278,128.022 327.278,129.022 328.5,131.5C 328.833,130.833 329.167,130.167 329.5,129.5C 332.133,130.301 333.967,131.967 335,134.5C 335.308,133.692 335.808,133.025 336.5,132.5C 338.742,134.539 341.242,136.205 344,137.5C 344.333,137.167 344.667,136.833 345,136.5C 348.552,137.716 351.885,139.383 355,141.5C 356.073,140.72 357.24,140.887 358.5,142C 358.167,142.333 357.833,142.667 357.5,143C 359.548,144.241 361.548,144.408 363.5,143.5 Z"/></g>
<g><path style="opacity:1" fill="#403d58" d="M 391.5,188.5 C 390.06,186.821 389.06,184.821 388.5,182.5C 391.692,171.817 393.692,160.817 394.5,149.5C 394.327,145.459 393.827,141.459 393,137.5C 389.09,136.76 387.256,134.427 387.5,130.5C 384.763,130.599 382.096,130.265 379.5,129.5C 377.5,128.833 375.5,128.167 373.5,127.5C 369.818,124.992 365.818,122.992 361.5,121.5C 356.537,120.027 351.537,118.527 346.5,117C 340.81,114.601 335.144,112.101 329.5,109.5C 329.53,108.503 329.03,107.836 328,107.5C 322.871,105.241 317.705,105.074 312.5,107C 311.619,107.708 310.953,108.542 310.5,109.5C 303.857,112.059 297.524,115.059 291.5,118.5C 286.35,119.918 281.35,121.585 276.5,123.5C 271.954,125.122 267.621,127.122 263.5,129.5C 260.356,129.956 257.356,130.956 254.5,132.5C 253.873,133.417 253.539,134.417 253.5,135.5C 252.057,136.335 251.057,137.668 250.5,139.5C 249.186,149.717 249.519,159.884 251.5,170C 252.17,174.83 253.503,179.33 255.5,183.5C 255.192,185.924 255.526,188.257 256.5,190.5C 260.158,197.648 263.325,204.981 266,212.5C 268.839,215.148 271.006,218.148 272.5,221.5C 274.43,225.1 277.097,228.1 280.5,230.5C 284.253,235.258 288.586,239.258 293.5,242.5C 299.402,248.212 306.068,253.045 313.5,257C 318.5,257.667 323.5,257.667 328.5,257C 329.416,256.722 330.082,256.222 330.5,255.5C 337.784,253.895 343.451,249.895 347.5,243.5C 351.806,240.527 355.473,236.861 358.5,232.5C 359.885,231.386 361.385,230.386 363,229.5C 366.61,223.923 370.443,218.59 374.5,213.5C 375.735,213.279 376.735,212.612 377.5,211.5C 378.253,208.727 379.253,206.06 380.5,203.5C 381.281,204.729 381.781,206.062 382,207.5C 385.138,201.561 387.972,195.561 390.5,189.5C 390.567,190.959 390.234,192.292 389.5,193.5C 388.729,197.703 387.396,201.703 385.5,205.5C 384.272,206.306 383.272,207.306 382.5,208.5C 376.54,220.081 368.873,230.415 359.5,239.5C 356.757,241.239 354.757,243.573 353.5,246.5C 352.128,247.512 350.795,248.512 349.5,249.5C 346.296,250.383 343.629,252.05 341.5,254.5C 328.704,265.94 315.371,266.44 301.5,256C 278.643,241.12 262.31,220.954 252.5,195.5C 250.755,187.78 248.755,180.114 246.5,172.5C 244.718,161.57 244.218,150.57 245,139.5C 246.119,134.761 248.619,130.928 252.5,128C 273.167,119.333 293.833,110.667 314.5,102C 318.5,101.333 322.5,101.333 326.5,102C 344.248,109.138 361.914,116.471 379.5,124C 392.203,128.086 398.203,136.752 397.5,150C 397.067,163.095 395.067,175.929 391.5,188.5 Z"/></g>
<g><path style="opacity:1" fill="#635dc8" d="M 276.5,123.5 C 276.5,124.5 276.5,125.5 276.5,126.5C 272.094,127.204 267.76,128.204 263.5,129.5C 267.621,127.122 271.954,125.122 276.5,123.5 Z"/></g>
<g><path style="opacity:1" fill="#454288" d="M 361.5,121.5 C 365.818,122.992 369.818,124.992 373.5,127.5C 368.735,126.814 364.735,124.814 361.5,121.5 Z"/></g>
<g><path style="opacity:1" fill="#665ed2" d="M 310.5,109.5 C 311.167,109.5 311.833,109.5 312.5,109.5C 311.571,110.315 310.571,111.148 309.5,112C 303.393,113.959 297.393,116.125 291.5,118.5C 297.524,115.059 303.857,112.059 310.5,109.5 Z"/></g>
<g><path style="opacity:1" fill="#43417e" d="M 329.5,109.5 C 324.348,107.57 319.014,107.07 313.5,108C 312.944,108.383 312.611,108.883 312.5,109.5C 311.833,109.5 311.167,109.5 310.5,109.5C 310.953,108.542 311.619,107.708 312.5,107C 317.705,105.074 322.871,105.241 328,107.5C 329.03,107.836 329.53,108.503 329.5,109.5 Z"/></g>
<g><path style="opacity:1" fill="#6059bd" d="M 263.5,129.5 C 260.12,131.383 256.787,133.383 253.5,135.5C 253.539,134.417 253.873,133.417 254.5,132.5C 257.356,130.956 260.356,129.956 263.5,129.5 Z"/></g>
<g><path style="opacity:1" fill="#fab7b8" d="M 142.5,121.5 C 147.014,130.858 150.68,140.525 153.5,150.5C 152.778,150.918 152.278,151.584 152,152.5C 151.689,158.874 151.023,165.207 150,171.5C 142.401,188.639 135.401,205.973 129,223.5C 124.356,226.615 120.356,225.948 117,221.5C 115.718,217.416 116.718,214.082 120,211.5C 125.202,195.561 130.202,179.561 135,163.5C 134.184,151.832 134.518,140.165 136,128.5C 136.381,124.348 138.547,122.015 142.5,121.5 Z"/></g>
<g><path style="opacity:1" fill="#5a52db" d="M 363.5,143.5 C 361.548,144.408 359.548,144.241 357.5,143C 357.833,142.667 358.167,142.333 358.5,142C 357.24,140.887 356.073,140.72 355,141.5C 351.885,139.383 348.552,137.716 345,136.5C 344.667,136.833 344.333,137.167 344,137.5C 341.242,136.205 338.742,134.539 336.5,132.5C 335.808,133.025 335.308,133.692 335,134.5C 333.967,131.967 332.133,130.301 329.5,129.5C 329.167,130.167 328.833,130.833 328.5,131.5C 327.278,129.022 325.278,128.022 322.5,128.5C 322.244,161.49 322.577,194.49 323.5,227.5C 322.215,230.021 321.548,232.687 321.5,235.5C 320.502,198.67 320.168,161.67 320.5,124.5C 327.018,126.756 333.352,129.589 339.5,133C 343.311,134.739 347.311,135.572 351.5,135.5C 351.33,136.822 351.663,137.989 352.5,139C 356.799,139.259 360.466,140.759 363.5,143.5 Z"/></g>
<g><path style="opacity:1" fill="#645dcd" d="M 253.5,135.5 C 252.134,141.037 251.467,146.703 251.5,152.5C 252.087,162.938 253.42,173.272 255.5,183.5C 253.503,179.33 252.17,174.83 251.5,170C 249.519,159.884 249.186,149.717 250.5,139.5C 251.057,137.668 252.057,136.335 253.5,135.5 Z"/></g>
<g><path style="opacity:1" fill="#f9b7b9" d="M 199.5,106.5 C 203.02,107.183 205.52,109.183 207,112.5C 211.917,122.253 216.25,132.253 220,142.5C 228.699,152.694 237.532,162.694 246.5,172.5C 248.755,180.114 250.755,187.78 252.5,195.5C 250.692,195.509 249.025,195.009 247.5,194C 246.292,191.75 244.959,189.583 243.5,187.5C 231.1,176.095 218.767,164.761 206.5,153.5C 208.103,146.259 208.603,138.925 208,131.5C 207.144,127.456 205.478,123.789 203,120.5C 201.937,115.778 200.771,111.111 199.5,106.5 Z"/></g>
<g><path style="opacity:1" fill="#6861d8" d="M 386.5,135.5 C 388.129,136.625 389.629,137.959 391,139.5C 391.667,148.5 391.667,157.5 391,166.5C 390.159,169.628 389.325,172.628 388.5,175.5C 388.429,167.249 389.096,159.083 390.5,151C 390.333,148.167 390.167,145.333 390,142.5C 389.011,140.03 387.845,137.697 386.5,135.5 Z"/></g>
<g><path style="opacity:1" fill="#3f3c60" d="M 379.5,129.5 C 382.096,130.265 384.763,130.599 387.5,130.5C 387.256,134.427 389.09,136.76 393,137.5C 393.827,141.459 394.327,145.459 394.5,149.5C 393.692,160.817 391.692,171.817 388.5,182.5C 389.06,184.821 390.06,186.821 391.5,188.5C 391.5,189.167 391.167,189.5 390.5,189.5C 387.972,195.561 385.138,201.561 382,207.5C 381.781,206.062 381.281,204.729 380.5,203.5C 379.253,206.06 378.253,208.727 377.5,211.5C 376.735,212.612 375.735,213.279 374.5,213.5C 375.773,211.287 376.773,208.954 377.5,206.5C 380.87,199.618 384.036,192.618 387,185.5C 387.339,182.12 387.839,178.787 388.5,175.5C 389.325,172.628 390.159,169.628 391,166.5C 391.667,157.5 391.667,148.5 391,139.5C 389.629,137.959 388.129,136.625 386.5,135.5C 384.718,132.807 382.385,130.807 379.5,129.5 Z"/></g>
<g><path style="opacity:0.322" fill="#a2a1a9" d="M 389.5,193.5 C 390.167,193.5 390.833,193.5 391.5,193.5C 390.015,197.366 389.015,201.366 388.5,205.5C 387.5,205.5 386.5,205.5 385.5,205.5C 387.396,201.703 388.729,197.703 389.5,193.5 Z"/></g>
<g><path style="opacity:1" fill="#6960e1" d="M 377.5,206.5 C 376.773,208.954 375.773,211.287 374.5,213.5C 370.443,218.59 366.61,223.923 363,229.5C 361.385,230.386 359.885,231.386 358.5,232.5C 358.196,231.85 357.863,231.183 357.5,230.5C 362.077,229.377 364.243,226.377 364,221.5C 365.667,220.5 367.333,219.5 369,218.5C 369.333,216.833 369.667,215.167 370,213.5C 371.682,210.319 374.182,207.986 377.5,206.5 Z"/></g>
<g><path style="opacity:1" fill="#5f59bb" d="M 272.5,221.5 C 276.246,223.577 278.912,226.577 280.5,230.5C 277.097,228.1 274.43,225.1 272.5,221.5 Z"/></g>
<g><path style="opacity:0.063" fill="#858490" d="M 359.5,239.5 C 359.429,242.652 358.095,244.986 355.5,246.5C 354.833,246.5 354.167,246.5 353.5,246.5C 354.757,243.573 356.757,241.239 359.5,239.5 Z"/></g>
<g><path style="opacity:1" fill="#4a468c" d="M 347.5,243.5 C 343.451,249.895 337.784,253.895 330.5,255.5C 335.949,251.268 341.615,247.268 347.5,243.5 Z"/></g>
<g><path style="opacity:0.983" fill="#e4e4e4" d="M 391.5,193.5 C 421.169,193.333 450.835,193.5 480.5,194C 481.308,194.308 481.975,194.808 482.5,195.5C 483.651,211.456 483.818,227.456 483,243.5C 482.626,244.416 482.126,245.25 481.5,246C 447.989,246.198 414.489,246.698 381,247.5C 375.774,246.038 370.607,246.205 365.5,248C 371.417,249.195 377.417,249.362 383.5,248.5C 415.827,249.265 448.16,249.765 480.5,250C 481.333,250.833 482.167,251.667 483,252.5C 483.97,268.925 483.636,285.259 482,301.5C 448.734,302.258 415.4,302.925 382,303.5C 369.5,303 357,302.5 344.5,302C 342.424,286.893 342.091,271.726 343.5,256.5C 346.192,254.138 348.859,251.804 351.5,249.5C 353.713,249.152 355.713,248.319 357.5,247C 356.906,246.536 356.239,246.369 355.5,246.5C 358.095,244.986 359.429,242.652 359.5,239.5C 368.873,230.415 376.54,220.081 382.5,208.5C 382.917,209.124 383.584,209.457 384.5,209.5C 389.137,208.78 393.803,208.28 398.5,208C 395.166,206.916 391.832,206.082 388.5,205.5C 389.015,201.366 390.015,197.366 391.5,193.5 Z M 365.5,262.5 C 376.663,262.024 387.663,262.524 398.5,264C 387.663,265.476 376.663,265.976 365.5,265.5C 365.5,264.5 365.5,263.5 365.5,262.5 Z"/></g>
<g><path style="opacity:1" fill="#7b6eda" d="M 459.5,205.5 C 462.084,206.048 463.084,207.715 462.5,210.5C 461.167,210.5 459.833,210.5 458.5,210.5C 458.366,208.708 458.699,207.042 459.5,205.5 Z"/></g>
<g><path style="opacity:1" fill="#7c6fdb" d="M 442.5,206.5 C 444.167,206.5 445.833,206.5 447.5,206.5C 447.65,210.161 446.15,211.161 443,209.5C 442.517,208.552 442.351,207.552 442.5,206.5 Z"/></g>
<g><path style="opacity:1" fill="#766ad3" d="M 450.5,206.5 C 451.833,206.5 453.167,206.5 454.5,206.5C 454.5,207.833 454.5,209.167 454.5,210.5C 451.5,210.833 450.167,209.5 450.5,206.5 Z"/></g>
<g><path style="opacity:1" fill="#645cca" d="M 293.5,242.5 C 300.378,247.503 307.711,252.003 315.5,256C 320.528,256.588 325.528,256.422 330.5,255.5C 330.082,256.222 329.416,256.722 328.5,257C 323.5,257.667 318.5,257.667 313.5,257C 306.068,253.045 299.402,248.212 293.5,242.5 Z"/></g>
<g><path style="opacity:0.525" fill="#9e9ca8" d="M 349.5,249.5 C 350.167,249.5 350.833,249.5 351.5,249.5C 348.859,251.804 346.192,254.138 343.5,256.5C 343.5,255.167 342.833,254.5 341.5,254.5C 343.629,252.05 346.296,250.383 349.5,249.5 Z"/></g>
<g><path style="opacity:1" fill="#dddcf7" d="M 459.5,266.5 C 460.5,266.5 461.5,266.5 462.5,266.5C 462.5,265.167 462.5,263.833 462.5,262.5C 461.167,262.5 459.833,262.5 458.5,262.5C 458.5,263.5 458.5,264.5 458.5,265.5C 456.328,266.801 453.995,267.801 451.5,268.5C 451.649,269.552 451.483,270.552 451,271.5C 450.02,269.941 449.187,268.274 448.5,266.5C 446.253,267.374 443.92,267.708 441.5,267.5C 441.232,265.901 441.566,264.568 442.5,263.5C 442.5,264.5 442.5,265.5 442.5,266.5C 445.95,267.244 447.616,265.91 447.5,262.5C 445.833,262.5 444.167,262.5 442.5,262.5C 442.47,261.503 442.97,260.836 444,260.5C 450.179,260.589 456.346,260.755 462.5,261C 463.423,263.041 463.756,265.208 463.5,267.5C 461.901,267.768 460.568,267.434 459.5,266.5 Z"/></g>
<g><path style="opacity:1" fill="#8074db" d="M 442.5,262.5 C 444.167,262.5 445.833,262.5 447.5,262.5C 447.616,265.91 445.95,267.244 442.5,266.5C 442.5,265.5 442.5,264.5 442.5,263.5C 442.5,263.167 442.5,262.833 442.5,262.5 Z"/></g>
<g><path style="opacity:1" fill="#776ad1" d="M 450.5,262.5 C 451.833,262.5 453.167,262.5 454.5,262.5C 454.5,263.833 454.5,265.167 454.5,266.5C 451.5,266.833 450.167,265.5 450.5,262.5 Z"/></g>
<g><path style="opacity:1" fill="#776bd7" d="M 459.5,266.5 C 458.833,266.5 458.5,266.167 458.5,265.5C 458.5,264.5 458.5,263.5 458.5,262.5C 459.833,262.5 461.167,262.5 462.5,262.5C 462.5,263.833 462.5,265.167 462.5,266.5C 461.5,266.5 460.5,266.5 459.5,266.5 Z"/></g>
<g><path style="opacity:0.921" fill="#eeedef" d="M 243.5,294.5 C 244.181,285.966 248.348,279.633 256,275.5C 256.481,269.34 259.647,266.506 265.5,267C 270.274,274.771 267.94,278.771 258.5,279C 255.6,281.397 253.267,284.23 251.5,287.5C 252.333,287.833 253.167,288.167 254,288.5C 258.048,286.874 262.215,286.374 266.5,287C 268.028,289.881 267.362,292.214 264.5,294C 259.518,296.913 254.185,297.913 248.5,297C 247,296.167 245.833,295 245,293.5C 244.617,294.056 244.117,294.389 243.5,294.5 Z"/></g>
<g><path style="opacity:0.051" fill="#686674" d="M 241.5,289.5 C 240.5,289.5 239.5,289.5 238.5,289.5C 238.232,286.881 238.565,284.381 239.5,282C 238.667,281.167 237.833,280.333 237,279.5C 236.971,276.674 236.805,274.007 236.5,271.5C 237.117,271.389 237.617,271.056 238,270.5C 242.326,276.283 243.492,282.616 241.5,289.5 Z"/></g>
<g><path style="opacity:0.031" fill="#6b6a80" d="M 243.5,294.5 C 243.631,295.239 243.464,295.906 243,296.5C 242.308,295.563 242.475,294.897 243.5,294.5 Z"/></g>
<g><path style="opacity:0.756" fill="#f6f6f7" d="M 509.5,294.5 C 511.989,294.298 514.323,294.798 516.5,296C 518.724,298.965 521.058,301.798 523.5,304.5C 524.76,301.945 526.094,299.445 527.5,297C 528.784,296.316 529.951,296.483 531,297.5C 531.601,299.137 532.101,300.803 532.5,302.5C 531.626,306.869 530.626,311.202 529.5,315.5C 530.594,320.496 531.594,325.496 532.5,330.5C 532.081,331.672 531.415,332.672 530.5,333.5C 527.743,328.808 525.743,323.808 524.5,318.5C 520.349,316.93 516.015,315.763 511.5,315C 506.173,311.266 506.506,307.933 512.5,305C 507.5,302.489 506.5,298.989 509.5,294.5 Z"/></g>
<g><path style="opacity:0.99" fill="#e5e5e5" d="M 483.5,355.5 C 422.551,356.371 361.217,357.038 299.5,357.5C 284.5,357.333 269.5,357.167 254.5,357C 253.244,356.583 252.577,355.75 252.5,354.5C 282.144,355.635 311.81,355.802 341.5,355C 342.851,351.322 343.518,347.489 343.5,343.5C 342.686,333.977 342.352,324.477 342.5,315C 342.122,311.101 343.455,308.101 346.5,306C 358.168,305.528 369.835,305.028 381.5,304.5C 414.495,305.25 447.495,305.75 480.5,306C 481.333,306.833 482.167,307.667 483,308.5C 483.5,324.163 483.667,339.83 483.5,355.5 Z M 365.5,318.5 C 376.663,318.024 387.663,318.524 398.5,320C 387.663,321.476 376.663,321.976 365.5,321.5C 365.5,320.5 365.5,319.5 365.5,318.5 Z"/></g>
<g><path style="opacity:0.921" fill="#ececed" d="M 249.5,330.5 C 251.888,325.047 253.721,319.38 255,313.5C 257.858,310.65 261.025,310.15 264.5,312C 266.934,319.245 264.267,322.912 256.5,323C 253.651,325.075 251.318,327.575 249.5,330.5 Z"/></g>
<g><path style="opacity:1" fill="#dedcf7" d="M 458.5,318.5 C 459.961,316.189 461.794,316.189 464,318.5C 465.033,321.217 464.2,323.051 461.5,324C 459.536,324.624 457.869,324.124 456.5,322.5C 454.044,325.08 451.544,325.08 449,322.5C 442.658,326.021 439.824,324.021 440.5,316.5C 443.685,316.02 446.519,316.686 449,318.5C 451.901,315.682 454.401,316.016 456.5,319.5C 457.183,319.137 457.85,318.804 458.5,318.5 Z"/></g>
<g><path style="opacity:1" fill="#8075da" d="M 442.5,318.5 C 444.167,318.5 445.833,318.5 447.5,318.5C 447.616,321.91 445.95,323.244 442.5,322.5C 442.5,321.167 442.5,319.833 442.5,318.5 Z"/></g>
<g><path style="opacity:1" fill="#776cd0" d="M 458.5,318.5 C 459.833,318.5 461.167,318.5 462.5,318.5C 462.5,319.833 462.5,321.167 462.5,322.5C 461.167,322.5 459.833,322.5 458.5,322.5C 458.5,321.167 458.5,319.833 458.5,318.5 Z"/></g>
<g><path style="opacity:1" fill="#766bd2" d="M 450.5,318.5 C 451.833,318.5 453.167,318.5 454.5,318.5C 454.5,319.833 454.5,321.167 454.5,322.5C 451.5,322.833 450.167,321.5 450.5,318.5 Z"/></g>
<g><path style="opacity:0.83" fill="#f8f8f9" d="M 539.5,355.5 C 524.5,356.833 509.5,356.833 494.5,355.5C 501.585,355.762 508.418,354.762 515,352.5C 515.931,350.541 516.764,348.541 517.5,346.5C 515.823,344.24 513.657,342.573 511,341.5C 510.313,339.432 510.48,337.432 511.5,335.5C 506.753,330.148 507.753,326.481 514.5,324.5C 516.187,324.76 517.687,325.427 519,326.5C 520.864,333.89 524.03,340.556 528.5,346.5C 529.153,342.765 529.986,339.099 531,335.5C 531.667,336.167 532.333,336.833 533,337.5C 533.352,344.293 535.518,350.293 539.5,355.5 Z"/></g>
<g><path style="opacity:0.753" fill="#eeeeef" d="M 255.5,328.5 C 258.187,328.336 260.854,328.503 263.5,329C 264.308,329.308 264.975,329.808 265.5,330.5C 261.716,335.375 256.716,337.208 250.5,336C 250.167,335.667 249.833,335.333 249.5,335C 250.191,333.933 250.691,332.766 251,331.5C 252.652,330.601 254.152,329.601 255.5,328.5 Z"/></g>
<g><path style="opacity:0.024" fill="#bababa" d="M 246.5,336.5 C 246.833,336.5 247.167,336.5 247.5,336.5C 247.007,338.806 246.674,341.139 246.5,343.5C 246.167,343.5 245.833,343.5 245.5,343.5C 245.448,341.097 245.781,338.764 246.5,336.5 Z"/></g>
<g><path style="opacity:1" fill="#f3b5b8" d="M 129.5,338.5 C 129.326,340.861 128.993,343.194 128.5,345.5C 125.167,346.833 121.833,346.833 118.5,345.5C 118.5,342.5 118.5,339.5 118.5,336.5C 122.572,334.901 126.239,335.568 129.5,338.5 Z"/></g>
<g><path style="opacity:0.906" fill="#ecb5b8" d="M 233.5,337.5 C 233.736,340.609 233.403,343.609 232.5,346.5C 229.167,346.5 225.833,346.5 222.5,346.5C 222.5,344.5 222.5,342.5 222.5,340.5C 226.082,339.21 229.749,338.21 233.5,337.5 Z"/></g>
<g><path style="opacity:1" fill="#322f40" d="M 245.5,343.5 C 245.833,343.5 246.167,343.5 246.5,343.5C 245.249,346.938 245.583,350.272 247.5,353.5C 247.5,354.5 247.5,355.5 247.5,356.5C 238.416,356.804 229.416,356.471 220.5,355.5C 219.945,351.988 220.612,348.988 222.5,346.5C 225.833,346.5 229.167,346.5 232.5,346.5C 236.584,346.043 240.417,346.71 244,348.5C 244.198,346.618 244.698,344.952 245.5,343.5 Z"/></g>
<g><path style="opacity:1" fill="#2e2d3e" d="M 128.5,346.5 C 134.386,345.343 139.219,347.01 143,351.5C 143.483,352.448 143.649,353.448 143.5,354.5C 135.231,356.47 126.565,357.136 117.5,356.5C 117.5,354.167 117.5,351.833 117.5,349.5C 122.794,349.318 122.794,348.818 117.5,348C 121.356,347.823 125.023,347.323 128.5,346.5 Z"/></g>
<g><path style="opacity:0.769" fill="#e3e3e3" d="M 146.5,355.5 C 167.007,355.17 187.34,355.503 207.5,356.5C 197.241,357.155 186.908,357.489 176.5,357.5C 166.144,357.499 156.144,356.832 146.5,355.5 Z"/></g>
<g><path style="opacity:0.482" fill="#b2b2b3" d="M 113.5,356.5 C 113.833,357.167 114.167,357.833 114.5,358.5C 111.949,359.949 109.615,359.615 107.5,357.5C 109.396,356.534 111.396,356.201 113.5,356.5 Z"/></g>
<g><path style="opacity:1" fill="#6b6772" d="M 118.5,345.5 C 121.833,346.833 125.167,346.833 128.5,345.5C 128.5,345.833 128.5,346.167 128.5,346.5C 125.023,347.323 121.356,347.823 117.5,348C 122.794,348.818 122.794,349.318 117.5,349.5C 117.5,351.833 117.5,354.167 117.5,356.5C 126.565,357.136 135.231,356.47 143.5,354.5C 144.167,354.833 144.833,355.167 145.5,355.5C 144.89,356.391 144.557,357.391 144.5,358.5C 134.5,358.5 124.5,358.5 114.5,358.5C 114.167,357.833 113.833,357.167 113.5,356.5C 114.5,356.5 115.5,356.5 116.5,356.5C 116.036,352.498 116.702,348.831 118.5,345.5 Z"/></g>
<g><path style="opacity:0.434" fill="#b9b9b9" d="M 219.5,356.5 C 219.833,357.167 220.167,357.833 220.5,358.5C 218.621,359.341 216.621,359.675 214.5,359.5C 214.5,358.5 214.5,357.5 214.5,356.5C 216.167,356.5 217.833,356.5 219.5,356.5 Z"/></g>
<g><path style="opacity:0.72" fill="#cecece" d="M 68.5,356.5 C 80.5185,356.168 92.5185,356.501 104.5,357.5C 104.291,358.086 103.957,358.586 103.5,359C 93.3079,358.967 83.1412,359.134 73,359.5C 70.6485,359.586 69.1485,358.586 68.5,356.5 Z"/></g>
<g><path style="opacity:0.327" fill="#cdcdcd" d="M 145.5,355.5 C 145.833,355.5 146.167,355.5 146.5,355.5C 156.144,356.832 166.144,357.499 176.5,357.5C 186.908,357.489 197.241,357.155 207.5,356.5C 209.167,356.5 210.833,356.5 212.5,356.5C 212.5,357.5 212.5,358.5 212.5,359.5C 189.661,359.831 166.994,359.497 144.5,358.5C 144.557,357.391 144.89,356.391 145.5,355.5 Z"/></g>
<g><path style="opacity:0.247" fill="#76747f" d="M 247.5,353.5 C 248.338,353.842 248.672,354.508 248.5,355.5C 248.5,356.5 248.5,357.5 248.5,358.5C 239.167,358.5 229.833,358.5 220.5,358.5C 220.167,357.833 219.833,357.167 219.5,356.5C 220.167,356.5 220.5,356.167 220.5,355.5C 229.416,356.471 238.416,356.804 247.5,356.5C 247.5,355.5 247.5,354.5 247.5,353.5 Z"/></g>
<g><path style="opacity:0.874" fill="#d5d5d5" d="M 252.5,354.5 C 252.577,355.75 253.244,356.583 254.5,357C 269.5,357.167 284.5,357.333 299.5,357.5C 361.217,357.038 422.551,356.371 483.5,355.5C 487.017,355.787 490.684,355.787 494.5,355.5C 509.5,356.833 524.5,356.833 539.5,355.5C 542.471,355.435 545.138,356.269 547.5,358C 545.884,359.077 544.051,359.577 542,359.5C 444.031,358.627 346.197,358.294 248.5,358.5C 248.5,357.5 248.5,356.5 248.5,355.5C 249.708,354.766 251.041,354.433 252.5,354.5 Z"/></g>
</svg>
