<?xml version="1.0" encoding="UTF-8"?>
<!DOCTYPE svg PUBLIC "-//W3C//DTD SVG 1.1//EN" "http://www.w3.org/Graphics/SVG/1.1/DTD/svg11.dtd">
<svg xmlns="http://www.w3.org/2000/svg" version="1.1" width="524px" height="476px" style="shape-rendering:geometricPrecision; text-rendering:geometricPrecision; image-rendering:optimizeQuality; fill-rule:evenodd; clip-rule:evenodd" xmlns:xlink="http://www.w3.org/1999/xlink">
<g><path style="opacity:0.977" fill="#f4f4f4" d="M 113.5,44.5 C 116.32,44.2475 118.986,44.7475 121.5,46C 125.377,49.3593 127.711,53.526 128.5,58.5C 128.635,60.808 127.969,62.808 126.5,64.5C 127.779,67.1117 129.445,69.4451 131.5,71.5C 134.728,67.6468 138.561,64.6468 143,62.5C 145.296,62.9093 147.13,64.0759 148.5,66C 151.732,65.6114 154.898,65.7781 158,66.5C 158.312,70.8904 157.146,74.8904 154.5,78.5C 149.828,82.1049 144.662,83.4382 139,82.5C 137.289,82.4393 135.956,83.1059 135,84.5C 134.959,96.0108 134.126,107.344 132.5,118.5C 133.873,118.657 135.207,118.49 136.5,118C 138.677,116.485 140.844,114.985 143,113.5C 144.775,114.27 146.275,115.437 147.5,117C 157.871,116.244 160.038,120.077 154,128.5C 152.59,129.787 151.09,130.954 149.5,132C 144.362,133.087 139.195,133.92 134,134.5C 133.138,136.087 132.471,137.754 132,139.5C 131.5,146.492 131.334,153.492 131.5,160.5C 130.5,160.5 129.5,160.5 128.5,160.5C 127.801,143.193 127.634,125.86 128,108.5C 126.991,107.342 125.658,106.675 124,106.5C 121.171,107.203 118.338,107.37 115.5,107C 111.941,104.394 108.607,101.56 105.5,98.5C 106.729,96.4378 107.729,94.2711 108.5,92C 106.962,88.9788 106.462,85.8122 107,82.5C 118.89,81.0393 125.557,86.3726 127,98.5C 127.667,99.8333 128.333,99.8333 129,98.5C 130.353,89.0727 129.019,80.0727 125,71.5C 121.796,69.2577 118.296,68.9244 114.5,70.5C 112.701,70.423 111.034,69.923 109.5,69C 104.444,62.8584 102.944,56.0251 105,48.5C 107.682,46.6705 110.516,45.3372 113.5,44.5 Z"/></g>
<g><path style="opacity:0.995" fill="#f3f3f3" d="M 175.5,74.5 C 178.952,76.1175 181.619,78.6175 183.5,82C 185.034,82.923 186.701,83.423 188.5,83.5C 194.141,82.0087 199.474,79.842 204.5,77C 208.128,75.684 210.461,76.8507 211.5,80.5C 209.881,85.4125 207.881,90.0791 205.5,94.5C 209.225,94.7796 210.392,96.7796 209,100.5C 204.827,106.165 199.327,109.665 192.5,111C 193.772,113.044 193.439,114.878 191.5,116.5C 185.944,117.961 180.277,118.794 174.5,119C 171.452,119.606 168.952,121.106 167,123.5C 161.133,135.449 155.466,147.449 150,159.5C 149.333,157.833 149.333,156.167 150,154.5C 153.737,144.621 157.071,134.621 160,124.5C 160.177,114.399 159.51,104.399 158,94.5C 158.374,93.5838 158.874,92.7504 159.5,92C 162.095,92.1307 164.595,91.964 167,91.5C 168.837,85.1586 171.671,79.4919 175.5,74.5 Z"/></g>
<g><path style="opacity:0.987" fill="#f3f3f3" d="M 111.5,163.5 C 107.167,163.5 102.833,163.5 98.5,163.5C 99.2625,162.732 100.263,162.232 101.5,162C 99.9194,161.293 98.4194,160.46 97,159.5C 95.4267,154.499 93.26,149.832 90.5,145.5C 90.6082,144.558 90.9415,143.725 91.5,143C 93.3506,142.163 95.1839,141.329 97,140.5C 98.1737,136.954 98.8404,133.287 99,129.5C 99.6667,128.833 100.333,128.167 101,127.5C 104.084,131.254 107.75,134.254 112,136.5C 112.881,140.504 113.714,144.504 114.5,148.5C 113.269,152.692 111.936,156.859 110.5,161C 110.743,161.902 111.077,162.735 111.5,163.5 Z"/></g>
<g><path style="opacity:1" fill="#646369" d="M 175.5,163.5 C 147.167,164.833 118.833,164.833 90.5,163.5C 93.1667,163.5 95.8333,163.5 98.5,163.5C 102.833,163.5 107.167,163.5 111.5,163.5C 132.851,163.164 154.184,163.164 175.5,163.5 Z"/></g>
<g><path style="opacity:1" fill="#bebdc3" d="M 86.5,164.5 C 87.5676,163.566 88.901,163.232 90.5,163.5C 118.833,164.833 147.167,164.833 175.5,163.5C 176.791,163.263 177.791,163.596 178.5,164.5C 177.508,164.328 176.842,164.662 176.5,165.5C 147.5,165.5 118.5,165.5 89.5,165.5C 88.791,164.596 87.791,164.263 86.5,164.5 Z"/></g>
<g><path style="opacity:1" fill="#fcfdfc" d="M 89.5,165.5 C 118.5,165.5 147.5,165.5 176.5,165.5C 185.784,167.226 191.951,172.559 195,181.5C 195.167,194.167 195.333,206.833 195.5,219.5C 195.632,233.552 195.132,247.552 194,261.5C 190.203,269.464 184.036,274.131 175.5,275.5C 146.498,275.667 117.498,275.5 88.5,275C 78.5845,272.084 72.4179,265.584 70,255.5C 69.5,232.169 69.3334,208.836 69.5,185.5C 71.8709,174.462 78.5376,167.796 89.5,165.5 Z"/></g>
<g><path style="opacity:0.725" fill="#9c9ca1" d="M 293.5,165.5 C 293.027,166.906 292.027,167.573 290.5,167.5C 290.973,166.094 291.973,165.427 293.5,165.5 Z"/></g>
<g><path style="opacity:1" fill="#363242" d="M 301.5,166.5 C 304.123,168.265 307.123,168.932 310.5,168.5C 311.924,172.496 313.257,176.496 314.5,180.5C 314.968,185.771 313.968,190.771 311.5,195.5C 309.882,192.829 309.215,189.829 309.5,186.5C 303.835,185.994 301.168,182.827 301.5,177C 296.562,176.939 291.728,177.773 287,179.5C 285.862,179.011 284.695,178.678 283.5,178.5C 283.5,178.167 283.5,177.833 283.5,177.5C 283.343,176.127 283.51,174.793 284,173.5C 285.376,172.295 286.542,170.962 287.5,169.5C 287.973,168.094 288.973,167.427 290.5,167.5C 292.027,167.573 293.027,166.906 293.5,165.5C 296.34,164.083 299.007,164.416 301.5,166.5 Z"/></g>
<g><path style="opacity:0.851" fill="#91909b" d="M 301.5,166.5 C 304.727,166.676 307.727,167.343 310.5,168.5C 307.123,168.932 304.123,168.265 301.5,166.5 Z"/></g>
<g><path style="opacity:0.671" fill="#95949f" d="M 287.5,169.5 C 286.542,170.962 285.376,172.295 284,173.5C 283.51,174.793 283.343,176.127 283.5,177.5C 281.559,176.362 281.392,174.696 283,172.5C 284.129,170.859 285.629,169.859 287.5,169.5 Z"/></g>
<g><path style="opacity:1" fill="#7e7d82" d="M 86.5,164.5 C 87.791,164.263 88.791,164.596 89.5,165.5C 78.5376,167.796 71.8709,174.462 69.5,185.5C 69.1667,185.5 68.8333,185.5 68.5,185.5C 70.0938,174.605 76.0938,167.605 86.5,164.5 Z"/></g>
<g><path style="opacity:0.541" fill="#9f9ea6" d="M 310.5,168.5 C 311.496,168.414 312.329,168.748 313,169.5C 313.548,173.17 314.048,176.837 314.5,180.5C 313.257,176.496 311.924,172.496 310.5,168.5 Z"/></g>
<g><path style="opacity:0.897" fill="#828187" d="M 176.5,165.5 C 176.842,164.662 177.508,164.328 178.5,164.5C 186.89,166.382 192.724,171.382 196,179.5C 197.14,192.767 197.64,206.101 197.5,219.5C 197.631,233.219 197.131,246.886 196,260.5C 192.43,268.908 186.263,274.241 177.5,276.5C 177.158,275.662 176.492,275.328 175.5,275.5C 184.036,274.131 190.203,269.464 194,261.5C 195.132,247.552 195.632,233.552 195.5,219.5C 195.333,206.833 195.167,194.167 195,181.5C 191.951,172.559 185.784,167.226 176.5,165.5 Z"/></g>
<g><path style="opacity:1" fill="#f4b6b9" d="M 311.5,195.5 C 311.56,198.341 312.226,201.007 313.5,203.5C 312.167,203.5 310.833,203.5 309.5,203.5C 303.833,203.5 298.167,203.5 292.5,203.5C 293.635,202.526 294.635,201.359 295.5,200C 286.628,195.412 282.628,188.245 283.5,178.5C 284.695,178.678 285.862,179.011 287,179.5C 291.728,177.773 296.562,176.939 301.5,177C 301.168,182.827 303.835,185.994 309.5,186.5C 309.215,189.829 309.882,192.829 311.5,195.5 Z"/></g>
<g><path style="opacity:1" fill="#9f91e7" d="M 309.5,203.5 C 310.833,203.5 312.167,203.5 313.5,203.5C 316.485,204.326 319.151,205.659 321.5,207.5C 317.255,206.51 313.255,205.176 309.5,203.5 Z"/></g>
<g><path style="opacity:1" fill="#6c63fc" d="M 292.5,203.5 C 298.167,203.5 303.833,203.5 309.5,203.5C 313.255,205.176 317.255,206.51 321.5,207.5C 321.833,207.5 322.167,207.5 322.5,207.5C 324.579,209.873 327.246,211.206 330.5,211.5C 330.5,212.5 330.5,213.5 330.5,214.5C 333.453,214.15 335.787,215.15 337.5,217.5C 338.154,223.81 338.654,230.143 339,236.5C 339.278,237.416 339.778,238.082 340.5,238.5C 341.434,239.568 341.768,240.901 341.5,242.5C 342.611,247.388 342.611,252.221 341.5,257C 342.449,257.617 343.282,257.451 344,256.5C 345.61,265.845 347.11,275.178 348.5,284.5C 344.889,284.956 341.556,284.289 338.5,282.5C 337.571,283.689 337.238,285.022 337.5,286.5C 336.5,286.5 335.5,286.5 334.5,286.5C 334.666,281.156 334.499,275.823 334,270.5C 333.773,267.94 332.44,266.274 330,265.5C 328.905,270.78 328.405,276.113 328.5,281.5C 327.835,283.369 327.169,285.369 326.5,287.5C 318.705,286.185 311.038,286.185 303.5,287.5C 301.833,287.5 300.167,287.5 298.5,287.5C 293.823,288.741 289.157,288.741 284.5,287.5C 283.5,287.5 282.5,287.5 281.5,287.5C 281.5,287.167 281.5,286.833 281.5,286.5C 280.955,283.187 280.455,279.854 280,276.5C 279.617,275.944 279.117,275.611 278.5,275.5C 277.549,274.081 277.216,272.415 277.5,270.5C 277.667,259.828 277.5,249.161 277,238.5C 276.283,239.044 275.783,239.711 275.5,240.5C 275.672,241.492 275.338,242.158 274.5,242.5C 272.173,242.247 270.173,242.914 268.5,244.5C 267.269,245.651 267.269,246.817 268.5,248C 267.5,248.333 266.5,248.667 265.5,249C 266.337,250.011 266.67,251.178 266.5,252.5C 265.178,252.67 264.011,252.337 263,251.5C 262.517,252.448 262.351,253.448 262.5,254.5C 259.365,254.548 257.698,256.215 257.5,259.5C 256.914,259.291 256.414,258.957 256,258.5C 256.019,260.107 256.185,261.774 256.5,263.5C 255.89,265.434 254.89,267.101 253.5,268.5C 249.566,270.65 248.233,273.65 249.5,277.5C 247.833,277.5 246.167,277.5 244.5,277.5C 242.62,277.771 241.287,277.104 240.5,275.5C 240.721,274.265 241.388,273.265 242.5,272.5C 241.428,270.283 240.761,267.95 240.5,265.5C 241.867,262.255 242.867,258.922 243.5,255.5C 245.343,254.754 246.676,253.421 247.5,251.5C 248.736,252.246 250.07,252.579 251.5,252.5C 250.737,249.859 250.57,247.192 251,244.5C 252.716,243.448 253.716,244.114 254,246.5C 254.87,245.892 255.37,245.059 255.5,244C 254.713,241.901 254.38,239.734 254.5,237.5C 255.906,237.027 256.573,236.027 256.5,234.5C 257.906,234.027 258.573,233.027 258.5,231.5C 263.028,228.833 264.695,224.833 263.5,219.5C 265.587,218.415 266.92,216.749 267.5,214.5C 267.833,214.5 268.167,214.5 268.5,214.5C 270.697,213.155 273.03,211.989 275.5,211C 280.959,211.355 285.293,209.521 288.5,205.5C 289.514,204.326 290.847,203.66 292.5,203.5 Z"/></g>
<g><path style="opacity:1" fill="#8075e9" d="M 288.5,205.5 C 285.293,209.521 280.959,211.355 275.5,211C 273.03,211.989 270.697,213.155 268.5,214.5C 269.5,213.167 270.5,211.833 271.5,210.5C 277.322,209.779 282.988,208.112 288.5,205.5 Z"/></g>
<g><path style="opacity:0.878" fill="#9d97e8" d="M 322.5,207.5 C 325.485,208.326 328.151,209.659 330.5,211.5C 327.246,211.206 324.579,209.873 322.5,207.5 Z"/></g>
<g><path style="opacity:1" fill="#2f343f" d="M 154.5,205.5 C 157.881,205.46 161.214,205.793 164.5,206.5C 164.5,207.5 164.5,208.5 164.5,209.5C 161.531,208.671 158.531,208.505 155.5,209C 154.167,210.667 154.167,212.333 155.5,214C 159.19,214.536 162.356,216.036 165,218.5C 166.123,221.956 165.29,224.79 162.5,227C 158.833,227.667 155.167,227.667 151.5,227C 150.483,225.951 150.316,224.784 151,223.5C 154.073,224.617 157.24,224.784 160.5,224C 161.747,222.506 161.747,221.006 160.5,219.5C 156.841,218.676 153.674,217.01 151,214.5C 149.959,210.59 151.125,207.59 154.5,205.5 Z"/></g>
<g><path style="opacity:0.62" fill="#c8c1fb" d="M 271.5,210.5 C 270.5,211.833 269.5,213.167 268.5,214.5C 268.167,214.5 267.833,214.5 267.5,214.5C 267.833,212.167 269.167,210.833 271.5,210.5 Z"/></g>
<g><path style="opacity:1" fill="#8c81ee" d="M 330.5,211.5 C 334.089,212.092 336.422,214.092 337.5,217.5C 335.787,215.15 333.453,214.15 330.5,214.5C 330.5,213.5 330.5,212.5 330.5,211.5 Z"/></g>
<g><path style="opacity:1" fill="#8d929a" d="M 112.5,211.5 C 113.434,212.568 113.768,213.901 113.5,215.5C 110.5,215.5 107.5,215.5 104.5,215.5C 106.948,214.527 109.615,214.194 112.5,214.5C 112.5,213.5 112.5,212.5 112.5,211.5 Z"/></g>
<g><path style="opacity:1" fill="#2b323c" d="M 104.5,215.5 C 107.5,215.5 110.5,215.5 113.5,215.5C 113.768,213.901 113.434,212.568 112.5,211.5C 112.047,210.542 111.381,209.708 110.5,209C 107.469,208.505 104.469,208.671 101.5,209.5C 102.174,206.093 104.341,204.76 108,205.5C 111.2,205.147 113.867,206.147 116,208.5C 116.264,213.863 116.764,219.197 117.5,224.5C 116.724,227.969 115.224,228.302 113,225.5C 108.355,228.459 104.021,228.126 100,224.5C 98.4221,219.843 99.9221,216.843 104.5,215.5 Z"/></g>
<g><path style="opacity:1" fill="#303742" d="M 119.5,206.5 C 121.144,206.286 122.644,206.62 124,207.5C 124.713,212.352 126.046,217.019 128,221.5C 129.014,216.445 130.181,211.445 131.5,206.5C 133.167,206.5 134.833,206.5 136.5,206.5C 137.599,211.827 138.766,217.16 140,222.5C 141.181,217.44 142.515,212.44 144,207.5C 145.388,206.446 146.888,206.28 148.5,207C 145.957,213.672 143.957,220.505 142.5,227.5C 140.833,227.5 139.167,227.5 137.5,227.5C 135.551,208.291 133.051,207.958 130,226.5C 128.644,227.38 127.144,227.714 125.5,227.5C 123.656,220.456 121.656,213.456 119.5,206.5 Z"/></g>
<g><path style="opacity:0.627" fill="#c6bcf5" d="M 267.5,214.5 C 266.92,216.749 265.587,218.415 263.5,219.5C 264.08,217.251 265.413,215.585 267.5,214.5 Z"/></g>
<g><path style="opacity:1" fill="#e6eaed" d="M 105.5,217.5 C 107.857,217.337 110.19,217.503 112.5,218C 112.933,223.536 110.266,225.536 104.5,224C 103.144,221.586 103.478,219.419 105.5,217.5 Z"/></g>
<g><path style="opacity:1" fill="#988feb" d="M 263.5,219.5 C 264.695,224.833 263.028,228.833 258.5,231.5C 260.581,227.644 262.248,223.644 263.5,219.5 Z"/></g>
<g><path style="opacity:0.471" fill="#c3bdfc" d="M 258.5,231.5 C 258.573,233.027 257.906,234.027 256.5,234.5C 256.427,232.973 257.094,231.973 258.5,231.5 Z"/></g>
<g><path style="opacity:1" fill="#8880e7" d="M 337.5,217.5 C 338.6,219.277 339.434,221.277 340,223.5C 340.034,228.589 340.2,233.589 340.5,238.5C 339.778,238.082 339.278,237.416 339,236.5C 338.654,230.143 338.154,223.81 337.5,217.5 Z"/></g>
<g><path style="opacity:1" fill="#fef3d0" d="M 167.5,241.5 C 168.75,238.994 169.416,236.327 169.5,233.5C 164.58,231.933 159.913,232.433 155.5,235C 158.817,235.498 162.15,235.665 165.5,235.5C 165.309,238.983 164.643,242.316 163.5,245.5C 162.71,244.391 162.21,243.058 162,241.5C 160.275,242.464 158.441,243.131 156.5,243.5C 158.187,242.082 160.02,240.749 162,239.5C 162.591,238.517 162.257,237.85 161,237.5C 140.397,246.034 120.064,245.367 100,235.5C 98.9701,235.836 98.4701,236.503 98.5,237.5C 97.4138,237.38 96.7472,236.713 96.5,235.5C 96.8333,234.833 97.1667,234.167 97.5,233.5C 103.555,235.354 109.555,237.52 115.5,240C 121.703,240.562 127.87,241.395 134,242.5C 140.698,241.032 147.532,239.865 154.5,239C 155.167,238.667 155.833,238.333 156.5,238C 154.473,236.604 154.14,234.938 155.5,233C 160.42,231.75 165.42,231.25 170.5,231.5C 170.664,234.187 170.497,236.854 170,239.5C 169.583,240.756 168.75,241.423 167.5,241.5 Z"/></g>
<g><path style="opacity:0.506" fill="#c3b7fa" d="M 256.5,234.5 C 256.573,236.027 255.906,237.027 254.5,237.5C 254.427,235.973 255.094,234.973 256.5,234.5 Z"/></g>
<g><path style="opacity:1" fill="#efa540" d="M 167.5,241.5 C 166.598,243.341 165.264,244.674 163.5,245.5C 164.643,242.316 165.309,238.983 165.5,235.5C 162.15,235.665 158.817,235.498 155.5,235C 159.913,232.433 164.58,231.933 169.5,233.5C 169.416,236.327 168.75,238.994 167.5,241.5 Z"/></g>
<g><path style="opacity:1" fill="#f29e26" d="M 156.5,243.5 C 151.66,245.294 146.66,246.627 141.5,247.5C 136.537,248.254 131.537,248.587 126.5,248.5C 121.512,247.452 116.512,246.286 111.5,245C 107.112,242.477 102.778,239.977 98.5,237.5C 98.4701,236.503 98.9701,235.836 100,235.5C 120.064,245.367 140.397,246.034 161,237.5C 162.257,237.85 162.591,238.517 162,239.5C 160.02,240.749 158.187,242.082 156.5,243.5 Z"/></g>
<g><path style="opacity:1" fill="#fce3a2" d="M 141.5,247.5 C 138.814,248.991 135.814,249.657 132.5,249.5C 130.304,249.495 128.304,249.162 126.5,248.5C 131.537,248.587 136.537,248.254 141.5,247.5 Z"/></g>
<g><path style="opacity:1" fill="#7a6ef2" d="M 254.5,237.5 C 254.38,239.734 254.713,241.901 255.5,244C 255.37,245.059 254.87,245.892 254,246.5C 253.716,244.114 252.716,243.448 251,244.5C 250.57,247.192 250.737,249.859 251.5,252.5C 250.07,252.579 248.736,252.246 247.5,251.5C 246.676,253.421 245.343,254.754 243.5,255.5C 246.381,248.967 250.047,242.967 254.5,237.5 Z"/></g>
<g><path style="opacity:1" fill="#8a7cf2" d="M 274.5,242.5 C 269.991,250.683 263.991,257.683 256.5,263.5C 256.185,261.774 256.019,260.107 256,258.5C 256.414,258.957 256.914,259.291 257.5,259.5C 257.698,256.215 259.365,254.548 262.5,254.5C 262.351,253.448 262.517,252.448 263,251.5C 264.011,252.337 265.178,252.67 266.5,252.5C 266.67,251.178 266.337,250.011 265.5,249C 266.5,248.667 267.5,248.333 268.5,248C 267.269,246.817 267.269,245.651 268.5,244.5C 270.173,242.914 272.173,242.247 274.5,242.5 Z"/></g>
<g><path style="opacity:0.31" fill="#ceceff" d="M 277.5,270.5 C 276.833,260.5 276.167,250.5 275.5,240.5C 275.783,239.711 276.283,239.044 277,238.5C 277.5,249.161 277.667,259.828 277.5,270.5 Z"/></g>
<g><path style="opacity:1" fill="#7a6df0" d="M 243.5,255.5 C 242.867,258.922 241.867,262.255 240.5,265.5C 240.761,267.95 241.428,270.283 242.5,272.5C 241.388,273.265 240.721,274.265 240.5,275.5C 238.5,274.833 236.5,274.167 234.5,273.5C 236.987,267.193 239.987,261.193 243.5,255.5 Z"/></g>
<g><path style="opacity:1" fill="#8577e8" d="M 253.5,268.5 C 253.035,272.062 251.868,275.395 250,278.5C 249.329,279.252 248.496,279.586 247.5,279.5C 245.973,279.573 244.973,278.906 244.5,277.5C 246.167,277.5 247.833,277.5 249.5,277.5C 248.233,273.65 249.566,270.65 253.5,268.5 Z"/></g>
<g><path style="opacity:1" fill="#8274e7" d="M 341.5,242.5 C 346.196,256.331 348.863,270.664 349.5,285.5C 344.833,286.167 340.167,286.833 335.5,287.5C 334.833,287.5 334.5,287.167 334.5,286.5C 335.5,286.5 336.5,286.5 337.5,286.5C 337.238,285.022 337.571,283.689 338.5,282.5C 341.556,284.289 344.889,284.956 348.5,284.5C 347.11,275.178 345.61,265.845 344,256.5C 343.282,257.451 342.449,257.617 341.5,257C 342.611,252.221 342.611,247.388 341.5,242.5 Z"/></g>
<g><path style="opacity:0.999" fill="#6d6c71" d="M 68.5,185.5 C 68.8333,185.5 69.1667,185.5 69.5,185.5C 69.3334,208.836 69.5,232.169 70,255.5C 72.4179,265.584 78.5845,272.084 88.5,275C 117.498,275.5 146.498,275.667 175.5,275.5C 176.492,275.328 177.158,275.662 177.5,276.5C 153.656,276.245 129.823,276.578 106,277.5C 99.4937,277.083 92.9937,276.583 86.5,276C 77.3333,273.5 71.5,267.667 69,258.5C 68.7515,240.157 68.2515,221.823 67.5,203.5C 68.1654,197.516 68.4987,191.516 68.5,185.5 Z"/></g>
<g><path style="opacity:1" fill="#9086ea" d="M 278.5,275.5 C 279.117,275.611 279.617,275.944 280,276.5C 280.455,279.854 280.955,283.187 281.5,286.5C 279.432,283.237 278.432,279.57 278.5,275.5 Z"/></g>
<g><path style="opacity:1" fill="#837aea" d="M 334.5,286.5 C 333.778,286.082 333.278,285.416 333,284.5C 332.899,279.054 332.232,273.721 331,268.5C 330.126,272.965 329.293,277.298 328.5,281.5C 328.405,276.113 328.905,270.78 330,265.5C 332.44,266.274 333.773,267.94 334,270.5C 334.499,275.823 334.666,281.156 334.5,286.5 Z"/></g>
<g><path style="opacity:1" fill="#635cc5" d="M 328.5,281.5 C 328.5,284.167 328.5,286.833 328.5,289.5C 325.482,289.296 322.482,288.963 319.5,288.5C 314.36,287.512 309.026,287.179 303.5,287.5C 311.038,286.185 318.705,286.185 326.5,287.5C 327.169,285.369 327.835,283.369 328.5,281.5 Z"/></g>
<g><path style="opacity:1" fill="#fababc" d="M 234.5,273.5 C 236.5,274.167 238.5,274.833 240.5,275.5C 241.287,277.104 242.62,277.771 244.5,277.5C 244.973,278.906 245.973,279.573 247.5,279.5C 242.473,287.222 238.806,295.556 236.5,304.5C 235.662,304.842 235.328,305.508 235.5,306.5C 234.329,309.933 231.996,312.266 228.5,313.5C 225.401,312.315 224.068,309.982 224.5,306.5C 224.5,305.833 224.5,305.167 224.5,304.5C 230.439,295.102 233.772,284.769 234.5,273.5 Z"/></g>
<g><path style="opacity:1" fill="#323042" d="M 281.5,287.5 C 282.388,289.273 283.721,290.606 285.5,291.5C 296.652,288.974 307.985,287.974 319.5,288.5C 322.482,288.963 325.482,289.296 328.5,289.5C 329.726,294.346 331.059,299.179 332.5,304C 331.457,310.515 330.457,317.015 329.5,323.5C 328.167,324.833 328.167,326.167 329.5,327.5C 328.25,330.006 327.584,332.673 327.5,335.5C 326.872,343.171 325.872,350.838 324.5,358.5C 323.968,366.222 322.968,373.889 321.5,381.5C 322.095,383.761 323.429,385.428 325.5,386.5C 326.167,392.833 326.833,399.167 327.5,405.5C 328.826,415.828 334.492,422.494 344.5,425.5C 342.387,426.886 340.387,426.552 338.5,424.5C 337.575,425.357 336.908,426.357 336.5,427.5C 334.833,428.833 333.167,428.833 331.5,427.5C 330.5,426.5 329.5,425.5 328.5,424.5C 326.431,419.362 323.598,414.695 320,410.5C 320.704,415.2 320.537,419.867 319.5,424.5C 318.599,425.29 317.932,426.29 317.5,427.5C 315.71,428.997 313.544,429.664 311,429.5C 308.456,429.664 306.29,428.997 304.5,427.5C 303.529,423.233 303.529,418.9 304.5,414.5C 305.388,409.928 306.721,405.595 308.5,401.5C 309.789,396.754 309.456,392.087 307.5,387.5C 297.838,378.006 288.005,368.672 278,359.5C 277.591,337.493 277.924,315.493 279,293.5C 279.566,291.277 280.4,289.277 281.5,287.5 Z M 304.5,332.5 C 304.46,340.187 304.793,347.854 305.5,355.5C 305.795,357.735 305.461,359.735 304.5,361.5C 302.381,358.766 300.381,355.933 298.5,353C 300.232,346.572 301.566,340.072 302.5,333.5C 303.167,333.167 303.833,332.833 304.5,332.5 Z M 328.5,424.5 C 325.5,425.833 322.5,425.833 319.5,424.5C 320.537,419.867 320.704,415.2 320,410.5C 323.598,414.695 326.431,419.362 328.5,424.5 Z"/></g>
<g><path style="opacity:1" fill="#2e2b55" d="M 281.5,287.5 C 282.5,287.5 283.5,287.5 284.5,287.5C 286.29,288.997 288.456,289.664 291,289.5C 293.821,289.592 296.321,288.926 298.5,287.5C 300.167,287.5 301.833,287.5 303.5,287.5C 309.026,287.179 314.36,287.512 319.5,288.5C 307.985,287.974 296.652,288.974 285.5,291.5C 283.721,290.606 282.388,289.273 281.5,287.5 Z"/></g>
<g><path style="opacity:1" fill="#5049a4" d="M 284.5,287.5 C 289.157,288.741 293.823,288.741 298.5,287.5C 296.321,288.926 293.821,289.592 291,289.5C 288.456,289.664 286.29,288.997 284.5,287.5 Z"/></g>
<g><path style="opacity:0.792" fill="#e6c4ca" d="M 349.5,285.5 C 346.711,295.007 346.044,304.674 347.5,314.5C 375.833,315.167 404.167,315.833 432.5,316.5C 404.167,316.5 375.833,316.5 347.5,316.5C 347.795,318.735 347.461,320.735 346.5,322.5C 346.586,323.496 346.252,324.329 345.5,325C 341.255,326.248 338.588,324.748 337.5,320.5C 337.672,319.508 337.338,318.842 336.5,318.5C 337.809,308.127 337.476,297.793 335.5,287.5C 340.167,286.833 344.833,286.167 349.5,285.5 Z"/></g>
<g><path style="opacity:1" fill="#fcb6b6" d="M 346.5,322.5 C 343.926,324.077 341.593,323.743 339.5,321.5C 338.89,310.575 337.89,299.741 336.5,289C 339.817,288.502 343.15,288.335 346.5,288.5C 345.206,299.835 345.206,311.168 346.5,322.5 Z"/></g>
<g><path style="opacity:1" fill="#89888e" d="M 224.5,304.5 C 224.5,305.167 224.5,305.833 224.5,306.5C 202.164,306.333 179.831,306.5 157.5,307C 148.555,310.063 143.222,316.229 141.5,325.5C 140.662,325.158 140.328,324.492 140.5,323.5C 143.01,313.491 149.343,307.324 159.5,305C 181.164,304.5 202.831,304.333 224.5,304.5 Z"/></g>
<g><path style="opacity:1" fill="#fdfefe" d="M 224.5,306.5 C 224.068,309.982 225.401,312.315 228.5,313.5C 231.996,312.266 234.329,309.933 235.5,306.5C 248.428,304.221 258.261,308.554 265,319.5C 265.977,321.74 266.477,324.073 266.5,326.5C 266.5,350.167 266.5,373.833 266.5,397.5C 264.755,407.746 258.755,413.913 248.5,416C 218.833,416.667 189.167,416.667 159.5,416C 149.049,413.05 143.049,406.217 141.5,395.5C 141.5,372.167 141.5,348.833 141.5,325.5C 143.222,316.229 148.555,310.063 157.5,307C 179.831,306.5 202.164,306.333 224.5,306.5 Z"/></g>
<g><path style="opacity:0.886" fill="#747278" d="M 236.5,304.5 C 250.59,302.626 260.756,307.959 267,320.5C 268.472,345.769 268.972,371.102 268.5,396.5C 267.833,373.167 267.167,349.833 266.5,326.5C 266.477,324.073 265.977,321.74 265,319.5C 258.261,308.554 248.428,304.221 235.5,306.5C 235.328,305.508 235.662,304.842 236.5,304.5 Z"/></g>
<g><path style="opacity:1" fill="#fdfdfd" d="M 432.5,316.5 C 443.64,318.309 450.64,324.642 453.5,335.5C 453.667,358.836 453.5,382.169 453,405.5C 450.829,417.004 443.996,423.837 432.5,426C 403.125,426.817 373.791,426.65 344.5,425.5C 334.492,422.494 328.826,415.828 327.5,405.5C 327.5,382.167 327.5,358.833 327.5,335.5C 327.584,332.673 328.25,330.006 329.5,327.5C 331.523,324.48 334.19,322.146 337.5,320.5C 338.588,324.748 341.255,326.248 345.5,325C 346.252,324.329 346.586,323.496 346.5,322.5C 347.461,320.735 347.795,318.735 347.5,316.5C 375.833,316.5 404.167,316.5 432.5,316.5 Z"/></g>
<g><path style="opacity:0.918" fill="#747379" d="M 347.5,314.5 C 377.169,314.333 406.835,314.5 436.5,315C 446.26,318.59 452.26,325.424 454.5,335.5C 454.167,335.5 453.833,335.5 453.5,335.5C 450.64,324.642 443.64,318.309 432.5,316.5C 404.167,315.833 375.833,315.167 347.5,314.5 Z"/></g>
<g><path style="opacity:1" fill="#7e7c82" d="M 336.5,318.5 C 337.338,318.842 337.672,319.508 337.5,320.5C 334.19,322.146 331.523,324.48 329.5,327.5C 328.167,326.167 328.167,324.833 329.5,323.5C 329.435,323.938 329.601,324.272 330,324.5C 332.037,322.294 334.203,320.294 336.5,318.5 Z"/></g>
<g><path style="opacity:1" fill="#b8b7bc" d="M 140.5,323.5 C 140.328,324.492 140.662,325.158 141.5,325.5C 141.5,348.833 141.5,372.167 141.5,395.5C 140.833,372.5 140.167,349.5 139.5,326.5C 139.263,325.209 139.596,324.209 140.5,323.5 Z"/></g>
<g><path style="opacity:0.059" fill="#9c9bae" d="M 304.5,332.5 C 303.833,332.833 303.167,333.167 302.5,333.5C 303.088,327.854 303.754,327.521 304.5,332.5 Z"/></g>
<g><path style="opacity:1" fill="#cdccd2" d="M 266.5,326.5 C 267.167,349.833 267.833,373.167 268.5,396.5C 268.737,397.791 268.404,398.791 267.5,399.5C 267.672,398.508 267.338,397.842 266.5,397.5C 266.5,373.833 266.5,350.167 266.5,326.5 Z"/></g>
<g><path style="opacity:1" fill="#3bc0ee" d="M 196.5,333.5 C 202.842,333.334 209.175,333.5 215.5,334C 217.509,336.854 218.842,340.021 219.5,343.5C 218.074,344.802 216.741,346.302 215.5,348C 216.5,348.833 217.5,349.667 218.5,350.5C 217.902,351.795 217.402,353.128 217,354.5C 215.5,352.167 214,349.833 212.5,347.5C 211.398,350.716 209.564,353.383 207,355.5C 205.801,353.424 204.301,351.758 202.5,350.5C 200.502,344.838 198.502,339.172 196.5,333.5 Z"/></g>
<g><path style="opacity:1" fill="#e64738" d="M 406.5,353.5 C 404.463,355.202 402.797,357.202 401.5,359.5C 396.317,357.65 390.983,357.15 385.5,358C 384.29,359.039 383.29,360.206 382.5,361.5C 377.638,361.118 372.972,361.784 368.5,363.5C 370.329,356.337 374.662,351.337 381.5,348.5C 389.908,346.506 397.908,347.506 405.5,351.5C 406.298,351.957 406.631,352.624 406.5,353.5 Z"/></g>
<g><path style="opacity:1" fill="#dc6860" d="M 407.5,351.5 C 407.672,352.492 407.338,353.158 406.5,353.5C 406.631,352.624 406.298,351.957 405.5,351.5C 397.908,347.506 389.908,346.506 381.5,348.5C 390.767,343.937 399.434,344.937 407.5,351.5 Z"/></g>
<g><path style="opacity:1" fill="#165292" d="M 196.5,333.5 C 198.502,339.172 200.502,344.838 202.5,350.5C 203.219,352.764 203.552,355.097 203.5,357.5C 202.346,360.452 201.346,363.452 200.5,366.5C 199.596,367.209 199.263,368.209 199.5,369.5C 199.167,369.5 198.833,369.5 198.5,369.5C 199.64,365.901 200.14,362.234 200,358.5C 199.586,358.957 199.086,359.291 198.5,359.5C 197.206,357.038 195.706,354.705 194,352.5C 193.871,355.003 192.871,357.003 191,358.5C 189.976,354.8 189.31,351.133 189,347.5C 187.382,353.331 185.216,358.664 182.5,363.5C 184.819,354.041 187.652,344.708 191,335.5C 192.444,333.845 194.278,333.178 196.5,333.5 Z"/></g>
<g><path style="opacity:1" fill="#3ab2e8" d="M 219.5,343.5 C 222.549,350.978 225.216,358.645 227.5,366.5C 225.581,363.681 223.415,361.014 221,358.5C 216.915,360.27 213.915,363.27 212,367.5C 210.887,368.305 209.721,368.972 208.5,369.5C 207.184,365.911 206.017,362.244 205,358.5C 204.617,357.944 204.117,357.611 203.5,357.5C 203.552,355.097 203.219,352.764 202.5,350.5C 204.301,351.758 205.801,353.424 207,355.5C 209.564,353.383 211.398,350.716 212.5,347.5C 214,349.833 215.5,352.167 217,354.5C 217.402,353.128 217.902,351.795 218.5,350.5C 217.5,349.667 216.5,348.833 215.5,348C 216.741,346.302 218.074,344.802 219.5,343.5 Z"/></g>
<g><path style="opacity:1" fill="#fafbf8" d="M 401.5,359.5 C 402.412,361.595 403.579,363.595 405,365.5C 405.497,367.81 405.663,370.143 405.5,372.5C 407.216,372.629 408.883,372.962 410.5,373.5C 414.34,379.969 412.673,384.302 405.5,386.5C 401.167,386.5 396.833,386.5 392.5,386.5C 392.167,386.5 391.833,386.5 391.5,386.5C 386.36,385.512 381.026,385.179 375.5,385.5C 375.167,385.5 374.833,385.5 374.5,385.5C 371.138,381.856 370.805,378.022 373.5,374C 374.873,373.125 376.373,372.625 378,372.5C 380.708,373.109 383.208,374.109 385.5,375.5C 388.394,374.118 390.894,372.118 393,369.5C 393.442,367.386 392.609,366.052 390.5,365.5C 387.833,364.167 385.167,362.833 382.5,361.5C 383.29,360.206 384.29,359.039 385.5,358C 390.983,357.15 396.317,357.65 401.5,359.5 Z"/></g>
<g><path style="opacity:0.035" fill="#ababb8" d="M 305.5,355.5 C 306.634,357.966 306.801,360.633 306,363.5C 305.283,362.956 304.783,362.289 304.5,361.5C 305.461,359.735 305.795,357.735 305.5,355.5 Z"/></g>
<g><path style="opacity:1" fill="#6588d9" d="M 407.5,351.5 C 409.167,352.5 410.5,353.833 411.5,355.5C 409.775,356.278 408.109,356.611 406.5,356.5C 405.304,357.559 404.637,358.893 404.5,360.5C 405.967,363.266 406.8,366.266 407,369.5C 409.071,370.103 410.238,371.436 410.5,373.5C 408.883,372.962 407.216,372.629 405.5,372.5C 405.663,370.143 405.497,367.81 405,365.5C 403.579,363.595 402.412,361.595 401.5,359.5C 402.797,357.202 404.463,355.202 406.5,353.5C 407.338,353.158 407.672,352.492 407.5,351.5 Z"/></g>
<g><path style="opacity:1" fill="#37a5e4" d="M 227.5,366.5 C 229.029,370.421 230.363,374.421 231.5,378.5C 229.273,377.599 228.273,375.933 228.5,373.5C 225.299,375.188 223.133,374.188 222,370.5C 221.599,372.521 220.432,373.855 218.5,374.5C 217.575,373.359 216.741,373.359 216,374.5C 215.612,373.572 214.945,372.905 214,372.5C 212.862,372.989 211.695,373.322 210.5,373.5C 209.596,372.791 209.263,371.791 209.5,370.5C 205.958,370.813 202.625,370.479 199.5,369.5C 199.263,368.209 199.596,367.209 200.5,366.5C 200.5,367.5 200.5,368.5 200.5,369.5C 203.167,369.5 205.833,369.5 208.5,369.5C 209.721,368.972 210.887,368.305 212,367.5C 213.915,363.27 216.915,360.27 221,358.5C 223.415,361.014 225.581,363.681 227.5,366.5 Z"/></g>
<g><path style="opacity:1" fill="#e6f9fd" d="M 203.5,357.5 C 204.117,357.611 204.617,357.944 205,358.5C 206.017,362.244 207.184,365.911 208.5,369.5C 205.833,369.5 203.167,369.5 200.5,369.5C 200.5,368.5 200.5,367.5 200.5,366.5C 201.346,363.452 202.346,360.452 203.5,357.5 Z"/></g>
<g><path style="opacity:0.818" fill="#888794" d="M 327.5,335.5 C 327.5,358.833 327.5,382.167 327.5,405.5C 326.833,399.167 326.167,392.833 325.5,386.5C 325.827,376.985 325.494,367.652 324.5,358.5C 325.872,350.838 326.872,343.171 327.5,335.5 Z"/></g>
<g><path style="opacity:1" fill="#feefb3" d="M 390.5,365.5 C 392.609,366.052 393.442,367.386 393,369.5C 390.894,372.118 388.394,374.118 385.5,375.5C 387.127,373.37 388.96,371.37 391,369.5C 391.579,368.072 391.412,366.738 390.5,365.5 Z"/></g>
<g><path style="opacity:1" fill="#2e9ae0" d="M 231.5,378.5 C 233.224,381.925 233.557,385.425 232.5,389C 226.175,389.5 219.842,389.666 213.5,389.5C 213.804,388.85 214.137,388.183 214.5,387.5C 213.366,382.767 212.033,378.101 210.5,373.5C 211.695,373.322 212.862,372.989 214,372.5C 214.945,372.905 215.612,373.572 216,374.5C 216.741,373.359 217.575,373.359 218.5,374.5C 220.432,373.855 221.599,372.521 222,370.5C 223.133,374.188 225.299,375.188 228.5,373.5C 228.273,375.933 229.273,377.599 231.5,378.5 Z"/></g>
<g><path style="opacity:1" fill="#0a5fad" d="M 198.5,369.5 C 191.118,368.662 189.952,370.662 195,375.5C 195.49,376.793 195.657,378.127 195.5,379.5C 194.178,379.33 193.011,379.663 192,380.5C 191.727,382.329 190.893,383.829 189.5,385C 190.337,386.011 190.67,387.178 190.5,388.5C 185.833,388.5 181.167,388.5 176.5,388.5C 176.338,386.473 176.505,384.473 177,382.5C 177.414,382.957 177.914,383.291 178.5,383.5C 179.281,382.271 179.781,380.938 180,379.5C 180.333,379.833 180.667,380.167 181,380.5C 181.374,379.584 181.874,378.75 182.5,378C 181.152,376.426 180.486,374.593 180.5,372.5C 180.997,370.182 181.33,367.848 181.5,365.5C 181.328,364.508 181.662,363.842 182.5,363.5C 185.216,358.664 187.382,353.331 189,347.5C 189.31,351.133 189.976,354.8 191,358.5C 192.871,357.003 193.871,355.003 194,352.5C 195.706,354.705 197.206,357.038 198.5,359.5C 199.086,359.291 199.586,358.957 200,358.5C 200.14,362.234 199.64,365.901 198.5,369.5 Z"/></g>
<g><path style="opacity:1" fill="#f7bd18" d="M 382.5,361.5 C 385.167,362.833 387.833,364.167 390.5,365.5C 391.412,366.738 391.579,368.072 391,369.5C 388.96,371.37 387.127,373.37 385.5,375.5C 383.208,374.109 380.708,373.109 378,372.5C 376.373,372.625 374.873,373.125 373.5,374C 370.805,378.022 371.138,381.856 374.5,385.5C 372.5,388.167 370.167,390.5 367.5,392.5C 364.885,391.55 362.885,389.883 361.5,387.5C 359.603,380.795 360.27,374.461 363.5,368.5C 364.5,366.167 366.167,364.5 368.5,363.5C 372.972,361.784 377.638,361.118 382.5,361.5 Z"/></g>
<g><path style="opacity:1" fill="#0e74c7" d="M 198.5,369.5 C 198.833,369.5 199.167,369.5 199.5,369.5C 202.625,370.479 205.958,370.813 209.5,370.5C 209.263,371.791 209.596,372.791 210.5,373.5C 212.033,378.101 213.366,382.767 214.5,387.5C 214.137,388.183 213.804,388.85 213.5,389.5C 211.801,389.66 210.134,389.494 208.5,389C 205.167,385.667 201.833,382.333 198.5,379C 197.423,378.53 196.423,378.697 195.5,379.5C 195.657,378.127 195.49,376.793 195,375.5C 189.952,370.662 191.118,368.662 198.5,369.5 Z"/></g>
<g><path style="opacity:1" fill="#2869ac" d="M 181.5,365.5 C 181.33,367.848 180.997,370.182 180.5,372.5C 180.486,374.593 181.152,376.426 182.5,378C 181.874,378.75 181.374,379.584 181,380.5C 180.667,380.167 180.333,379.833 180,379.5C 179.781,380.938 179.281,382.271 178.5,383.5C 177.914,383.291 177.414,382.957 177,382.5C 176.505,384.473 176.338,386.473 176.5,388.5C 181.167,388.5 185.833,388.5 190.5,388.5C 190.67,387.178 190.337,386.011 189.5,385C 190.893,383.829 191.727,382.329 192,380.5C 193.011,379.663 194.178,379.33 195.5,379.5C 195.193,382.899 194.193,386.066 192.5,389C 186.833,389.667 181.167,389.667 175.5,389C 174.451,385.854 174.617,382.688 176,379.5C 177.617,374.623 179.45,369.956 181.5,365.5 Z"/></g>
<g><path style="opacity:1" fill="#fff8ce" d="M 363.5,368.5 C 360.27,374.461 359.603,380.795 361.5,387.5C 360.685,386.571 359.852,385.571 359,384.5C 358.333,380.833 358.333,377.167 359,373.5C 360.049,371.382 361.549,369.716 363.5,368.5 Z"/></g>
<g><path style="opacity:1" fill="#4494ae" d="M 391.5,386.5 C 391.833,386.5 392.167,386.5 392.5,386.5C 392.244,390.269 392.577,393.936 393.5,397.5C 392.833,397.5 392.167,397.5 391.5,397.5C 391.5,393.833 391.5,390.167 391.5,386.5 Z"/></g>
<g><path style="opacity:1" fill="#71a02f" d="M 374.5,385.5 C 374.833,385.5 375.167,385.5 375.5,385.5C 375.5,385.833 375.5,386.167 375.5,386.5C 373.5,388.833 371.5,391.167 369.5,393.5C 368.833,393.5 368.167,393.5 367.5,393.5C 367.5,393.167 367.5,392.833 367.5,392.5C 370.167,390.5 372.5,388.167 374.5,385.5 Z"/></g>
<g><path style="opacity:1" fill="#4686f1" d="M 411.5,355.5 C 414.657,361.515 418.491,367.181 423,372.5C 425.685,381.812 423.185,389.145 415.5,394.5C 411.77,395.607 407.936,396.273 404,396.5C 400.489,396.196 396.989,395.863 393.5,395.5C 393.5,392.833 393.5,390.167 393.5,387.5C 397.702,387.817 401.702,387.483 405.5,386.5C 412.673,384.302 414.34,379.969 410.5,373.5C 410.238,371.436 409.071,370.103 407,369.5C 406.8,366.266 405.967,363.266 404.5,360.5C 404.637,358.893 405.304,357.559 406.5,356.5C 408.109,356.611 409.775,356.278 411.5,355.5 Z"/></g>
<g><path style="opacity:1" fill="#36a753" d="M 375.5,386.5 C 380.5,386.5 385.5,386.5 390.5,386.5C 390.5,389.833 390.5,393.167 390.5,396.5C 385.156,396.666 379.823,396.499 374.5,396C 372.922,394.906 371.255,394.072 369.5,393.5C 371.5,391.167 373.5,388.833 375.5,386.5 Z"/></g>
<g><path style="opacity:0.949" fill="#676671" d="M 307.5,387.5 C 309.456,392.087 309.789,396.754 308.5,401.5C 308.167,396.833 307.833,392.167 307.5,387.5 Z"/></g>
<g><path style="opacity:1" fill="#71bc86" d="M 375.5,386.5 C 375.5,386.167 375.5,385.833 375.5,385.5C 381.026,385.179 386.36,385.512 391.5,386.5C 391.5,390.167 391.5,393.833 391.5,397.5C 385.158,397.666 378.825,397.5 372.5,397C 370.416,396.303 368.749,395.136 367.5,393.5C 368.167,393.5 368.833,393.5 369.5,393.5C 371.255,394.072 372.922,394.906 374.5,396C 379.823,396.499 385.156,396.666 390.5,396.5C 390.5,393.167 390.5,389.833 390.5,386.5C 385.5,386.5 380.5,386.5 375.5,386.5 Z"/></g>
<g><path style="opacity:1" fill="#5f92de" d="M 392.5,386.5 C 396.833,386.5 401.167,386.5 405.5,386.5C 401.702,387.483 397.702,387.817 393.5,387.5C 393.5,390.167 393.5,392.833 393.5,395.5C 396.989,395.863 400.489,396.196 404,396.5C 407.936,396.273 411.77,395.607 415.5,394.5C 413.981,395.41 412.315,396.243 410.5,397C 404.843,397.499 399.176,397.666 393.5,397.5C 392.577,393.936 392.244,390.269 392.5,386.5 Z"/></g>
<g><path style="opacity:1" fill="#7c7b81" d="M 139.5,326.5 C 140.167,349.5 140.833,372.5 141.5,395.5C 143.049,406.217 149.049,413.05 159.5,416C 189.167,416.667 218.833,416.667 248.5,416C 258.755,413.913 264.755,407.746 266.5,397.5C 267.338,397.842 267.672,398.508 267.5,399.5C 264.64,410.277 257.64,416.444 246.5,418C 218.167,418.667 189.833,418.667 161.5,418C 150.529,415.696 143.363,409.196 140,398.5C 139.5,374.502 139.333,350.502 139.5,326.5 Z"/></g>
<g><path style="opacity:0.727" fill="#6c6a76" d="M 304.5,414.5 C 303.529,418.9 303.529,423.233 304.5,427.5C 280.824,427.833 257.157,427.5 233.5,426.5C 256.49,425.5 279.49,425.167 302.5,425.5C 302.116,421.511 302.783,417.845 304.5,414.5 Z"/></g>
<g><path style="opacity:0.513" fill="#8e8d94" d="M 319.5,424.5 C 322.5,425.833 325.5,425.833 328.5,424.5C 329.5,425.5 330.5,426.5 331.5,427.5C 326.833,427.5 322.167,427.5 317.5,427.5C 317.932,426.29 318.599,425.29 319.5,424.5 Z"/></g>
<g><path style="opacity:0.955" fill="#79787f" d="M 453.5,335.5 C 453.833,335.5 454.167,335.5 454.5,335.5C 454.667,360.169 454.5,384.836 454,409.5C 450.42,420.411 442.92,426.578 431.5,428C 399.825,428.728 368.158,428.561 336.5,427.5C 336.908,426.357 337.575,425.357 338.5,424.5C 340.387,426.552 342.387,426.886 344.5,425.5C 373.791,426.65 403.125,426.817 432.5,426C 443.996,423.837 450.829,417.004 453,405.5C 453.5,382.169 453.667,358.836 453.5,335.5 Z"/></g>
</svg>
