<?xml version="1.0" encoding="UTF-8"?>
<!DOCTYPE svg PUBLIC "-//W3C//DTD SVG 1.1//EN" "http://www.w3.org/Graphics/SVG/1.1/DTD/svg11.dtd">
<svg xmlns="http://www.w3.org/2000/svg" version="1.1" width="624px" height="400px" style="shape-rendering:geometricPrecision; text-rendering:geometricPrecision; image-rendering:optimizeQuality; fill-rule:evenodd; clip-rule:evenodd" xmlns:xlink="http://www.w3.org/1999/xlink">
<g><path style="opacity:1" fill="#5f5d68" d="M 102.5,51.5 C 217.834,51.3333 333.167,51.5 448.5,52C 459.4,54.733 466.067,61.5664 468.5,72.5C 468.672,73.4916 468.338,74.1583 467.5,74.5C 464.63,62.2981 456.963,55.2981 444.5,53.5C 330.5,52.8333 216.5,52.1667 102.5,51.5 Z"/></g>
<g><path style="opacity:1" fill="#f2f2f2" d="M 444.5,53.5 C 456.963,55.2981 464.63,62.2981 467.5,74.5C 467.5,74.8333 467.5,75.1667 467.5,75.5C 338.167,74.1667 208.833,74.1667 79.5,75.5C 81.5026,63.9973 88.1693,56.8306 99.5,54C 214.5,53.5 329.5,53.3333 444.5,53.5 Z"/></g>
<g><path style="opacity:1" fill="#fdfdfd" d="M 204.5,60.5 C 251.838,60.1667 299.171,60.5001 346.5,61.5C 347.668,62.9056 347.335,64.0723 345.5,65C 298.5,65.6667 251.5,65.6667 204.5,65C 203.272,63.5098 203.272,62.0098 204.5,60.5 Z"/></g>
<g><path style="opacity:1" fill="#fefefe" d="M 467.5,75.5 C 467.5,104.167 467.5,132.833 467.5,161.5C 466.209,161.263 465.209,161.596 464.5,162.5C 461.895,165.06 459.562,164.727 457.5,161.5C 451.681,159.591 446.514,160.591 442,164.5C 441.023,166.74 440.523,169.073 440.5,171.5C 440.972,177.836 444.139,182.503 450,185.5C 450.49,186.793 450.657,188.127 450.5,189.5C 450.5,190.167 450.5,190.833 450.5,191.5C 448.75,192.659 447.75,194.326 447.5,196.5C 445.659,198.849 444.326,201.515 443.5,204.5C 442.693,208.021 442.026,211.688 441.5,215.5C 441.5,215.833 441.5,216.167 441.5,216.5C 439.796,219.939 438.462,223.605 437.5,227.5C 436.596,228.209 436.263,229.209 436.5,230.5C 435.596,231.209 435.263,232.209 435.5,233.5C 431.766,240.619 427.266,247.286 422,253.5C 421.333,255.833 421.333,258.167 422,260.5C 425.451,262.17 427.951,261.17 429.5,257.5C 433.979,249.215 438.979,241.215 444.5,233.5C 445.167,233.5 445.833,233.5 446.5,233.5C 446.5,234.5 446.5,235.5 446.5,236.5C 447.295,241.149 447.461,245.816 447,250.5C 435.881,274.026 427.047,298.36 420.5,323.5C 419.089,325.914 417.089,327.581 414.5,328.5C 409.223,327.49 403.889,326.99 398.5,327C 397.941,327.725 397.608,328.558 397.5,329.5C 401.102,337.311 407.102,342.311 415.5,344.5C 405.013,345.494 394.346,345.828 383.5,345.5C 302.5,345.5 221.5,345.5 140.5,345.5C 109.936,341.781 90.1028,325.114 81,295.5C 80.5804,291.809 80.0804,288.142 79.5,284.5C 79.5,214.833 79.5,145.167 79.5,75.5C 208.833,74.1667 338.167,74.1667 467.5,75.5 Z"/></g>
<g><path style="opacity:0.949" fill="#8e8d98" d="M 102.5,51.5 C 216.5,52.1667 330.5,52.8333 444.5,53.5C 329.5,53.3333 214.5,53.5 99.5,54C 88.1693,56.8306 81.5026,63.9973 79.5,75.5C 79.5,145.167 79.5,214.833 79.5,284.5C 78.5046,296.989 78.1713,309.656 78.5,322.5C 77.3343,240.001 77.1677,157.334 78,74.5C 81.1735,61.4926 89.3402,53.8259 102.5,51.5 Z"/></g>
<g><path style="opacity:1" fill="#c3c2c9" d="M 468.5,72.5 C 469.404,73.209 469.737,74.209 469.5,75.5C 468.833,104.5 468.167,133.5 467.5,162.5C 466.5,162.5 465.5,162.5 464.5,162.5C 465.209,161.596 466.209,161.263 467.5,161.5C 467.5,132.833 467.5,104.167 467.5,75.5C 467.5,75.1667 467.5,74.8333 467.5,74.5C 468.338,74.1583 468.672,73.4916 468.5,72.5 Z"/></g>
<g><path style="opacity:0.963" fill="#4d4c53" d="M 469.5,75.5 C 469.5,105.5 469.5,135.5 469.5,165.5C 468.599,164.71 467.932,163.71 467.5,162.5C 468.167,133.5 468.833,104.5 469.5,75.5 Z"/></g>
<g><path style="opacity:1" fill="#7169d7" d="M 392.5,95.5 C 408.661,94.3385 424.995,94.1718 441.5,95C 442.056,95.3826 442.389,95.8826 442.5,96.5C 427.202,95.5474 411.869,95.214 396.5,95.5C 395.167,95.5 393.833,95.5 392.5,95.5 Z"/></g>
<g><path style="opacity:1" fill="#6c62fb" d="M 396.5,95.5 C 411.869,95.214 427.202,95.5474 442.5,96.5C 443.833,99.8333 443.833,103.167 442.5,106.5C 425.833,106.5 409.167,106.5 392.5,106.5C 392.5,103.167 392.5,99.8333 392.5,96.5C 394.099,96.7678 395.432,96.4345 396.5,95.5 Z"/></g>
<g><path style="opacity:1" fill="#e6e6e6" d="M 111.5,97.5 C 122.838,97.3335 134.172,97.5001 145.5,98C 146.78,100.132 146.78,102.298 145.5,104.5C 134.167,105.833 122.833,105.833 111.5,104.5C 110.178,102.135 110.178,99.8021 111.5,97.5 Z"/></g>
<g><path style="opacity:1" fill="#e6e6e6" d="M 286.5,97.5 C 297.838,97.3335 309.172,97.5001 320.5,98C 321.78,100.132 321.78,102.298 320.5,104.5C 309.167,105.833 297.833,105.833 286.5,104.5C 285.178,102.135 285.178,99.8021 286.5,97.5 Z"/></g>
<g><path style="opacity:1" fill="#e6e6e6" d="M 341.5,97.5 C 352.853,97.1678 364.186,97.5012 375.5,98.5C 376.833,100.5 376.833,102.5 375.5,104.5C 364.167,105.833 352.833,105.833 341.5,104.5C 340.178,102.135 340.178,99.8021 341.5,97.5 Z"/></g>
<g><path style="opacity:1" fill="#786de8" d="M 392.5,95.5 C 393.833,95.5 395.167,95.5 396.5,95.5C 395.432,96.4345 394.099,96.7678 392.5,96.5C 392.5,99.8333 392.5,103.167 392.5,106.5C 409.167,106.5 425.833,106.5 442.5,106.5C 442.389,107.117 442.056,107.617 441.5,108C 425.167,108.667 408.833,108.667 392.5,108C 390.544,104.405 390.044,100.572 391,96.5C 391.383,95.944 391.883,95.6107 392.5,95.5 Z"/></g>
<g><path style="opacity:1" fill="#e6e6e6" d="M 155.5,160.5 C 234.169,160.167 312.836,160.5 391.5,161.5C 392.78,163.702 392.78,165.868 391.5,168C 312.833,168.667 234.167,168.667 155.5,168C 154.351,165.541 154.351,163.041 155.5,160.5 Z"/></g>
<g><path style="opacity:1" fill="#322f40" d="M 464.5,162.5 C 465.5,162.5 466.5,162.5 467.5,162.5C 467.932,163.71 468.599,164.71 469.5,165.5C 470.43,172.777 470.764,180.11 470.5,187.5C 468.621,186.659 466.621,186.325 464.5,186.5C 464.5,184.833 464.5,183.167 464.5,181.5C 465.921,178.492 465.754,175.492 464,172.5C 463.503,174.81 463.337,177.143 463.5,179.5C 463.262,181.404 462.262,182.738 460.5,183.5C 459.833,181.5 459.167,179.5 458.5,177.5C 456.369,176.686 454.036,176.186 451.5,176C 449.65,173.982 447.65,172.149 445.5,170.5C 443.929,171.309 442.262,171.643 440.5,171.5C 440.523,169.073 441.023,166.74 442,164.5C 446.514,160.591 451.681,159.591 457.5,161.5C 459.562,164.727 461.895,165.06 464.5,162.5 Z"/></g>
<g><path style="opacity:1" fill="#91909a" d="M 464.5,181.5 C 464.672,180.508 464.338,179.842 463.5,179.5C 463.337,177.143 463.503,174.81 464,172.5C 465.754,175.492 465.921,178.492 464.5,181.5 Z"/></g>
<g><path style="opacity:1" fill="#f6b6b8" d="M 458.5,177.5 C 457.99,180.388 458.656,182.721 460.5,184.5C 460.5,184.833 460.5,185.167 460.5,185.5C 457.176,186.827 453.843,188.161 450.5,189.5C 450.657,188.127 450.49,186.793 450,185.5C 444.139,182.503 440.972,177.836 440.5,171.5C 442.262,171.643 443.929,171.309 445.5,170.5C 447.65,172.149 449.65,173.982 451.5,176C 454.036,176.186 456.369,176.686 458.5,177.5 Z"/></g>
<g><path style="opacity:1" fill="#e6e6e6" d="M 180.5,180.5 C 242.501,180.333 304.501,180.5 366.5,181C 367.435,183.381 367.768,185.881 367.5,188.5C 305.163,188.833 242.83,188.5 180.5,187.5C 179.178,185.135 179.178,182.802 180.5,180.5 Z"/></g>
<g><path style="opacity:1" fill="#8f6b76" d="M 458.5,177.5 C 459.167,179.5 459.833,181.5 460.5,183.5C 460.5,183.833 460.5,184.167 460.5,184.5C 458.656,182.721 457.99,180.388 458.5,177.5 Z"/></g>
<g><path style="opacity:1" fill="#e7e4ee" d="M 463.5,179.5 C 464.338,179.842 464.672,180.508 464.5,181.5C 464.5,183.167 464.5,184.833 464.5,186.5C 463.833,186.5 463.5,186.833 463.5,187.5C 462.778,186.449 461.778,185.782 460.5,185.5C 460.5,185.167 460.5,184.833 460.5,184.5C 460.5,184.167 460.5,183.833 460.5,183.5C 462.262,182.738 463.262,181.404 463.5,179.5 Z"/></g>
<g><path style="opacity:1" fill="#6661ab" d="M 463.5,187.5 C 463.5,186.833 463.833,186.5 464.5,186.5C 466.621,186.325 468.621,186.659 470.5,187.5C 470.833,188.833 471.167,190.167 471.5,191.5C 470.1,190.9 469.1,189.9 468.5,188.5C 467.081,187.549 465.415,187.216 463.5,187.5 Z"/></g>
<g><path style="opacity:1" fill="#6c63fb" d="M 468.5,188.5 C 469.1,189.9 470.1,190.9 471.5,191.5C 471.5,191.833 471.5,192.167 471.5,192.5C 471.335,196.579 472.669,199.912 475.5,202.5C 478.275,209.267 480.275,216.267 481.5,223.5C 481.715,225.179 481.048,226.179 479.5,226.5C 477.43,226.449 475.597,227.115 474,228.5C 464.912,226.69 455.745,226.19 446.5,227C 445.663,228.011 445.33,229.178 445.5,230.5C 443.167,230.5 440.833,230.5 438.5,230.5C 439.998,226.017 440.998,221.351 441.5,216.5C 441.5,216.167 441.5,215.833 441.5,215.5C 442.117,215.389 442.617,215.056 443,214.5C 443.498,211.183 443.665,207.85 443.5,204.5C 444.326,201.515 445.659,198.849 447.5,196.5C 450.084,195.952 451.084,194.285 450.5,191.5C 451.82,190.058 453.486,189.392 455.5,189.5C 455.974,193.157 457.307,193.324 459.5,190C 459.167,189.667 458.833,189.333 458.5,189C 461.817,188.502 465.15,188.335 468.5,188.5 Z"/></g>
<g><path style="opacity:1" fill="#7969ea" d="M 460.5,185.5 C 461.778,185.782 462.778,186.449 463.5,187.5C 465.415,187.216 467.081,187.549 468.5,188.5C 465.15,188.335 461.817,188.502 458.5,189C 458.833,189.333 459.167,189.667 459.5,190C 457.307,193.324 455.974,193.157 455.5,189.5C 453.486,189.392 451.82,190.058 450.5,191.5C 450.5,190.833 450.5,190.167 450.5,189.5C 453.843,188.161 457.176,186.827 460.5,185.5 Z"/></g>
<g><path style="opacity:1" fill="#7e78e4" d="M 450.5,191.5 C 451.084,194.285 450.084,195.952 447.5,196.5C 447.75,194.326 448.75,192.659 450.5,191.5 Z"/></g>
<g><path style="opacity:1" fill="#7e74e3" d="M 471.5,192.5 C 473.4,195.518 474.733,198.851 475.5,202.5C 472.669,199.912 471.335,196.579 471.5,192.5 Z"/></g>
<g><path style="opacity:1" fill="#e5e5e5" d="M 206.5,201.5 C 251.168,201.333 295.835,201.5 340.5,202C 342.032,204.33 341.698,206.33 339.5,208C 295.5,208.667 251.5,208.667 207.5,208C 205.176,206.175 204.843,204.009 206.5,201.5 Z"/></g>
<g><path style="opacity:1" fill="#9993e8" d="M 443.5,204.5 C 443.665,207.85 443.498,211.183 443,214.5C 442.617,215.056 442.117,215.389 441.5,215.5C 442.026,211.688 442.693,208.021 443.5,204.5 Z"/></g>
<g><path style="opacity:1" fill="#7b68e1" d="M 441.5,216.5 C 440.998,221.351 439.998,226.017 438.5,230.5C 440.833,230.5 443.167,230.5 445.5,230.5C 445.33,229.178 445.663,228.011 446.5,227C 455.745,226.19 464.912,226.69 474,228.5C 475.597,227.115 477.43,226.449 479.5,226.5C 477.977,229.364 475.643,231.031 472.5,231.5C 472.179,229.952 471.179,229.285 469.5,229.5C 468.833,229.5 468.167,229.5 467.5,229.5C 460.687,228.509 453.687,228.175 446.5,228.5C 446.5,229.5 446.5,230.5 446.5,231.5C 443.5,231.5 440.5,231.5 437.5,231.5C 437.5,230.167 437.5,228.833 437.5,227.5C 438.462,223.605 439.796,219.939 441.5,216.5 Z"/></g>
<g><path style="opacity:1" fill="#947bc6" d="M 437.5,227.5 C 437.5,228.833 437.5,230.167 437.5,231.5C 440.5,231.5 443.5,231.5 446.5,231.5C 445.036,232.16 443.369,232.493 441.5,232.5C 439.36,232.444 437.694,231.777 436.5,230.5C 436.263,229.209 436.596,228.209 437.5,227.5 Z"/></g>
<g><path style="opacity:1" fill="#d9abdb" d="M 481.5,223.5 C 482.833,224.833 482.833,226.167 481.5,227.5C 480.167,228.167 479.167,229.167 478.5,230.5C 477.221,231.968 475.554,232.635 473.5,232.5C 472.833,232.5 472.5,232.167 472.5,231.5C 475.643,231.031 477.977,229.364 479.5,226.5C 481.048,226.179 481.715,225.179 481.5,223.5 Z"/></g>
<g><path style="opacity:1" fill="#e2b3e1" d="M 467.5,229.5 C 466.833,229.5 466.167,229.5 465.5,229.5C 459.824,229.334 454.157,229.501 448.5,230C 447.915,231.302 447.249,232.469 446.5,233.5C 445.833,233.5 445.167,233.5 444.5,233.5C 441.5,233.5 438.5,233.5 435.5,233.5C 435.263,232.209 435.596,231.209 436.5,230.5C 437.694,231.777 439.36,232.444 441.5,232.5C 443.369,232.493 445.036,232.16 446.5,231.5C 446.5,230.5 446.5,229.5 446.5,228.5C 453.687,228.175 460.687,228.509 467.5,229.5 Z"/></g>
<g><path style="opacity:1" fill="#edb0bb" d="M 465.5,229.5 C 459.427,232.278 453.093,234.612 446.5,236.5C 446.5,235.5 446.5,234.5 446.5,233.5C 447.249,232.469 447.915,231.302 448.5,230C 454.157,229.501 459.824,229.334 465.5,229.5 Z"/></g>
<g><path style="opacity:1" fill="#323041" d="M 465.5,229.5 C 466.167,229.5 466.833,229.5 467.5,229.5C 468.167,229.5 468.833,229.5 469.5,229.5C 473.408,238.189 473.408,246.856 469.5,255.5C 472.189,266.112 474.689,276.779 477,287.5C 481.512,295.194 486.012,302.861 490.5,310.5C 490.427,312.027 491.094,313.027 492.5,313.5C 492.427,315.027 493.094,316.027 494.5,316.5C 494.719,317.675 494.386,318.675 493.5,319.5C 490.78,320.86 488.114,322.193 485.5,323.5C 485.384,321.425 484.884,319.425 484,317.5C 483.086,318.654 482.253,318.487 481.5,317C 481.833,316.667 482.167,316.333 482.5,316C 480.321,315.558 479.655,314.558 480.5,313C 479.874,312.25 479.374,311.416 479,310.5C 478.014,311.171 476.847,311.171 475.5,310.5C 473.887,307.714 472.054,305.047 470,302.5C 470.421,309.232 470.254,315.898 469.5,322.5C 468.833,322.5 468.5,322.167 468.5,321.5C 468.666,314.159 468.5,306.826 468,299.5C 465.667,296.167 463.333,292.833 461,289.5C 459.719,284.987 458.053,280.654 456,276.5C 446.377,292.745 437.544,309.412 429.5,326.5C 426.208,326.353 423.208,325.353 420.5,323.5C 427.047,298.36 435.881,274.026 447,250.5C 447.461,245.816 447.295,241.149 446.5,236.5C 453.093,234.612 459.427,232.278 465.5,229.5 Z"/></g>
<g><path style="opacity:1" fill="#938cd5" d="M 337.5,251.5 C 337.5,251.167 337.5,250.833 337.5,250.5C 340.12,246.998 340.12,243.498 337.5,240C 321.156,239.167 304.823,239.334 288.5,240.5C 287.438,243.103 287.272,245.77 288,248.5C 288.708,249.381 289.542,250.047 290.5,250.5C 305.5,251.167 320.5,251.833 335.5,252.5C 319.83,252.667 304.163,252.5 288.5,252C 286.941,250.004 286.274,247.671 286.5,245C 286.274,242.329 286.941,239.996 288.5,238C 304.833,237.333 321.167,237.333 337.5,238C 339.954,239.818 340.954,242.318 340.5,245.5C 340.333,247.167 340.167,248.833 340,250.5C 339.329,251.252 338.496,251.586 337.5,251.5 Z"/></g>
<g><path style="opacity:1" fill="#fcb6b5" d="M 478.5,230.5 C 480.474,240.111 481.141,250.111 480.5,260.5C 479.5,260.5 478.5,260.5 477.5,260.5C 476.876,253.518 476.376,246.518 476,239.5C 475.066,238.142 474.232,236.808 473.5,235.5C 473.5,234.5 473.5,233.5 473.5,232.5C 475.554,232.635 477.221,231.968 478.5,230.5 Z"/></g>
<g><path style="opacity:1" fill="#867beb" d="M 273.5,250.5 C 274.029,246.649 273.362,243.149 271.5,240C 255.122,239.196 238.789,239.363 222.5,240.5C 222.953,239.542 223.619,238.708 224.5,238C 240.167,237.333 255.833,237.333 271.5,238C 275.943,241.602 276.609,245.769 273.5,250.5 Z"/></g>
<g><path style="opacity:1" fill="#fdfcfd" d="M 337.5,250.5 C 321.833,250.5 306.167,250.5 290.5,250.5C 289.542,250.047 288.708,249.381 288,248.5C 287.272,245.77 287.438,243.103 288.5,240.5C 304.823,239.334 321.156,239.167 337.5,240C 340.12,243.498 340.12,246.998 337.5,250.5 Z"/></g>
<g><path style="opacity:1" fill="#6c62fc" d="M 273.5,250.5 C 258.163,250.667 242.83,250.5 227.5,250C 228.624,249.751 229.624,249.251 230.5,248.5C 228.149,248.02 225.815,247.686 223.5,247.5C 222.526,245.257 222.192,242.924 222.5,240.5C 238.789,239.363 255.122,239.196 271.5,240C 273.362,243.149 274.029,246.649 273.5,250.5 Z"/></g>
<g><path style="opacity:1" fill="#f8bcbd" d="M 435.5,233.5 C 438.5,233.5 441.5,233.5 444.5,233.5C 438.979,241.215 433.979,249.215 429.5,257.5C 427.951,261.17 425.451,262.17 422,260.5C 421.333,258.167 421.333,255.833 422,253.5C 427.266,247.286 431.766,240.619 435.5,233.5 Z"/></g>
<g><path style="opacity:1" fill="#8176e9" d="M 222.5,240.5 C 222.192,242.924 222.526,245.257 223.5,247.5C 225.815,247.686 228.149,248.02 230.5,248.5C 229.624,249.251 228.624,249.751 227.5,250C 242.83,250.5 258.163,250.667 273.5,250.5C 273.389,251.117 273.056,251.617 272.5,252C 256.5,252.667 240.5,252.667 224.5,252C 221.396,248.547 220.73,244.713 222.5,240.5 Z"/></g>
<g><path style="opacity:1" fill="#c6c1eb" d="M 290.5,250.5 C 306.167,250.5 321.833,250.5 337.5,250.5C 337.5,250.833 337.5,251.167 337.5,251.5C 337.158,252.338 336.492,252.672 335.5,252.5C 320.5,251.833 305.5,251.167 290.5,250.5 Z"/></g>
<g><path style="opacity:1" fill="#f5c2c3" d="M 481.5,227.5 C 482.003,238.527 482.503,249.527 483,260.5C 478.268,264.836 475.434,263.67 474.5,257C 475.122,255.431 475.456,253.764 475.5,252C 474.873,246.485 474.206,240.985 473.5,235.5C 474.232,236.808 475.066,238.142 476,239.5C 476.376,246.518 476.876,253.518 477.5,260.5C 478.5,260.5 479.5,260.5 480.5,260.5C 481.141,250.111 480.474,240.111 478.5,230.5C 479.167,229.167 480.167,228.167 481.5,227.5 Z"/></g>
<g><path style="opacity:0.999" fill="#fbfbfb" d="M 468.5,321.5 C 466.673,330.994 461.673,338.328 453.5,343.5C 442.774,345.683 432.108,346.016 421.5,344.5C 422.212,342.072 423.212,339.739 424.5,337.5C 424.376,336.893 424.043,336.56 423.5,336.5C 424.317,333.381 425.317,330.381 426.5,327.5C 427.791,327.737 428.791,327.404 429.5,326.5C 437.544,309.412 446.377,292.745 456,276.5C 458.053,280.654 459.719,284.987 461,289.5C 463.333,292.833 465.667,296.167 468,299.5C 468.5,306.826 468.666,314.159 468.5,321.5 Z"/></g>
<g><path style="opacity:1" fill="#e7e7e7" d="M 201.5,289.5 C 249.5,289.5 297.5,289.5 345.5,289.5C 345.5,291.167 345.5,292.833 345.5,294.5C 297.832,294.667 250.166,294.5 202.5,294C 201.62,292.644 201.286,291.144 201.5,289.5 Z"/></g>
<g><path style="opacity:1" fill="#64636e" d="M 475.5,310.5 C 476.847,311.171 478.014,311.171 479,310.5C 479.374,311.416 479.874,312.25 480.5,313C 479.655,314.558 480.321,315.558 482.5,316C 482.167,316.333 481.833,316.667 481.5,317C 482.253,318.487 483.086,318.654 484,317.5C 484.884,319.425 485.384,321.425 485.5,323.5C 481.936,319.386 478.603,315.052 475.5,310.5 Z"/></g>
<g><path style="opacity:0.62" fill="#898891" d="M 490.5,310.5 C 491.906,310.973 492.573,311.973 492.5,313.5C 491.094,313.027 490.427,312.027 490.5,310.5 Z"/></g>
<g><path style="opacity:0.502" fill="#a29ba8" d="M 492.5,313.5 C 493.906,313.973 494.573,314.973 494.5,316.5C 493.094,316.027 492.427,315.027 492.5,313.5 Z"/></g>
<g><path style="opacity:1" fill="#e7b5ba" d="M 494.5,316.5 C 496.426,320.097 499.093,323.097 502.5,325.5C 501.504,325.586 500.671,325.252 500,324.5C 497.485,329.621 493.318,331.954 487.5,331.5C 488.328,328.615 487.661,325.949 485.5,323.5C 488.114,322.193 490.78,320.86 493.5,319.5C 494.386,318.675 494.719,317.675 494.5,316.5 Z"/></g>
<g><path style="opacity:1" fill="#f3b7ba" d="M 420.5,323.5 C 423.208,325.353 426.208,326.353 429.5,326.5C 428.791,327.404 427.791,327.737 426.5,327.5C 425.317,330.381 424.317,333.381 423.5,336.5C 419.241,336.898 417.408,334.898 418,330.5C 416.698,329.915 415.531,329.249 414.5,328.5C 417.089,327.581 419.089,325.914 420.5,323.5 Z"/></g>
<g><path style="opacity:1" fill="#747381" d="M 502.5,325.5 C 507.12,326.75 508.453,329.417 506.5,333.5C 506.657,332.127 506.49,330.793 506,329.5C 505.259,328.359 504.425,328.359 503.5,329.5C 502.571,328.311 502.238,326.978 502.5,325.5 Z"/></g>
<g><path style="opacity:1" fill="#363344" d="M 414.5,328.5 C 415.531,329.249 416.698,329.915 418,330.5C 417.408,334.898 419.241,336.898 423.5,336.5C 424.043,336.56 424.376,336.893 424.5,337.5C 423.212,339.739 422.212,342.072 421.5,344.5C 420.849,345.091 420.182,345.757 419.5,346.5C 418.378,345.37 417.044,344.703 415.5,344.5C 407.102,342.311 401.102,337.311 397.5,329.5C 397.608,328.558 397.941,327.725 398.5,327C 403.889,326.99 409.223,327.49 414.5,328.5 Z"/></g>
<g><path style="opacity:1" fill="#363444" d="M 502.5,325.5 C 502.238,326.978 502.571,328.311 503.5,329.5C 504.425,328.359 505.259,328.359 506,329.5C 506.49,330.793 506.657,332.127 506.5,333.5C 503.167,337.167 499.833,340.833 496.5,344.5C 496.167,344.5 495.833,344.5 495.5,344.5C 493.161,345.634 490.827,346.634 488.5,347.5C 486.389,348.742 484.389,348.742 482.5,347.5C 481.833,346.833 481.167,346.167 480.5,345.5C 480.5,344.167 480.5,342.833 480.5,341.5C 482.117,340.962 483.784,340.629 485.5,340.5C 485.5,339.5 485.5,338.5 485.5,337.5C 485.5,337.167 485.5,336.833 485.5,336.5C 487.213,335.365 487.88,333.698 487.5,331.5C 493.318,331.954 497.485,329.621 500,324.5C 500.671,325.252 501.504,325.586 502.5,325.5 Z"/></g>
<g><path style="opacity:1" fill="#403d54" d="M 79.5,284.5 C 80.0804,288.142 80.5804,291.809 81,295.5C 90.1028,325.114 109.936,341.781 140.5,345.5C 129.012,346.495 117.345,346.828 105.5,346.5C 94.7835,346.389 86.6168,341.723 81,332.5C 79.2725,329.382 78.4392,326.049 78.5,322.5C 78.1713,309.656 78.5046,296.989 79.5,284.5 Z"/></g>
<g><path style="opacity:0.878" fill="#938f9c" d="M 487.5,331.5 C 487.88,333.698 487.213,335.365 485.5,336.5C 485.796,334.597 486.463,332.93 487.5,331.5 Z"/></g>
<g><path style="opacity:0.631" fill="#88878f" d="M 468.5,321.5 C 468.5,322.167 468.833,322.5 469.5,322.5C 468.352,332.142 463.685,339.475 455.5,344.5C 454.833,344.5 454.5,344.833 454.5,345.5C 452.302,345.591 451.969,344.925 453.5,343.5C 461.673,338.328 466.673,330.994 468.5,321.5 Z"/></g>
<g><path style="opacity:0.722" fill="#8c8c94" d="M 485.5,337.5 C 485.5,338.5 485.5,339.5 485.5,340.5C 483.784,340.629 482.117,340.962 480.5,341.5C 481.945,339.937 483.611,338.604 485.5,337.5 Z"/></g>
<g><path style="opacity:0.017" fill="#fefffe" d="M 480.5,341.5 C 480.5,342.833 480.5,344.167 480.5,345.5C 472.167,345.5 463.833,345.5 455.5,345.5C 455.5,345.167 455.5,344.833 455.5,344.5C 463.5,344.5 471.5,344.5 479.5,344.5C 479.263,343.209 479.596,342.209 480.5,341.5 Z"/></g>
<g><path style="opacity:0.906" fill="#898892" d="M 496.5,344.5 C 512.675,344.17 528.675,344.504 544.5,345.5C 527.597,346.824 511.263,346.824 495.5,345.5C 496.167,345.5 496.5,345.167 496.5,344.5 Z"/></g>
<g><path style="opacity:0.668" fill="#817f8a" d="M 140.5,345.5 C 221.5,345.5 302.5,345.5 383.5,345.5C 383.5,346.167 383.5,346.833 383.5,347.5C 290.665,347.833 197.999,347.499 105.5,346.5C 117.345,346.828 129.012,346.495 140.5,345.5 Z"/></g>
<g><path style="opacity:0.844" fill="#696677" d="M 453.5,343.5 C 451.969,344.925 452.302,345.591 454.5,345.5C 454.833,345.5 455.167,345.5 455.5,345.5C 463.833,345.5 472.167,345.5 480.5,345.5C 481.167,346.167 481.833,346.833 482.5,347.5C 449.325,348.085 416.325,348.085 383.5,347.5C 383.5,346.833 383.5,346.167 383.5,345.5C 394.346,345.828 405.013,345.494 415.5,344.5C 417.044,344.703 418.378,345.37 419.5,346.5C 420.182,345.757 420.849,345.091 421.5,344.5C 432.108,346.016 442.774,345.683 453.5,343.5 Z"/></g>
<g><path style="opacity:0.663" fill="#84818f" d="M 495.5,344.5 C 495.5,344.833 495.5,345.167 495.5,345.5C 511.263,346.824 527.597,346.824 544.5,345.5C 545.043,345.56 545.376,345.893 545.5,346.5C 526.512,347.5 507.512,347.833 488.5,347.5C 490.827,346.634 493.161,345.634 495.5,344.5 Z"/></g>
</svg>
