<?xml version="1.0" encoding="UTF-8"?>
<!DOCTYPE svg PUBLIC "-//W3C//DTD SVG 1.1//EN" "http://www.w3.org/Graphics/SVG/1.1/DTD/svg11.dtd">
<svg xmlns="http://www.w3.org/2000/svg" version="1.1" width="400px" height="380px" style="shape-rendering:geometricPrecision; text-rendering:geometricPrecision; image-rendering:optimizeQuality; fill-rule:evenodd; clip-rule:evenodd"
    xmlns:xlink="http://www.w3.org/1999/xlink">
    <g>
        <path style="opacity:1" fill="#fefefe" d="M -0.5,-0.5 C 139.5,-0.5 279.5,-0.5 419.5,-0.5C 419.5,132.833 419.5,266.167 419.5,399.5C 279.5,399.5 139.5,399.5 -0.5,399.5C -0.5,266.167 -0.5,132.833 -0.5,-0.5 Z"/>
    </g>
    <g>
        <path style="opacity:1" fill="#ac79bf" d="M 223.5,70.5 C 215.164,69.2327 206.83,69.2327 198.5,70.5C 198.5,70.1667 198.5,69.8333 198.5,69.5C 207.048,67.9125 215.382,68.2459 223.5,70.5 Z"/>
    </g>
    <g>
        <path style="opacity:1" fill="#8060bf" d="M 223.5,70.5 C 225.435,71.1495 227.435,71.4828 229.5,71.5C 230.035,73.4456 231.368,74.4456 233.5,74.5C 237.928,76.5927 240.928,79.926 242.5,84.5C 243.991,97.5492 243.657,110.549 241.5,123.5C 241.007,125.806 240.674,128.139 240.5,130.5C 239.343,133.273 238.676,136.273 238.5,139.5C 237.778,139.918 237.278,140.584 237,141.5C 236.088,146.464 235.588,151.464 235.5,156.5C 235.263,157.791 235.596,158.791 236.5,159.5C 236.435,159.938 236.601,160.272 237,160.5C 250.39,146.819 265.057,133.819 281,121.5C 281.333,121.833 281.667,122.167 282,122.5C 283.615,121.614 285.115,120.614 286.5,119.5C 289.112,118.629 291.779,117.963 294.5,117.5C 302.414,115.884 309.747,117.217 316.5,121.5C 317.872,122.512 319.205,123.512 320.5,124.5C 320.833,125.5 321.5,126.167 322.5,126.5C 326.255,131.003 329.255,136.003 331.5,141.5C 333.672,149.413 334.006,157.413 332.5,165.5C 332.167,165.5 331.833,165.5 331.5,165.5C 330.11,166.899 329.11,168.566 328.5,170.5C 326.261,173.694 323.594,176.361 320.5,178.5C 318.152,178.592 316.486,179.592 315.5,181.5C 312.515,182.326 309.849,183.659 307.5,185.5C 304.759,185.707 302.426,186.707 300.5,188.5C 299.391,188.557 298.391,188.89 297.5,189.5C 294.603,190.129 291.936,191.129 289.5,192.5C 285.063,193.654 280.396,195.32 275.5,197.5C 272.843,197.935 270.509,198.935 268.5,200.5C 265.843,200.935 263.509,201.935 261.5,203.5C 260.325,203.281 259.325,203.614 258.5,204.5C 258.624,205.107 258.957,205.44 259.5,205.5C 261.78,207.223 264.447,207.889 267.5,207.5C 269.861,207.674 272.194,208.007 274.5,208.5C 274.611,209.117 274.944,209.617 275.5,210C 278.168,210.567 280.834,211.067 283.5,211.5C 285.565,211.517 287.565,211.85 289.5,212.5C 291.395,214.241 293.728,215.241 296.5,215.5C 299.5,216.167 302.5,216.833 305.5,217.5C 306.183,219.176 307.517,219.843 309.5,219.5C 310.514,220.674 311.847,221.34 313.5,221.5C 314.486,223.408 316.152,224.408 318.5,224.5C 319.167,224.833 319.833,225.167 320.5,225.5C 320.414,226.496 320.748,227.329 321.5,228C 323.734,229.75 326.068,231.25 328.5,232.5C 329.512,233.872 330.512,235.205 331.5,236.5C 334.068,244.805 334.068,253.139 331.5,261.5C 327.651,269.846 322.317,277.179 315.5,283.5C 313.181,283.992 311.181,284.992 309.5,286.5C 308.508,286.328 307.842,286.662 307.5,287.5C 303.167,287.5 298.833,287.5 294.5,287.5C 281.588,282.591 269.921,275.591 259.5,266.5C 258.415,264.413 256.749,263.08 254.5,262.5C 249.068,257.65 243.735,252.65 238.5,247.5C 238.189,246.522 237.522,245.855 236.5,245.5C 235.548,247.045 235.215,248.712 235.5,250.5C 235.671,255.196 236.171,259.863 237,264.5C 237.278,265.416 237.778,266.082 238.5,266.5C 238.802,269.373 239.469,272.039 240.5,274.5C 240.325,276.621 240.659,278.621 241.5,280.5C 243.949,293.879 243.949,307.213 241.5,320.5C 239.564,323.939 237.064,326.939 234,329.5C 223.895,333.601 213.395,335.267 202.5,334.5C 200.22,332.777 197.553,332.111 194.5,332.5C 188.83,331.49 184.497,328.49 181.5,323.5C 181.241,320.728 180.241,318.395 178.5,316.5C 177.27,307.181 177.27,297.848 178.5,288.5C 179.222,288.082 179.722,287.416 180,286.5C 180.642,282.509 181.142,278.509 181.5,274.5C 181.704,271.482 182.037,268.482 182.5,265.5C 183.117,265.389 183.617,265.056 184,264.5C 184.829,259.863 185.329,255.196 185.5,250.5C 185.785,248.712 185.452,247.045 184.5,245.5C 183.478,245.855 182.811,246.522 182.5,247.5C 177.268,251.944 172.268,256.61 167.5,261.5C 164.911,262.419 162.911,264.086 161.5,266.5C 156.431,269.695 151.765,273.362 147.5,277.5C 144.188,277.149 141.855,278.482 140.5,281.5C 135.796,283.522 131.129,285.522 126.5,287.5C 122.5,287.5 118.5,287.5 114.5,287.5C 112.65,285.428 110.317,284.095 107.5,283.5C 102.521,280.521 98.5213,276.521 95.5,271.5C 95.2503,269.326 94.2503,267.659 92.5,266.5C 91.1667,264.167 89.8333,261.833 88.5,259.5C 87.2673,252.487 87.2673,245.487 88.5,238.5C 90.6935,234.953 93.3602,231.62 96.5,228.5C 98.632,228.446 99.9653,227.446 100.5,225.5C 103.935,222.375 107.602,220.375 111.5,219.5C 115.938,219.287 119.938,217.953 123.5,215.5C 124.779,214.032 126.446,213.365 128.5,213.5C 132.431,212.611 136.098,211.278 139.5,209.5C 140.791,209.737 141.791,209.404 142.5,208.5C 145.152,208.59 147.485,207.924 149.5,206.5C 150.791,206.737 151.791,206.404 152.5,205.5C 155.542,205.267 158.208,204.267 160.5,202.5C 161.043,202.44 161.376,202.107 161.5,201.5C 159.861,200.678 158.195,200.011 156.5,199.5C 149.22,196.895 141.887,194.395 134.5,192C 132.527,191.505 130.527,191.338 128.5,191.5C 126.064,190.129 123.397,189.129 120.5,188.5C 118.574,186.707 116.241,185.707 113.5,185.5C 113.5,185.167 113.5,184.833 113.5,184.5C 111.75,183.13 109.75,182.13 107.5,181.5C 106.833,181.5 106.167,181.5 105.5,181.5C 100.833,177.5 96.1667,173.5 91.5,169.5C 90.8333,168.5 90.1667,167.5 89.5,166.5C 88.6295,163.888 87.9628,161.221 87.5,158.5C 87.5,156.833 87.5,155.167 87.5,153.5C 87.8478,149.443 88.5145,145.443 89.5,141.5C 91.246,137.673 93.246,134.007 95.5,130.5C 97.2624,129.738 98.2624,128.404 98.5,126.5C 99.9063,126.027 100.573,125.027 100.5,123.5C 103.713,120.726 107.38,118.726 111.5,117.5C 116.825,116.239 122.158,116.239 127.5,117.5C 129.564,117.687 131.564,118.187 133.5,119C 144.908,125.275 155.242,132.775 164.5,141.5C 165.833,143.167 167.167,144.833 168.5,146.5C 170.853,148.523 173.186,150.523 175.5,152.5C 177.833,154.5 180.167,156.5 182.5,158.5C 183.851,162.23 184.851,162.23 185.5,158.5C 185.14,155.298 184.474,152.298 183.5,149.5C 183.5,148.5 183.5,147.5 183.5,146.5C 183.237,141.23 182.237,136.23 180.5,131.5C 180.599,128.763 180.265,126.096 179.5,123.5C 177.381,110.544 177.047,97.5441 178.5,84.5C 180.774,79.2263 184.44,75.2263 189.5,72.5C 192.461,71.6766 195.461,71.01 198.5,70.5C 206.83,69.2327 215.164,69.2327 223.5,70.5 Z"/>
    </g>
    <g>
        <path style="opacity:1" fill="#cec6e8" d="M 198.5,69.5 C 198.5,69.8333 198.5,70.1667 198.5,70.5C 195.461,71.01 192.461,71.6766 189.5,72.5C 192.008,70.446 195.008,69.446 198.5,69.5 Z"/>
    </g>
    <g>
        <path style="opacity:1" fill="#c193cd" d="M 229.5,71.5 C 231.632,71.5544 232.965,72.5544 233.5,74.5C 231.368,74.4456 230.035,73.4456 229.5,71.5 Z"/>
    </g>
    <g>
        <path style="opacity:1" fill="#ccbadd" d="M 178.5,84.5 C 177.047,97.5441 177.381,110.544 179.5,123.5C 177.982,120.466 177.149,117.133 177,113.5C 176.333,105.167 176.333,96.8333 177,88.5C 177.21,86.9419 177.71,85.6085 178.5,84.5 Z"/>
    </g>
    <g>
        <path style="opacity:1" fill="#d0bede" d="M 241.5,123.5 C 243.657,110.549 243.991,97.5492 242.5,84.5C 243.417,84.4936 243.917,85.4936 244,87.5C 244.667,96.1667 244.667,104.833 244,113.5C 243.851,117.133 243.018,120.466 241.5,123.5 Z"/>
    </g>
    <g>
        <path style="opacity:1" fill="#b78acc" d="M 127.5,117.5 C 122.158,116.239 116.825,116.239 111.5,117.5C 111.62,116.414 112.287,115.747 113.5,115.5C 118.558,114.011 123.225,114.678 127.5,117.5 Z"/>
    </g>
    <g>
        <path style="opacity:1" fill="#cfb8da" d="M 297.5,115.5 C 296.5,116.167 295.5,116.833 294.5,117.5C 291.779,117.963 289.112,118.629 286.5,119.5C 289.626,117.01 293.292,115.677 297.5,115.5 Z"/>
    </g>
    <g>
        <path style="opacity:1" fill="#b284c7" d="M 297.5,115.5 C 302.215,115.506 306.882,116.006 311.5,117C 313.576,118.199 315.242,119.699 316.5,121.5C 309.747,117.217 302.414,115.884 294.5,117.5C 295.5,116.833 296.5,116.167 297.5,115.5 Z"/>
    </g>
    <g>
        <path style="opacity:1" fill="#cbabd8" d="M 100.5,123.5 C 100.573,125.027 99.9063,126.027 98.5,126.5C 98.427,124.973 99.0937,123.973 100.5,123.5 Z"/>
    </g>
    <g>
        <path style="opacity:1" fill="#d8b8e5" d="M 320.5,124.5 C 321.239,124.369 321.906,124.536 322.5,125C 323.738,125.69 323.738,126.19 322.5,126.5C 321.5,126.167 320.833,125.5 320.5,124.5 Z"/>
    </g>
    <g>
        <path style="opacity:1" fill="#bb9bca" d="M 98.5,126.5 C 98.2624,128.404 97.2624,129.738 95.5,130.5C 95.3723,128.871 96.3723,127.538 98.5,126.5 Z"/>
    </g>
    <g>
        <path style="opacity:1" fill="#d1bfe2" d="M 240.5,130.5 C 240.559,136.16 239.559,141.494 237.5,146.5C 237.674,144.139 238.007,141.806 238.5,139.5C 238.676,136.273 239.343,133.273 240.5,130.5 Z"/>
    </g>
    <g>
        <path style="opacity:1" fill="#d4c3e2" d="M 180.5,131.5 C 182.237,136.23 183.237,141.23 183.5,146.5C 181.625,141.794 180.625,136.794 180.5,131.5 Z"/>
    </g>
    <g>
        <path style="opacity:1" fill="#dcc4e3" d="M 170.5,146.5 C 169.833,146.5 169.167,146.5 168.5,146.5C 167.167,144.833 165.833,143.167 164.5,141.5C 166.819,142.091 168.819,143.758 170.5,146.5 Z"/>
    </g>
    <g>
        <path style="opacity:1" fill="#d6c2eb" d="M 89.5,141.5 C 88.5145,145.443 87.8478,149.443 87.5,153.5C 86.2225,149.254 86.8892,145.254 89.5,141.5 Z"/>
    </g>
    <g>
        <path style="opacity:1" fill="#cabcd9" d="M 331.5,141.5 C 332.117,141.611 332.617,141.944 333,142.5C 333.941,146.611 334.441,150.778 334.5,155C 334.696,158.805 334.03,162.305 332.5,165.5C 334.006,157.413 333.672,149.413 331.5,141.5 Z"/>
    </g>
    <g>
        <path style="opacity:1" fill="#c38fcb" d="M 168.5,146.5 C 169.167,146.5 169.833,146.5 170.5,146.5C 172.89,147.891 174.557,149.891 175.5,152.5C 173.186,150.523 170.853,148.523 168.5,146.5 Z"/>
    </g>
    <g>
        <path style="opacity:1" fill="#b37bbf" d="M 238.5,139.5 C 238.007,141.806 237.674,144.139 237.5,146.5C 237.5,147.833 237.5,149.167 237.5,150.5C 236.833,152.5 236.167,154.5 235.5,156.5C 235.588,151.464 236.088,146.464 237,141.5C 237.278,140.584 237.778,139.918 238.5,139.5 Z"/>
    </g>
    <g>
        <path style="opacity:1" fill="#d6c4e6" d="M 237.5,150.5 C 237.632,153.57 237.299,156.57 236.5,159.5C 235.596,158.791 235.263,157.791 235.5,156.5C 236.167,154.5 236.833,152.5 237.5,150.5 Z"/>
    </g>
    <g>
        <path style="opacity:1" fill="#caabd1" d="M 183.5,149.5 C 184.474,152.298 185.14,155.298 185.5,158.5C 184.851,162.23 183.851,162.23 182.5,158.5C 183.376,158.631 184.043,158.298 184.5,157.5C 183.607,154.916 183.274,152.249 183.5,149.5 Z"/>
    </g>
    <g>
        <path style="opacity:1" fill="#d6bfe1" d="M 87.5,158.5 C 87.9628,161.221 88.6295,163.888 89.5,166.5C 86.9484,164.2 86.2817,161.533 87.5,158.5 Z"/>
    </g>
    <g>
        <path style="opacity:1" fill="#bf94ca" d="M 331.5,165.5 C 331.741,168.034 330.741,169.7 328.5,170.5C 329.11,168.566 330.11,166.899 331.5,165.5 Z"/>
    </g>
    <g>
        <path style="opacity:1" fill="#c79fd6" d="M 91.5,169.5 C 96.1667,173.5 100.833,177.5 105.5,181.5C 102.484,180.657 99.8171,179.157 97.5,177C 95.6053,174.194 93.2719,171.86 90.5,170C 90.7284,169.601 91.0618,169.435 91.5,169.5 Z"/>
    </g>
    <g>
        <path style="opacity:1" fill="#dbc5e7" d="M 320.5,178.5 C 319.341,180.25 317.674,181.25 315.5,181.5C 316.486,179.592 318.152,178.592 320.5,178.5 Z"/>
    </g>
    <g>
        <path style="opacity:1" fill="#b892d0" d="M 107.5,181.5 C 109.75,182.13 111.75,183.13 113.5,184.5C 110.607,184.969 108.607,183.969 107.5,181.5 Z"/>
    </g>
    <g>
        <path style="opacity:1" fill="#dcc2e0" d="M 307.5,185.5 C 305.574,187.293 303.241,188.293 300.5,188.5C 302.426,186.707 304.759,185.707 307.5,185.5 Z"/>
    </g>
    <g>
        <path style="opacity:1" fill="#d5bbdd" d="M 113.5,185.5 C 116.241,185.707 118.574,186.707 120.5,188.5C 117.759,188.293 115.426,187.293 113.5,185.5 Z"/>
    </g>
    <g>
        <path style="opacity:1" fill="#d7c5e8" d="M 297.5,189.5 C 295.383,191.655 292.716,192.655 289.5,192.5C 291.936,191.129 294.603,190.129 297.5,189.5 Z"/>
    </g>
    <g>
        <path style="opacity:1" fill="#c6abd6" d="M 128.5,191.5 C 130.527,191.338 132.527,191.505 134.5,192C 141.887,194.395 149.22,196.895 156.5,199.5C 156.44,200.043 156.107,200.376 155.5,200.5C 146.23,197.942 137.23,194.942 128.5,191.5 Z"/>
    </g>
    <g>
        <path style="opacity:1" fill="#d9c6e7" d="M 275.5,197.5 C 273.68,199.448 271.346,200.448 268.5,200.5C 270.509,198.935 272.843,197.935 275.5,197.5 Z"/>
    </g>
    <g>
        <path style="opacity:1" fill="#c5a5cb" d="M 261.5,203.5 C 260.833,204.167 260.167,204.833 259.5,205.5C 258.957,205.44 258.624,205.107 258.5,204.5C 259.325,203.614 260.325,203.281 261.5,203.5 Z"/>
    </g>
    <g>
        <path style="opacity:1" fill="#ccbde0" d="M 160.5,202.5 C 158.208,204.267 155.542,205.267 152.5,205.5C 154.792,203.733 157.458,202.733 160.5,202.5 Z"/>
    </g>
    <g>
        <path style="opacity:1" fill="#b883bf" d="M 259.5,205.5 C 262.127,206.092 264.794,206.425 267.5,206.5C 267.5,206.833 267.5,207.167 267.5,207.5C 264.447,207.889 261.78,207.223 259.5,205.5 Z"/>
    </g>
    <g>
        <path style="opacity:1" fill="#decaec" d="M 267.5,207.5 C 267.5,207.167 267.5,206.833 267.5,206.5C 270.781,206.42 273.781,207.087 276.5,208.5C 275.833,208.5 275.167,208.5 274.5,208.5C 272.194,208.007 269.861,207.674 267.5,207.5 Z"/>
    </g>
    <g>
        <path style="opacity:1" fill="#d1b7dc" d="M 149.5,206.5 C 147.485,207.924 145.152,208.59 142.5,208.5C 144.515,207.076 146.848,206.41 149.5,206.5 Z"/>
    </g>
    <g>
        <path style="opacity:1" fill="#d5c1df" d="M 139.5,209.5 C 136.098,211.278 132.431,212.611 128.5,213.5C 131.653,211.115 135.32,209.782 139.5,209.5 Z"/>
    </g>
    <g>
        <path style="opacity:1" fill="#b586c5" d="M 274.5,208.5 C 275.167,208.5 275.833,208.5 276.5,208.5C 278.833,209.167 281.167,209.833 283.5,210.5C 283.5,210.833 283.5,211.167 283.5,211.5C 280.834,211.067 278.168,210.567 275.5,210C 274.944,209.617 274.611,209.117 274.5,208.5 Z"/>
    </g>
    <g>
        <path style="opacity:1" fill="#d6c4e6" d="M 283.5,211.5 C 283.5,211.167 283.5,210.833 283.5,210.5C 286.495,210.294 289.162,210.96 291.5,212.5C 290.833,212.5 290.167,212.5 289.5,212.5C 287.565,211.85 285.565,211.517 283.5,211.5 Z"/>
    </g>
    <g>
        <path style="opacity:1" fill="#b48bc7" d="M 289.5,212.5 C 290.167,212.5 290.833,212.5 291.5,212.5C 293.531,212.972 295.198,213.972 296.5,215.5C 293.728,215.241 291.395,214.241 289.5,212.5 Z"/>
    </g>
    <g>
        <path style="opacity:1" fill="#bb9bcf" d="M 123.5,215.5 C 119.938,217.953 115.938,219.287 111.5,219.5C 115.114,217.982 118.781,216.316 122.5,214.5C 123.107,214.624 123.44,214.957 123.5,215.5 Z"/>
    </g>
    <g>
        <path style="opacity:1" fill="#ceb1da" d="M 305.5,217.5 C 307.153,217.66 308.486,218.326 309.5,219.5C 307.517,219.843 306.183,219.176 305.5,217.5 Z"/>
    </g>
    <g>
        <path style="opacity:1" fill="#cda9d8" d="M 313.5,221.5 C 315.674,221.75 317.341,222.75 318.5,224.5C 316.152,224.408 314.486,223.408 313.5,221.5 Z"/>
    </g>
    <g>
        <path style="opacity:1" fill="#c6a6d5" d="M 100.5,225.5 C 99.9653,227.446 98.632,228.446 96.5,228.5C 97.2623,226.738 98.5956,225.738 100.5,225.5 Z"/>
    </g>
    <g>
        <path style="opacity:1" fill="#c29ed1" d="M 320.5,225.5 C 323.764,227.094 326.431,229.427 328.5,232.5C 326.068,231.25 323.734,229.75 321.5,228C 320.748,227.329 320.414,226.496 320.5,225.5 Z"/>
    </g>
    <g>
        <path style="opacity:1" fill="#d0bddb" d="M 331.5,236.5 C 332.966,237.347 333.8,238.68 334,240.5C 334.667,245.5 334.667,250.5 334,255.5C 333.76,257.852 332.927,259.852 331.5,261.5C 334.068,253.139 334.068,244.805 331.5,236.5 Z"/>
    </g>
    <g>
        <path style="opacity:1" fill="#c6abcf" d="M 185.5,250.5 C 184.833,252.5 184.167,254.5 183.5,256.5C 183.274,253.751 183.607,251.084 184.5,248.5C 184.043,247.702 183.376,247.369 182.5,247.5C 182.811,246.522 183.478,245.855 184.5,245.5C 185.452,247.045 185.785,248.712 185.5,250.5 Z"/>
    </g>
    <g>
        <path style="opacity:1" fill="#c5aacb" d="M 238.5,247.5 C 237.624,247.369 236.957,247.702 236.5,248.5C 237.393,251.084 237.726,253.751 237.5,256.5C 236.833,254.5 236.167,252.5 235.5,250.5C 235.215,248.712 235.548,247.045 236.5,245.5C 237.522,245.855 238.189,246.522 238.5,247.5 Z"/>
    </g>
    <g>
        <path style="opacity:1" fill="#b17abf" d="M 185.5,250.5 C 185.329,255.196 184.829,259.863 184,264.5C 183.617,265.056 183.117,265.389 182.5,265.5C 183.15,263.565 183.483,261.565 183.5,259.5C 183.5,258.5 183.5,257.5 183.5,256.5C 184.167,254.5 184.833,252.5 185.5,250.5 Z"/>
    </g>
    <g>
        <path style="opacity:1" fill="#cbbbdb" d="M 88.5,238.5 C 87.2673,245.487 87.2673,252.487 88.5,259.5C 86.9608,256.135 86.2942,252.469 86.5,248.5C 86.6667,245.833 86.8333,243.167 87,240.5C 87.2784,239.584 87.7784,238.918 88.5,238.5 Z"/>
    </g>
    <g>
        <path style="opacity:1" fill="#ae7abf" d="M 235.5,250.5 C 236.167,252.5 236.833,254.5 237.5,256.5C 237.5,257.5 237.5,258.5 237.5,259.5C 237.674,261.861 238.007,264.194 238.5,266.5C 237.778,266.082 237.278,265.416 237,264.5C 236.171,259.863 235.671,255.196 235.5,250.5 Z"/>
    </g>
    <g>
        <path style="opacity:1" fill="#d5bfe6" d="M 183.5,259.5 C 183.483,261.565 183.15,263.565 182.5,265.5C 182.037,268.482 181.704,271.482 181.5,274.5C 181.167,274.5 180.833,274.5 180.5,274.5C 180.549,269.184 181.549,264.184 183.5,259.5 Z"/>
    </g>
    <g>
        <path style="opacity:1" fill="#d3b9d9" d="M 254.5,262.5 C 256.749,263.08 258.415,264.413 259.5,266.5C 257.251,265.92 255.585,264.587 254.5,262.5 Z"/>
    </g>
    <g>
        <path style="opacity:1" fill="#e3c9ed" d="M 167.5,261.5 C 166.089,263.914 164.089,265.581 161.5,266.5C 162.911,264.086 164.911,262.419 167.5,261.5 Z"/>
    </g>
    <g>
        <path style="opacity:1" fill="#cfbde0" d="M 237.5,259.5 C 239.451,264.184 240.451,269.184 240.5,274.5C 239.469,272.039 238.802,269.373 238.5,266.5C 238.007,264.194 237.674,261.861 237.5,259.5 Z"/>
    </g>
    <g>
        <path style="opacity:1" fill="#b886c8" d="M 92.5,266.5 C 94.2503,267.659 95.2503,269.326 95.5,271.5C 93.5923,270.514 92.5923,268.848 92.5,266.5 Z"/>
    </g>
    <g>
        <path style="opacity:1" fill="#c6a2da" d="M 147.5,277.5 C 145.192,278.793 142.858,280.126 140.5,281.5C 141.855,278.482 144.188,277.149 147.5,277.5 Z"/>
    </g>
    <g>
        <path style="opacity:1" fill="#ad7dc2" d="M 180.5,274.5 C 180.833,274.5 181.167,274.5 181.5,274.5C 181.142,278.509 180.642,282.509 180,286.5C 179.722,287.416 179.222,288.082 178.5,288.5C 178.993,286.194 179.326,283.861 179.5,281.5C 179.298,279.05 179.631,276.717 180.5,274.5 Z"/>
    </g>
    <g>
        <path style="opacity:1" fill="#c397ce" d="M 107.5,283.5 C 110.317,284.095 112.65,285.428 114.5,287.5C 111.318,287.416 108.985,286.083 107.5,283.5 Z"/>
    </g>
    <g>
        <path style="opacity:1" fill="#d4c3e0" d="M 315.5,283.5 C 314.089,285.539 312.089,286.539 309.5,286.5C 311.181,284.992 313.181,283.992 315.5,283.5 Z"/>
    </g>
    <g>
        <path style="opacity:1" fill="#ddcdee" d="M 114.5,287.5 C 118.5,287.5 122.5,287.5 126.5,287.5C 122.5,290.167 118.5,290.167 114.5,287.5 Z"/>
    </g>
    <g>
        <path style="opacity:1" fill="#dccded" d="M 294.5,287.5 C 298.833,287.5 303.167,287.5 307.5,287.5C 303.167,290.167 298.833,290.167 294.5,287.5 Z"/>
    </g>
    <g>
        <path style="opacity:1" fill="#cfc2e2" d="M 179.5,281.5 C 179.326,283.861 178.993,286.194 178.5,288.5C 177.27,297.848 177.27,307.181 178.5,316.5C 178.833,317.833 179.167,319.167 179.5,320.5C 177.933,319.319 177.099,317.653 177,315.5C 176.333,307.5 176.333,299.5 177,291.5C 177.149,287.867 177.982,284.534 179.5,281.5 Z"/>
    </g>
    <g>
        <path style="opacity:1" fill="#cfc2de" d="M 241.5,280.5 C 243.86,287.848 244.86,295.514 244.5,303.5C 244.333,307.5 244.167,311.5 244,315.5C 243.901,317.653 243.067,319.319 241.5,320.5C 243.949,307.213 243.949,293.879 241.5,280.5 Z"/>
    </g>
    <g>
        <path style="opacity:1" fill="#b784c7" d="M 178.5,316.5 C 180.241,318.395 181.241,320.728 181.5,323.5C 179.952,323.179 179.285,322.179 179.5,320.5C 179.167,319.167 178.833,317.833 178.5,316.5 Z"/>
    </g>
    <g>
        <path style="opacity:1" fill="#c9a7d3" d="M 194.5,332.5 C 197.553,332.111 200.22,332.777 202.5,334.5C 199.572,334.435 196.905,333.768 194.5,332.5 Z"/>
    </g>
</svg>
