<?xml version="1.0" encoding="UTF-8"?>
<!DOCTYPE svg PUBLIC "-//W3C//DTD SVG 1.1//EN" "http://www.w3.org/Graphics/SVG/1.1/DTD/svg11.dtd">
<svg xmlns="http://www.w3.org/2000/svg" version="1.1" width="514px" height="285px" style="shape-rendering:geometricPrecision; text-rendering:geometricPrecision; image-rendering:optimizeQuality; fill-rule:evenodd; clip-rule:evenodd" xmlns:xlink="http://www.w3.org/1999/xlink">
<g><path style="opacity:0.865" fill="#e5e5e5" d="M 213.5,7.5 C 219.176,7.33391 224.843,7.50058 230.5,8C 231.931,8.46524 233.097,9.29857 234,10.5C 234.993,13.4083 235.493,16.4083 235.5,19.5C 235.03,25.1693 234.53,30.836 234,36.5C 233.692,37.3081 233.192,37.9747 232.5,38.5C 225.884,39.6282 219.218,39.7948 212.5,39C 212,38.5 211.5,38 211,37.5C 209.396,29.2704 209.063,20.9371 210,12.5C 210.257,10.0935 211.424,8.42681 213.5,7.5 Z"/></g>
<g><path style="opacity:0.854" fill="#cacaca" d="M 244.5,7.5 C 250.176,7.33391 255.843,7.50058 261.5,8C 262.416,8.37424 263.25,8.87424 264,9.5C 265.609,18.398 265.942,27.398 265,36.5C 261.954,39.9102 258.121,41.2435 253.5,40.5C 249.492,40.6104 245.659,39.9438 242,38.5C 240.391,29.602 240.058,20.602 241,11.5C 241.69,9.64977 242.856,8.31643 244.5,7.5 Z"/></g>
<g><path style="opacity:0.854" fill="#e3e3e3" d="M 276.5,7.5 C 282.509,7.33385 288.509,7.50051 294.5,8C 295.416,8.37424 296.25,8.87424 297,9.5C 298,18.1539 298.333,26.8206 298,35.5C 297.535,36.9308 296.701,38.0975 295.5,39C 289.167,39.6667 282.833,39.6667 276.5,39C 275.692,38.6924 275.025,38.1924 274.5,37.5C 273.361,28.5482 273.195,19.5482 274,10.5C 275.045,9.62656 275.878,8.62656 276.5,7.5 Z"/></g>
<g><path style="opacity:0.967" fill="#e8e8e8" d="M 413.5,17.5 C 421.422,18.3021 429.422,18.8021 437.5,19C 440.433,20.2709 443.099,21.9376 445.5,24C 446.893,25.1711 447.727,26.6711 448,28.5C 448.667,35.8333 448.667,43.1667 448,50.5C 447.5,51 447,51.5 446.5,52C 438.833,52.6667 431.167,52.6667 423.5,52C 410.931,44.5878 406.765,33.7545 411,19.5C 411.995,18.9341 412.828,18.2674 413.5,17.5 Z"/></g>
<g><path style="opacity:0.936" fill="#e5e5e5" d="M 502.5,25.5 C 504.39,25.2965 505.89,25.9632 507,27.5C 507.667,35.1667 507.667,42.8333 507,50.5C 506.5,51 506,51.5 505.5,52C 497.5,52.6667 489.5,52.6667 481.5,52C 480.57,50.8061 479.903,49.4728 479.5,48C 483.082,36.2502 490.749,28.7502 502.5,25.5 Z"/></g>
<g><path style="opacity:0.965" fill="#cccccc" d="M 459.5,27.5 C 473.677,26.5306 478.844,32.8639 475,46.5C 469.787,52.8628 463.621,54.0294 456.5,50C 449.194,41.342 450.194,33.842 459.5,27.5 Z"/></g>
<g><path style="opacity:1" fill="#393746" d="M 252.5,42.5 C 253.496,42.4142 254.329,42.7476 255,43.5C 256.712,50.9286 259.546,57.9286 263.5,64.5C 263.167,64.8333 262.833,65.1667 262.5,65.5C 259.712,64.0219 256.878,62.6886 254,61.5C 245.893,95.2854 224.727,114.119 190.5,118C 220.974,112.735 240.641,94.5679 249.5,63.5C 249.167,62.8333 248.833,62.1667 248.5,61.5C 245.595,62.8129 242.595,63.3129 239.5,63C 245.229,57.04 249.562,50.2066 252.5,42.5 Z"/></g>
<g><path style="opacity:1" fill="#302d3d" d="M 377.5,91.5 C 376.732,90.7375 376.232,89.7375 376,88.5C 375.439,89.0219 374.772,89.3552 374,89.5C 372.147,87.315 369.98,85.4817 367.5,84C 364.406,83.7488 361.406,84.2488 358.5,85.5C 358.014,82.2447 359.014,79.578 361.5,77.5C 357.601,70.9832 359.267,66.8166 366.5,65C 371.152,63.8069 375.319,64.6403 379,67.5C 381.364,71.4738 380.864,74.9738 377.5,78C 381.082,82.7321 381.082,87.2321 377.5,91.5 Z"/></g>
<g><path style="opacity:0.994" fill="#2f2d3d" d="M 119.5,83.5 C 114.295,79.8787 110.295,81.212 107.5,87.5C 105.807,85.7214 103.807,85.2214 101.5,86C 100.119,89.2313 97.7859,91.0647 94.5,91.5C 93.4378,86.6596 92.9378,81.6596 93,76.5C 95.6432,75.0237 97.8099,73.0237 99.5,70.5C 100.941,69.696 102.441,69.0294 104,68.5C 112.445,68.3212 118.612,72.1545 122.5,80C 121.635,81.3588 120.635,82.5255 119.5,83.5 Z"/></g>
<g><path style="opacity:0.184" fill="#3e3c4e" d="M 461.5,86.5 C 461.552,84.0971 461.219,81.7638 460.5,79.5C 460.265,78.9033 459.765,78.5699 459,78.5C 455.902,79.7372 452.735,80.2372 449.5,80C 455.111,73.7217 459.944,66.8884 464,59.5C 466.698,67.2286 470.198,74.562 474.5,81.5C 474,81.8333 473.5,82.1667 473,82.5C 470.106,81.3032 467.273,79.9699 464.5,78.5C 463.743,81.3697 462.743,84.0364 461.5,86.5 Z"/></g>
<g><path style="opacity:0.22" fill="#776edc" d="M 177.5,93.5 C 165.212,92.3732 152.879,92.2066 140.5,93C 139.667,93.8333 138.833,94.6667 138,95.5C 137.23,94.4019 136.397,94.4019 135.5,95.5C 135.574,93.5891 136.574,92.4224 138.5,92C 151.167,91.3333 163.833,91.3333 176.5,92C 177.056,92.3826 177.389,92.8826 177.5,93.5 Z"/></g>
<g><path style="opacity:1" fill="#925f6a" d="M 119.5,83.5 C 118.49,90.5098 114.49,94.5098 107.5,95.5C 107.5,96.5 107.5,97.5 107.5,98.5C 103.489,98.4984 99.8219,97.3317 96.5,95C 95.7476,94.3292 95.4142,93.4959 95.5,92.5C 95.5,91.8333 95.1667,91.5 94.5,91.5C 97.7859,91.0647 100.119,89.2313 101.5,86C 103.807,85.2214 105.807,85.7214 107.5,87.5C 110.295,81.212 114.295,79.8787 119.5,83.5 Z"/></g>
<g><path style="opacity:1" fill="#f1b3b4" d="M 377.5,91.5 C 377.315,93.1958 376.481,94.5291 375,95.5C 374.322,97.5976 374.489,99.5976 375.5,101.5C 372.15,101.386 368.817,101.053 365.5,100.5C 363.667,100.415 362.334,99.7479 361.5,98.5C 361.611,97.8826 361.944,97.3826 362.5,97C 359.328,93.819 357.994,89.9857 358.5,85.5C 361.406,84.2488 364.406,83.7488 367.5,84C 369.98,85.4817 372.147,87.315 374,89.5C 374.772,89.3552 375.439,89.0219 376,88.5C 376.232,89.7375 376.732,90.7375 377.5,91.5 Z"/></g>
<g><path style="opacity:1" fill="#e7e4e5" d="M 361.5,98.5 C 362.334,99.7479 363.667,100.415 365.5,100.5C 368.817,101.053 372.15,101.386 375.5,101.5C 376.167,101.5 376.5,101.833 376.5,102.5C 377.827,106.416 379.66,110.083 382,113.5C 382.717,118.092 382.217,122.425 380.5,126.5C 378.833,126.5 377.167,126.5 375.5,126.5C 373.833,126.5 372.167,126.5 370.5,126.5C 364.977,125.289 359.31,125.289 353.5,126.5C 352.5,126.5 351.5,126.5 350.5,126.5C 350.441,120.089 351.108,113.756 352.5,107.5C 355.193,106.468 355.86,104.802 354.5,102.5C 357.331,101.921 359.664,100.588 361.5,98.5 Z"/></g>
<g><path style="opacity:1" fill="#3e3c53" d="M 95.5,92.5 C 95.4142,93.4959 95.7476,94.3292 96.5,95C 99.8219,97.3317 103.489,98.4984 107.5,98.5C 110.443,106.998 113.777,115.331 117.5,123.5C 123.527,120.155 129.527,116.821 135.5,113.5C 135.5,118.167 135.5,122.833 135.5,127.5C 134.833,127.5 134.5,127.833 134.5,128.5C 133.662,128.842 133.328,129.508 133.5,130.5C 132.833,130.5 132.5,130.833 132.5,131.5C 132.167,131.5 131.833,131.5 131.5,131.5C 127.984,133.133 127.65,135.467 130.5,138.5C 130.957,139.298 131.624,139.631 132.5,139.5C 129.738,141.725 126.738,143.725 123.5,145.5C 124.223,148.814 125.223,152.147 126.5,155.5C 125.451,157.216 124.118,158.549 122.5,159.5C 121.85,159.196 121.183,158.863 120.5,158.5C 113.284,162.465 105.617,165.465 97.5,167.5C 96.2284,167.43 95.0617,167.097 94,166.5C 93.699,163.538 93.5323,160.872 93.5,158.5C 92.6769,155.649 91.3435,152.982 89.5,150.5C 89.8333,149.833 90.1667,149.167 90.5,148.5C 88.0832,133.916 86.5832,119.249 86,104.5C 88.9454,100.249 92.112,96.2486 95.5,92.5 Z"/></g>
<g><path style="opacity:1" fill="#6b62fa" d="M 177.5,93.5 C 178.474,111.787 178.807,130.12 178.5,148.5C 178.027,149.906 177.027,150.573 175.5,150.5C 163.482,150.832 151.482,150.499 139.5,149.5C 137.041,147.073 136.041,144.073 136.5,140.5C 138.167,140.5 139.833,140.5 141.5,140.5C 142.343,137.141 143.677,134.141 145.5,131.5C 146.873,131.657 148.207,131.49 149.5,131C 150.451,130.282 150.617,129.449 150,128.5C 147.281,127.556 144.448,127.223 141.5,127.5C 141.137,125.089 142.137,123.589 144.5,123C 151.167,122.333 157.833,122.333 164.5,123C 163.167,124 163.167,125 164.5,126C 160.68,126.235 157.013,127.068 153.5,128.5C 154.425,129.562 155.425,129.562 156.5,128.5C 156.5,128.833 156.5,129.167 156.5,129.5C 161.368,130.213 166.368,130.879 171.5,131.5C 173.283,130.652 173.783,129.319 173,127.5C 171.693,126.228 170.193,125.228 168.5,124.5C 169.325,123.614 170.325,123.281 171.5,123.5C 171.5,122.5 171.5,121.5 171.5,120.5C 171.5,120.167 171.5,119.833 171.5,119.5C 172.338,119.158 172.672,118.492 172.5,117.5C 162.592,116.879 152.592,115.879 142.5,114.5C 141.914,114.709 141.414,115.043 141,115.5C 140.899,118.7 140.232,121.7 139,124.5C 137.549,114.885 136.049,105.552 134.5,96.5C 134.5,95.8333 134.833,95.5 135.5,95.5C 136.397,94.4019 137.23,94.4019 138,95.5C 138.833,94.6667 139.667,93.8333 140.5,93C 152.879,92.2066 165.212,92.3732 177.5,93.5 Z M 156.5,129.5 C 156.5,129.167 156.5,128.833 156.5,128.5C 161.099,128.8 165.599,128.467 170,127.5C 170.5,128 171,128.5 171.5,129C 166.511,129.499 161.511,129.666 156.5,129.5 Z"/></g>
<g><path style="opacity:0.9" fill="#655fe1" d="M 159.5,108.5 C 161.048,107.206 163.048,106.539 165.5,106.5C 167.5,106.667 169.5,106.833 171.5,107C 172.747,108.458 172.747,109.958 171.5,111.5C 166.833,111.833 162.167,112.167 157.5,112.5C 152.449,112.493 147.783,111.827 143.5,110.5C 144.833,110.167 144.833,109.833 143.5,109.5C 143.461,108.244 143.961,107.244 145,106.5C 146.399,107.227 147.899,107.727 149.5,108C 150.126,108.75 150.626,109.584 151,110.5C 151.689,109.643 152.522,108.977 153.5,108.5C 157.507,109.417 161.841,109.584 166.5,109C 164.19,108.503 161.857,108.337 159.5,108.5 Z"/></g>
<g><path style="opacity:0.839" fill="#edbfc0" d="M 376.5,102.5 C 379.961,102.146 382.461,103.479 384,106.5C 385.528,113.752 386.361,121.085 386.5,128.5C 384.102,128.741 382.102,128.074 380.5,126.5C 382.217,122.425 382.717,118.092 382,113.5C 379.66,110.083 377.827,106.416 376.5,102.5 Z"/></g>
<g><path style="opacity:0.725" fill="#7670e5" d="M 158.5,119.5 C 160.527,119.662 162.527,119.495 164.5,119C 162.866,118.506 161.199,118.34 159.5,118.5C 163.634,117.515 167.968,117.182 172.5,117.5C 172.672,118.492 172.338,119.158 171.5,119.5C 171.5,119.833 171.5,120.167 171.5,120.5C 166.489,120.612 161.489,120.946 156.5,121.5C 154.5,121.167 152.5,120.833 150.5,120.5C 151.506,119.604 151.506,118.938 150.5,118.5C 149.205,119.098 147.872,119.598 146.5,120C 147.5,120.333 148.5,120.667 149.5,121C 147.288,121.789 145.288,121.622 143.5,120.5C 142.596,119.791 142.263,118.791 142.5,117.5C 148.058,117.001 153.392,117.667 158.5,119.5 Z"/></g>
<g><path style="opacity:0.861" fill="#36343e" d="M 460.5,79.5 C 461.219,81.7638 461.552,84.0971 461.5,86.5C 453.669,112.164 436.669,127.997 410.5,134C 406.833,134.667 403.167,134.667 399.5,134C 431.64,129.026 451.973,110.859 460.5,79.5 Z"/></g>
<g><path style="opacity:1" fill="#f1babe" d="M 354.5,102.5 C 355.86,104.802 355.193,106.468 352.5,107.5C 351.108,113.756 350.441,120.089 350.5,126.5C 351.5,126.5 352.5,126.5 353.5,126.5C 353.5,126.833 353.5,127.167 353.5,127.5C 350.692,128.929 347.692,129.595 344.5,129.5C 344.84,122.116 345.673,114.783 347,107.5C 348.41,104.211 350.91,102.544 354.5,102.5 Z"/></g>
<g><path style="opacity:1" fill="#6b62e7" d="M 134.5,96.5 C 136.049,105.552 137.549,114.885 139,124.5C 140.232,121.7 140.899,118.7 141,115.5C 141.414,115.043 141.914,114.709 142.5,114.5C 152.592,115.879 162.592,116.879 172.5,117.5C 167.968,117.182 163.634,117.515 159.5,118.5C 158.833,118.5 158.5,118.833 158.5,119.5C 153.392,117.667 148.058,117.001 142.5,117.5C 142.263,118.791 142.596,119.791 143.5,120.5C 145.288,121.622 147.288,121.789 149.5,121C 148.5,120.667 147.5,120.333 146.5,120C 147.872,119.598 149.205,119.098 150.5,118.5C 151.506,118.938 151.506,119.604 150.5,120.5C 152.5,120.833 154.5,121.167 156.5,121.5C 161.489,120.946 166.489,120.612 171.5,120.5C 171.5,121.5 171.5,122.5 171.5,123.5C 170.325,123.281 169.325,123.614 168.5,124.5C 170.193,125.228 171.693,126.228 173,127.5C 173.783,129.319 173.283,130.652 171.5,131.5C 166.368,130.879 161.368,130.213 156.5,129.5C 161.511,129.666 166.511,129.499 171.5,129C 171,128.5 170.5,128 170,127.5C 165.599,128.467 161.099,128.8 156.5,128.5C 155.425,129.562 154.425,129.562 153.5,128.5C 157.013,127.068 160.68,126.235 164.5,126C 163.167,125 163.167,124 164.5,123C 157.833,122.333 151.167,122.333 144.5,123C 142.137,123.589 141.137,125.089 141.5,127.5C 144.448,127.223 147.281,127.556 150,128.5C 150.617,129.449 150.451,130.282 149.5,131C 148.207,131.49 146.873,131.657 145.5,131.5C 145.672,130.508 145.338,129.842 144.5,129.5C 143.794,128.443 143.461,128.776 143.5,130.5C 140.833,130.5 138.167,130.5 135.5,130.5C 135.167,130.5 134.833,130.5 134.5,130.5C 134.5,129.833 134.5,129.167 134.5,128.5C 135.167,128.5 135.5,128.167 135.5,127.5C 135.5,122.833 135.5,118.167 135.5,113.5C 134.548,107.925 134.214,102.259 134.5,96.5 Z M 156.5,129.5 C 156.5,129.167 156.5,128.833 156.5,128.5C 161.099,128.8 165.599,128.467 170,127.5C 170.5,128 171,128.5 171.5,129C 166.511,129.499 161.511,129.666 156.5,129.5 Z"/></g>
<g><path style="opacity:1" fill="#9a95e7" d="M 370.5,126.5 C 364.797,126.375 359.13,126.708 353.5,127.5C 353.5,127.167 353.5,126.833 353.5,126.5C 359.31,125.289 364.977,125.289 370.5,126.5 Z"/></g>
<g><path style="opacity:1" fill="#6b62fc" d="M 402.5,148.5 C 403.99,154.879 404.99,161.379 405.5,168C 405.088,171.411 403.755,174.411 401.5,177C 402.645,179.199 402.645,181.365 401.5,183.5C 400.914,183.291 400.414,182.957 400,182.5C 399.433,185.168 398.933,187.834 398.5,190.5C 396.801,190.34 395.134,190.506 393.5,191C 395.107,192.049 395.773,193.549 395.5,195.5C 393.54,197.156 391.54,198.823 389.5,200.5C 379.37,202.453 369.704,205.12 360.5,208.5C 359.833,208.167 359.167,207.833 358.5,207.5C 354.542,205.066 350.209,203.399 345.5,202.5C 342.214,200.845 339.214,198.678 336.5,196C 335.552,195.517 334.552,195.351 333.5,195.5C 330.773,190.746 328.44,185.746 326.5,180.5C 323.232,161.548 328.566,145.548 342.5,132.5C 345.09,132.604 347.423,131.937 349.5,130.5C 350.554,130.68 351.554,131.013 352.5,131.5C 353.7,130.469 355.034,129.635 356.5,129C 361.833,128.333 367.167,128.333 372.5,129C 371.231,131.139 371.231,133.305 372.5,135.5C 373.086,135.291 373.586,134.957 374,134.5C 376.667,135.167 379.333,135.833 382,136.5C 382.5,136 383,135.5 383.5,135C 382.377,133.956 381.044,133.29 379.5,133C 380.108,132.13 380.941,131.63 382,131.5C 385.092,133.964 388.592,135.797 392.5,137C 393.337,138.011 393.67,139.178 393.5,140.5C 395.942,140.119 396.609,140.786 395.5,142.5C 397.847,144.581 400.18,146.581 402.5,148.5 Z"/></g>
<g><path style="opacity:1" fill="#d1b2e4" d="M 375.5,126.5 C 377.167,126.5 378.833,126.5 380.5,126.5C 382.102,128.074 384.102,128.741 386.5,128.5C 386.5,129.167 386.5,129.833 386.5,130.5C 382.463,129.935 378.797,128.601 375.5,126.5 Z"/></g>
<g><path style="opacity:1" fill="#6f63ec" d="M 370.5,126.5 C 372.167,126.5 373.833,126.5 375.5,126.5C 378.797,128.601 382.463,129.935 386.5,130.5C 393.626,134.957 398.96,140.957 402.5,148.5C 400.18,146.581 397.847,144.581 395.5,142.5C 396.609,140.786 395.942,140.119 393.5,140.5C 393.67,139.178 393.337,138.011 392.5,137C 388.592,135.797 385.092,133.964 382,131.5C 380.941,131.63 380.108,132.13 379.5,133C 381.044,133.29 382.377,133.956 383.5,135C 383,135.5 382.5,136 382,136.5C 379.333,135.833 376.667,135.167 374,134.5C 373.586,134.957 373.086,135.291 372.5,135.5C 371.231,133.305 371.231,131.139 372.5,129C 367.167,128.333 361.833,128.333 356.5,129C 355.034,129.635 353.7,130.469 352.5,131.5C 351.554,131.013 350.554,130.68 349.5,130.5C 347.423,131.937 345.09,132.604 342.5,132.5C 343.167,131.5 343.833,130.5 344.5,129.5C 347.692,129.595 350.692,128.929 353.5,127.5C 359.13,126.708 364.797,126.375 370.5,126.5 Z"/></g>
<g><path style="opacity:1" fill="#915f76" d="M 133.5,130.5 C 133.833,130.5 134.167,130.5 134.5,130.5C 134.833,130.5 135.167,130.5 135.5,130.5C 138.275,130.879 140.275,132.379 141.5,135C 139.6,136.67 137.6,138.17 135.5,139.5C 134.5,139.5 133.5,139.5 132.5,139.5C 131.624,139.631 130.957,139.298 130.5,138.5C 127.65,135.467 127.984,133.133 131.5,131.5C 131.833,132.833 132.167,132.833 132.5,131.5C 133.167,131.5 133.5,131.167 133.5,130.5 Z"/></g>
<g><path style="opacity:0.305" fill="#6660c1" d="M 177.5,93.5 C 178.117,93.6107 178.617,93.944 179,94.5C 179.829,112.671 179.662,130.671 178.5,148.5C 178.807,130.12 178.474,111.787 177.5,93.5 Z"/></g>
<g><path style="opacity:1" fill="#7167d5" d="M 342.5,132.5 C 328.566,145.548 323.232,161.548 326.5,180.5C 324.862,176.436 323.862,172.103 323.5,167.5C 324.49,163.228 325.156,158.894 325.5,154.5C 328.298,144.882 333.965,137.548 342.5,132.5 Z"/></g>
<g><path style="opacity:0.11" fill="#766ad4" d="M 144.5,129.5 C 145.338,129.842 145.672,130.508 145.5,131.5C 143.677,134.141 142.343,137.141 141.5,140.5C 139.833,140.5 138.167,140.5 136.5,140.5C 136.041,144.073 137.041,147.073 139.5,149.5C 151.482,150.499 163.482,150.832 175.5,150.5C 163.34,151.66 151.007,151.827 138.5,151C 137.584,150.626 136.75,150.126 136,149.5C 135.502,146.183 135.335,142.85 135.5,139.5C 137.6,138.17 139.6,136.67 141.5,135C 140.275,132.379 138.275,130.879 135.5,130.5C 138.167,130.5 140.833,130.5 143.5,130.5C 144.167,130.5 144.5,130.167 144.5,129.5 Z"/></g>
<g><path style="opacity:1" fill="#e9b2c9" d="M 325.5,154.5 C 325.156,158.894 324.49,163.228 323.5,167.5C 320.41,168.17 318.743,167.003 318.5,164C 319.131,159.541 321.464,156.375 325.5,154.5 Z"/></g>
<g><path style="opacity:1" fill="#dfadcd" d="M 405.5,154.5 C 411.54,157.068 413.54,161.234 411.5,167C 409.497,167.335 407.83,168.168 406.5,169.5C 406.249,164.493 405.916,159.493 405.5,154.5 Z"/></g>
<g><path style="opacity:1" fill="#2f2d3e" d="M 93.5,158.5 C 93.5323,160.872 93.699,163.538 94,166.5C 95.0617,167.097 96.2284,167.43 97.5,167.5C 105.617,165.465 113.284,162.465 120.5,158.5C 121.183,158.863 121.85,159.196 122.5,159.5C 123.701,167.696 123.534,176.029 122,184.5C 118.892,204.816 115.892,225.15 113,245.5C 112.878,247.437 112.045,248.77 110.5,249.5C 106.702,248.517 102.702,248.183 98.5,248.5C 98.5,247.5 98.5,246.5 98.5,245.5C 94.7307,245.244 91.0641,245.577 87.5,246.5C 86.4695,245.448 85.8029,244.114 85.5,242.5C 89.4366,221.651 93.4366,200.817 97.5,180C 96.9069,176.849 96.4069,173.682 96,170.5C 90.389,167.229 89.5557,163.229 93.5,158.5 Z"/></g>
<g><path style="opacity:1" fill="#6e63e1" d="M 402.5,148.5 C 403.87,150.25 404.87,152.25 405.5,154.5C 405.916,159.493 406.249,164.493 406.5,169.5C 406.103,179.619 402.436,188.286 395.5,195.5C 395.773,193.549 395.107,192.049 393.5,191C 395.134,190.506 396.801,190.34 398.5,190.5C 398.933,187.834 399.433,185.168 400,182.5C 400.414,182.957 400.914,183.291 401.5,183.5C 402.645,181.365 402.645,179.199 401.5,177C 403.755,174.411 405.088,171.411 405.5,168C 404.99,161.379 403.99,154.879 402.5,148.5 Z"/></g>
<g><path style="opacity:1" fill="#675fd6" d="M 389.5,200.5 C 387.651,201.593 385.984,202.926 384.5,204.5C 378.544,206.156 372.544,207.49 366.5,208.5C 364.5,208.5 362.5,208.5 360.5,208.5C 369.704,205.12 379.37,202.453 389.5,200.5 Z"/></g>
<g><path style="opacity:1" fill="#2e2c3f" d="M 333.5,195.5 C 334.552,195.351 335.552,195.517 336.5,196C 339.214,198.678 342.214,200.845 345.5,202.5C 346.694,203.272 347.694,204.272 348.5,205.5C 346.482,216.238 344.149,226.905 341.5,237.5C 338.287,237.19 335.287,237.523 332.5,238.5C 331.005,238.585 330.005,237.919 329.5,236.5C 331.418,222.907 332.751,209.24 333.5,195.5 Z"/></g>
<g><path style="opacity:0.418" fill="#615dc3" d="M 345.5,202.5 C 350.209,203.399 354.542,205.066 358.5,207.5C 355.123,207.041 351.789,206.374 348.5,205.5C 347.694,204.272 346.694,203.272 345.5,202.5 Z"/></g>
<g><path style="opacity:0.999" fill="#2e2c3e" d="M 384.5,204.5 C 385.146,217.212 384.48,229.545 382.5,241.5C 379.375,240.521 376.042,240.187 372.5,240.5C 370.712,229.767 368.712,219.1 366.5,208.5C 372.544,207.49 378.544,206.156 384.5,204.5 Z"/></g>
<g><path style="opacity:0.761" fill="#e3abae" d="M 341.5,237.5 C 341.073,241.824 340.739,246.158 340.5,250.5C 337.863,251.63 335.197,251.63 332.5,250.5C 332.676,246.711 332.676,242.711 332.5,238.5C 335.287,237.523 338.287,237.19 341.5,237.5 Z"/></g>
<g><path style="opacity:1" fill="#e3b1b7" d="M 372.5,240.5 C 376.042,240.187 379.375,240.521 382.5,241.5C 382.5,244.5 382.5,247.5 382.5,250.5C 379.833,251.833 377.167,251.833 374.5,250.5C 374.848,246.915 374.181,243.582 372.5,240.5 Z"/></g>
<g><path style="opacity:0.984" fill="#885d67" d="M 110.5,249.5 C 110.5,250.833 110.5,252.167 110.5,253.5C 108.519,255.144 106.519,256.81 104.5,258.5C 102.116,256.115 99.4495,254.115 96.5,252.5C 93.5434,255.358 90.2101,256.025 86.5,254.5C 86.8333,251.833 87.1667,249.167 87.5,246.5C 91.0641,245.577 94.7307,245.244 98.5,245.5C 98.5,246.5 98.5,247.5 98.5,248.5C 102.702,248.183 106.702,248.517 110.5,249.5 Z M 97.5,249.5 C 99.2252,249.843 99.7252,250.843 99,252.5C 97.9614,251.756 97.4614,250.756 97.5,249.5 Z"/></g>
<g><path style="opacity:0.729" fill="#332f3f" d="M 332.5,250.5 C 335.197,251.63 337.863,251.63 340.5,250.5C 342.56,253.772 342.893,257.272 341.5,261C 350.831,263 359.831,262 368.5,258C 370.364,255.312 372.364,252.812 374.5,250.5C 377.167,251.833 379.833,251.833 382.5,250.5C 383.423,254.064 383.756,257.731 383.5,261.5C 382.226,262.189 382.226,263.023 383.5,264C 386.036,264.186 388.369,264.686 390.5,265.5C 367.541,264.913 344.208,264.913 320.5,265.5C 321.551,264.778 322.218,263.778 322.5,262.5C 322.5,262.167 322.5,261.833 322.5,261.5C 322.414,260.504 322.748,259.671 323.5,259C 327.601,257.4 330.601,254.567 332.5,250.5 Z"/></g>
<g><path style="opacity:1" fill="#292634" d="M 110.5,253.5 C 114.962,257.898 120.296,260.398 126.5,261C 191.832,261.5 257.166,261.667 322.5,261.5C 322.5,261.833 322.5,262.167 322.5,262.5C 265.499,262.333 208.499,262.5 151.5,263C 155.025,263.179 158.359,263.679 161.5,264.5C 155.863,265.829 150.197,265.829 144.5,264.5C 139.186,265.122 133.853,265.789 128.5,266.5C 127.975,267.192 127.308,267.692 126.5,268C 117.5,268.667 108.5,268.667 99.5,268C 98.0506,266.883 96.3839,266.216 94.5,266C 69.8266,265.341 45.16,264.508 20.5,263.5C 20.7093,262.914 21.0426,262.414 21.5,262C 42.164,261.5 62.8306,261.333 83.5,261.5C 83.5516,258.654 84.5516,256.32 86.5,254.5C 90.2101,256.025 93.5434,255.358 96.5,252.5C 99.4495,254.115 102.116,256.115 104.5,258.5C 106.519,256.81 108.519,255.144 110.5,253.5 Z"/></g>
<g><path style="opacity:0.961" fill="#333242" d="M 322.5,262.5 C 322.218,263.778 321.551,264.778 320.5,265.5C 267.645,265.659 214.645,265.325 161.5,264.5C 158.359,263.679 155.025,263.179 151.5,263C 208.499,262.5 265.499,262.333 322.5,262.5 Z"/></g>
<g><path style="opacity:0.769" fill="#353441" d="M 383.5,261.5 C 408.878,261.176 434.211,261.509 459.5,262.5C 460.604,263.631 460.271,264.465 458.5,265C 455.333,265.167 452.167,265.333 449,265.5C 429.386,264.765 409.886,264.765 390.5,265.5C 388.369,264.686 386.036,264.186 383.5,264C 382.226,263.023 382.226,262.189 383.5,261.5 Z"/></g>
</svg>
