<?xml version="1.0" encoding="UTF-8"?>
<!DOCTYPE svg PUBLIC "-//W3C//DTD SVG 1.1//EN" "http://www.w3.org/Graphics/SVG/1.1/DTD/svg11.dtd">
<svg xmlns="http://www.w3.org/2000/svg" version="1.1" width="266px" height="300px" style="shape-rendering:geometricPrecision; text-rendering:geometricPrecision; image-rendering:optimizeQuality; fill-rule:evenodd; clip-rule:evenodd" xmlns:xlink="http://www.w3.org/1999/xlink">
<g><path style="opacity:0.98" fill="#539e43" d="M 125.5,-0.5 C 130.5,-0.5 135.5,-0.5 140.5,-0.5C 180.649,22.1627 220.482,45.496 260,69.5C 262.374,72.2632 264.208,75.2632 265.5,78.5C 265.5,125.833 265.5,173.167 265.5,220.5C 263.169,227.004 258.836,231.838 252.5,235C 214.876,256.839 177.209,278.339 139.5,299.5C 135.167,299.5 130.833,299.5 126.5,299.5C 111.016,291.169 95.8497,282.169 81,272.5C 80.5521,270.591 81.3855,269.424 83.5,269C 89.0675,267.217 94.4008,264.883 99.5,262C 101.066,261.235 102.399,261.402 103.5,262.5C 102.448,262.351 101.448,262.517 100.5,263C 109.964,268.301 119.297,273.801 128.5,279.5C 129.107,279.376 129.44,279.043 129.5,278.5C 131.527,278.662 133.527,278.495 135.5,278C 171.749,256.959 207.915,235.793 244,214.5C 244.833,170.83 244.667,127.163 243.5,83.5C 206.663,61.914 169.663,40.5807 132.5,19.5C 98.6289,39.1999 64.6289,58.6999 30.5,78C 26.657,80.0348 23.3237,82.5348 20.5,85.5C 19.8281,128.373 19.1615,171.373 18.5,214.5C 19.5866,216.975 20.2533,216.975 20.5,214.5C 32.7352,222.118 45.4019,228.951 58.5,235C 66.652,236.737 72.4854,233.903 76,226.5C 76.3333,182.833 76.6667,139.167 77,95.5C 77.5,94.3333 78.3333,93.5 79.5,93C 85.1667,92.3333 90.8333,92.3333 96.5,93C 97,93.5 97.5,94 98,94.5C 98.6667,140.167 98.6667,185.833 98,231.5C 93.9643,248.716 82.9643,257.382 65,257.5C 55.0928,257.065 45.9261,254.231 37.5,249C 28.1667,243.667 18.8333,238.333 9.5,233C 4.75815,228.977 1.42481,224.143 -0.5,218.5C -0.5,172.5 -0.5,126.5 -0.5,80.5C 1.42015,73.8741 5.42015,68.7074 11.5,65C 49.4317,42.8731 87.4317,21.0398 125.5,-0.5 Z"/></g>
<g><path style="opacity:0.157" fill="#50a043" d="M 20.5,85.5 C 20.5,128.5 20.5,171.5 20.5,214.5C 20.2533,216.975 19.5866,216.975 18.5,214.5C 19.1615,171.373 19.8281,128.373 20.5,85.5 Z"/></g>
<g><path style="opacity:0.971" fill="#539e43" d="M 158.5,88.5 C 173.245,87.8155 187.245,90.6488 200.5,97C 213.34,105.645 218.34,117.312 215.5,132C 209.448,132.79 203.448,132.624 197.5,131.5C 195.612,126.723 193.446,122.057 191,117.5C 182.518,111.502 173.018,108.836 162.5,109.5C 154.919,109.798 147.586,111.298 140.5,114C 130.81,124.845 133.143,131.845 147.5,135C 163.564,137.295 179.564,139.962 195.5,143C 219.91,149.985 227.743,165.485 219,189.5C 209.469,203.855 195.969,211.355 178.5,212C 160.039,214.268 142.372,211.601 125.5,204C 112.155,195.328 106.821,183.328 109.5,168C 115.833,167.333 122.167,167.333 128.5,168C 129.96,172.935 131.793,177.768 134,182.5C 137.688,186.428 142.188,188.928 147.5,190C 161.242,192.247 174.909,191.913 188.5,189C 197.433,185.301 200.6,178.801 198,169.5C 194.238,165.87 189.738,163.703 184.5,163C 170.867,160.781 157.2,158.781 143.5,157C 113.925,151.017 105.092,134.183 117,106.5C 128.242,94.369 142.075,88.369 158.5,88.5 Z"/></g>
<g><path style="opacity:1" fill="#55a345" d="M 78.5,94.5 C 84.5092,94.3338 90.5092,94.5005 96.5,95C 90.8431,95.4994 85.1764,95.6661 79.5,95.5C 79.6667,138.168 79.5,180.835 79,223.5C 78.5,180.501 78.3333,137.501 78.5,94.5 Z"/></g>
<g><path style="opacity:0.718" fill="#54a143" d="M 103.5,262.5 C 112.537,267.346 121.204,272.679 129.5,278.5C 129.44,279.043 129.107,279.376 128.5,279.5C 119.297,273.801 109.964,268.301 100.5,263C 101.448,262.517 102.448,262.351 103.5,262.5 Z"/></g>
</svg>
