<?xml version="1.0" encoding="UTF-8"?>
<!DOCTYPE svg PUBLIC "-//W3C//DTD SVG 1.1//EN" "http://www.w3.org/Graphics/SVG/1.1/DTD/svg11.dtd">
<svg xmlns="http://www.w3.org/2000/svg" version="1.1" width="550px" height="454px" style="shape-rendering:geometricPrecision; text-rendering:geometricPrecision; image-rendering:optimizeQuality; fill-rule:evenodd; clip-rule:evenodd" xmlns:xlink="http://www.w3.org/1999/xlink">
<g><path style="opacity:1" fill="#333145" d="M 234.5,99.5 C 231.851,97.86 229.184,96.1933 226.5,94.5C 224.528,92.6815 222.195,91.6815 219.5,91.5C 217.898,89.9261 215.898,89.2594 213.5,89.5C 211.735,88.5386 209.735,88.2053 207.5,88.5C 207.737,89.791 207.404,90.791 206.5,91.5C 206.5,90.5 206.5,89.5 206.5,88.5C 196.344,87.685 186.844,89.685 178,94.5C 176.249,93.8263 174.583,93.493 173,93.5C 168.976,97.4525 166.142,102.119 164.5,107.5C 163.687,109.261 162.687,110.928 161.5,112.5C 161.627,105.534 163.294,99.0335 166.5,93C 168.979,92.1061 171.312,91.7728 173.5,92C 175.833,88.3333 178.833,85.3333 182.5,83C 188.846,80.0014 195.513,77.8348 202.5,76.5C 205.884,77.1433 209.217,77.9766 212.5,79C 218.008,82.7537 224.008,85.4203 230.5,87C 234.761,90.2801 236.094,94.4468 234.5,99.5 Z"/></g>
<g><path style="opacity:1" fill="#6c63f7" d="M 219.5,91.5 C 222.195,91.6815 224.528,92.6815 226.5,94.5C 227.174,96.0245 228.174,97.3578 229.5,98.5C 227.604,99.4656 225.604,99.7989 223.5,99.5C 221.727,98.1077 219.727,96.941 217.5,96C 214.3,95.8985 211.3,95.2319 208.5,94C 211.454,90.3079 215.12,89.4746 219.5,91.5 Z"/></g>
<g><path style="opacity:1" fill="#3c3b56" d="M 206.5,91.5 C 204.771,92.2362 203.771,93.5695 203.5,95.5C 194.655,95.1035 186.988,97.7701 180.5,103.5C 178.604,104.466 176.604,104.799 174.5,104.5C 176.927,102.442 179.593,100.609 182.5,99C 179.16,94.7711 175.493,94.4378 171.5,98C 169.024,101.145 166.69,104.312 164.5,107.5C 166.142,102.119 168.976,97.4525 173,93.5C 174.583,93.493 176.249,93.8263 178,94.5C 186.844,89.685 196.344,87.685 206.5,88.5C 206.5,89.5 206.5,90.5 206.5,91.5 Z"/></g>
<g><path style="opacity:1" fill="#655fd0" d="M 213.5,89.5 C 215.898,89.2594 217.898,89.9261 219.5,91.5C 215.12,89.4746 211.454,90.3079 208.5,94C 211.3,95.2319 214.3,95.8985 217.5,96C 219.727,96.941 221.727,98.1077 223.5,99.5C 221.435,99.4828 219.435,99.1495 217.5,98.5C 214.587,96.9976 211.42,95.9976 208,95.5C 207.843,91.8183 209.677,89.8183 213.5,89.5 Z"/></g>
<g><path style="opacity:1" fill="#3a3565" d="M 213.5,89.5 C 209.677,89.8183 207.843,91.8183 208,95.5C 211.42,95.9976 214.587,96.9976 217.5,98.5C 214.102,98.8204 210.768,98.487 207.5,97.5C 206.423,96.2949 205.09,95.6282 203.5,95.5C 203.771,93.5695 204.771,92.2362 206.5,91.5C 207.404,90.791 207.737,89.791 207.5,88.5C 209.735,88.2053 211.735,88.5386 213.5,89.5 Z"/></g>
<g><path style="opacity:1" fill="#6f65e1" d="M 226.5,94.5 C 229.184,96.1933 231.851,97.86 234.5,99.5C 238.956,105.272 242.956,111.272 246.5,117.5C 245.662,117.842 245.328,118.508 245.5,119.5C 242.949,117.42 241.115,114.753 240,111.5C 239.362,112.609 238.862,113.775 238.5,115C 242.029,120.901 243.029,127.068 241.5,133.5C 241.785,131.712 241.452,130.045 240.5,128.5C 239.702,128.957 239.369,129.624 239.5,130.5C 238.833,129.5 238.167,128.5 237.5,127.5C 237.5,126.833 237.5,126.167 237.5,125.5C 237.5,125.167 237.5,124.833 237.5,124.5C 239.916,122.295 239.916,120.295 237.5,118.5C 236.766,117.292 236.433,115.959 236.5,114.5C 237.598,113.399 237.765,112.066 237,110.5C 232.601,106.591 228.101,102.924 223.5,99.5C 225.604,99.7989 227.604,99.4656 229.5,98.5C 228.174,97.3578 227.174,96.0245 226.5,94.5 Z"/></g>
<g><path style="opacity:1" fill="#6c63e9" d="M 174.5,104.5 C 173.508,104.328 172.842,104.662 172.5,105.5C 169.833,106.167 168.167,107.833 167.5,110.5C 166.833,111.5 166.167,112.5 165.5,113.5C 164.624,113.631 163.957,113.298 163.5,112.5C 164.309,110.929 164.643,109.262 164.5,107.5C 166.69,104.312 169.024,101.145 171.5,98C 175.493,94.4378 179.16,94.7711 182.5,99C 179.593,100.609 176.927,102.442 174.5,104.5 Z"/></g>
<g><path style="opacity:1" fill="#322e41" d="M 203.5,95.5 C 205.09,95.6282 206.423,96.2949 207.5,97.5C 210.768,98.487 214.102,98.8204 217.5,98.5C 219.435,99.1495 221.435,99.4828 223.5,99.5C 228.101,102.924 232.601,106.591 237,110.5C 237.765,112.066 237.598,113.399 236.5,114.5C 235.167,114.5 234.5,115.167 234.5,116.5C 233.732,117.263 233.232,118.263 233,119.5C 232.703,116.086 232.036,112.753 231,109.5C 229.786,107.951 228.286,106.785 226.5,106C 221.316,105.184 216.316,105.35 211.5,106.5C 201.263,108.762 190.929,110.595 180.5,112C 175.147,114.18 171.813,118.013 170.5,123.5C 169.833,125.5 169.167,127.5 168.5,129.5C 167.662,129.158 167.328,128.492 167.5,127.5C 164.556,126.464 163.222,124.297 163.5,121C 163.739,118.365 164.406,115.865 165.5,113.5C 166.167,112.5 166.833,111.5 167.5,110.5C 169.5,109.167 171.167,107.5 172.5,105.5C 172.842,104.662 173.508,104.328 174.5,104.5C 176.604,104.799 178.604,104.466 180.5,103.5C 186.988,97.7701 194.655,95.1035 203.5,95.5 Z"/></g>
<g><path style="opacity:1" fill="#fdb6b7" d="M 211.5,106.5 C 216.87,106.392 222.203,106.725 227.5,107.5C 227.5,108.5 227.5,109.5 227.5,110.5C 228.5,110.5 229.5,110.5 230.5,110.5C 230.336,115.874 231.336,120.874 233.5,125.5C 233.705,127.785 234.371,129.118 235.5,129.5C 236.193,145.868 228.526,156.701 212.5,162C 195.501,165.89 182.001,160.724 172,146.5C 171.617,147.056 171.117,147.389 170.5,147.5C 170.5,146.5 170.5,145.5 170.5,144.5C 171.338,144.158 171.672,143.492 171.5,142.5C 171.054,138.123 171.721,133.956 173.5,130C 171.822,128.068 171.322,125.902 172,123.5C 173.613,117.553 177.447,114.053 183.5,113C 191.833,112 200.167,111 208.5,110C 208.167,109.667 207.833,109.333 207.5,109C 209.066,108.392 210.4,107.558 211.5,106.5 Z"/></g>
<g><path style="opacity:1" fill="#d8a7b0" d="M 211.5,106.5 C 216.316,105.35 221.316,105.184 226.5,106C 228.286,106.785 229.786,107.951 231,109.5C 232.036,112.753 232.703,116.086 233,119.5C 233.232,118.263 233.732,117.263 234.5,116.5C 234.5,118.167 234.5,119.833 234.5,121.5C 233.566,122.568 233.232,123.901 233.5,125.5C 231.336,120.874 230.336,115.874 230.5,110.5C 229.5,110.5 228.5,110.5 227.5,110.5C 227.5,109.5 227.5,108.5 227.5,107.5C 222.203,106.725 216.87,106.392 211.5,106.5 Z"/></g>
<g><path style="opacity:1" fill="#514da4" d="M 172.5,105.5 C 171.167,107.5 169.5,109.167 167.5,110.5C 168.167,107.833 169.833,106.167 172.5,105.5 Z"/></g>
<g><path style="opacity:1" fill="#e9b3b6" d="M 211.5,106.5 C 210.4,107.558 209.066,108.392 207.5,109C 207.833,109.333 208.167,109.667 208.5,110C 200.167,111 191.833,112 183.5,113C 177.447,114.053 173.613,117.553 172,123.5C 171.322,125.902 171.822,128.068 173.5,130C 171.721,133.956 171.054,138.123 171.5,142.5C 171.167,142.5 170.833,142.5 170.5,142.5C 170.737,141.209 170.404,140.209 169.5,139.5C 169.5,139.167 169.5,138.833 169.5,138.5C 169.5,137.167 169.5,135.833 169.5,134.5C 170.482,131.038 170.815,127.371 170.5,123.5C 171.813,118.013 175.147,114.18 180.5,112C 190.929,110.595 201.263,108.762 211.5,106.5 Z"/></g>
<g><path style="opacity:0.19" fill="#d2d0ea" d="M 236.5,114.5 C 236.433,115.959 236.766,117.292 237.5,118.5C 237.5,120.5 237.5,122.5 237.5,124.5C 237.5,124.833 237.5,125.167 237.5,125.5C 236.732,124.737 236.232,123.737 236,122.5C 235.51,123.793 235.343,125.127 235.5,126.5C 234.549,125.081 234.216,123.415 234.5,121.5C 234.5,119.833 234.5,118.167 234.5,116.5C 234.5,115.167 235.167,114.5 236.5,114.5 Z"/></g>
<g><path style="opacity:1" fill="#413e7e" d="M 237.5,118.5 C 239.916,120.295 239.916,122.295 237.5,124.5C 237.5,122.5 237.5,120.5 237.5,118.5 Z"/></g>
<g><path style="opacity:1" fill="#7c74d8" d="M 164.5,107.5 C 164.643,109.262 164.309,110.929 163.5,112.5C 163.957,113.298 164.624,113.631 165.5,113.5C 164.406,115.865 163.739,118.365 163.5,121C 163.222,124.297 164.556,126.464 167.5,127.5C 166.662,127.842 166.328,128.508 166.5,129.5C 164.417,127.396 162.083,127.062 159.5,128.5C 160.297,123.197 160.964,117.864 161.5,112.5C 162.687,110.928 163.687,109.261 164.5,107.5 Z"/></g>
<g><path style="opacity:1" fill="#42406a" d="M 246.5,117.5 C 247.11,118.391 247.443,119.391 247.5,120.5C 249.168,122.479 249.834,124.812 249.5,127.5C 248.833,129.167 248.167,130.833 247.5,132.5C 247.354,128.613 246.687,124.946 245.5,121.5C 245.5,120.833 245.5,120.167 245.5,119.5C 245.328,118.508 245.662,117.842 246.5,117.5 Z"/></g>
<g><path style="opacity:1" fill="#655fc7" d="M 245.5,121.5 C 246.687,124.946 247.354,128.613 247.5,132.5C 247.446,134.632 246.446,135.965 244.5,136.5C 246.479,131.684 246.812,126.684 245.5,121.5 Z"/></g>
<g><path style="opacity:1" fill="#5d434e" d="M 234.5,121.5 C 234.216,123.415 234.549,125.081 235.5,126.5C 235.5,127.5 235.5,128.5 235.5,129.5C 234.371,129.118 233.705,127.785 233.5,125.5C 233.232,123.901 233.566,122.568 234.5,121.5 Z"/></g>
<g><path style="opacity:1" fill="#6d64f3" d="M 245.5,119.5 C 245.5,120.167 245.5,120.833 245.5,121.5C 246.812,126.684 246.479,131.684 244.5,136.5C 244.5,136.833 244.5,137.167 244.5,137.5C 243.5,137.5 242.5,137.5 241.5,137.5C 239.824,136.817 239.157,135.483 239.5,133.5C 240.167,133.5 240.833,133.5 241.5,133.5C 243.029,127.068 242.029,120.901 238.5,115C 238.862,113.775 239.362,112.609 240,111.5C 241.115,114.753 242.949,117.42 245.5,119.5 Z"/></g>
<g><path style="opacity:0.99" fill="#a9868b" d="M 170.5,123.5 C 170.815,127.371 170.482,131.038 169.5,134.5C 168.699,132.958 168.366,131.292 168.5,129.5C 169.167,127.5 169.833,125.5 170.5,123.5 Z"/></g>
<g><path style="opacity:1" fill="#3f3c7e" d="M 241.5,133.5 C 240.833,133.5 240.167,133.5 239.5,133.5C 239.5,132.5 239.5,131.5 239.5,130.5C 239.369,129.624 239.702,128.957 240.5,128.5C 241.452,130.045 241.785,131.712 241.5,133.5 Z"/></g>
<g><path style="opacity:1" fill="#ececec" d="M 451.5,129.5 C 456.43,129.197 461.263,129.531 466,130.5C 466.336,134.689 466.836,138.856 467.5,143C 467.415,144.107 467.081,145.107 466.5,146C 461.136,146.829 455.802,146.663 450.5,145.5C 448.904,139.936 449.237,134.603 451.5,129.5 Z"/></g>
<g><path style="opacity:1" fill="#6f65f0" d="M 166.5,129.5 C 167.634,132.37 168.3,135.37 168.5,138.5C 168.5,141.5 168.5,144.5 168.5,147.5C 165.325,148.091 162.991,147.091 161.5,144.5C 160.013,140.217 158.679,135.884 157.5,131.5C 157.427,129.973 158.094,128.973 159.5,128.5C 162.083,127.062 164.417,127.396 166.5,129.5 Z"/></g>
<g><path style="opacity:0.816" fill="#9692dc" d="M 237.5,127.5 C 238.167,128.5 238.833,129.5 239.5,130.5C 239.5,131.5 239.5,132.5 239.5,133.5C 239.157,135.483 239.824,136.817 241.5,137.5C 240.791,138.404 239.791,138.737 238.5,138.5C 238.276,134.821 237.942,131.154 237.5,127.5 Z"/></g>
<g><path style="opacity:1" fill="#817ad9" d="M 417.5,130.5 C 418.468,132.607 418.802,134.941 418.5,137.5C 418.5,139.5 418.5,141.5 418.5,143.5C 418.167,143.5 417.833,143.5 417.5,143.5C 413.366,144.485 409.032,144.818 404.5,144.5C 404.5,139.833 404.5,135.167 404.5,130.5C 408.833,130.5 413.167,130.5 417.5,130.5 Z"/></g>
<g><path style="opacity:1" fill="#6b62f8" d="M 417.5,143.5 C 413.5,143.5 409.5,143.5 405.5,143.5C 405.5,139.5 405.5,135.5 405.5,131.5C 409.5,131.5 413.5,131.5 417.5,131.5C 417.5,135.5 417.5,139.5 417.5,143.5 Z"/></g>
<g><path style="opacity:0.981" fill="#a59ceb" d="M 428.5,144.5 C 428.5,144.167 428.5,143.833 428.5,143.5C 427.833,143.5 427.5,143.167 427.5,142.5C 426.921,138.763 426.921,135.096 427.5,131.5C 432,129.617 436.667,129.117 441.5,130C 442.469,134.737 442.803,139.57 442.5,144.5C 437.833,144.5 433.167,144.5 428.5,144.5 Z"/></g>
<g><path style="opacity:1" fill="#6c62f8" d="M 428.5,143.5 C 428.5,139.5 428.5,135.5 428.5,131.5C 432.5,131.5 436.5,131.5 440.5,131.5C 440.5,135.5 440.5,139.5 440.5,143.5C 436.5,143.5 432.5,143.5 428.5,143.5 Z"/></g>
<g><path style="opacity:1" fill="#46439f" d="M 161.5,134.5 C 162.496,134.414 163.329,134.748 164,135.5C 164.808,137.579 164.641,139.579 163.5,141.5C 161.829,139.49 161.162,137.157 161.5,134.5 Z"/></g>
<g><path style="opacity:1" fill="#55517f" d="M 157.5,131.5 C 158.679,135.884 160.013,140.217 161.5,144.5C 161.5,145.167 161.5,145.833 161.5,146.5C 156.595,142.459 155.262,137.459 157.5,131.5 Z"/></g>
<g><path style="opacity:1" fill="#edebfe" d="M 416.5,128.5 C 417.338,128.842 417.672,129.508 417.5,130.5C 413.167,130.5 408.833,130.5 404.5,130.5C 404.5,135.167 404.5,139.833 404.5,144.5C 409.032,144.818 413.366,144.485 417.5,143.5C 417.833,143.5 418.167,143.5 418.5,143.5C 418.586,144.496 418.252,145.329 417.5,146C 412.511,146.499 407.511,146.666 402.5,146.5C 402.303,140.455 402.637,134.455 403.5,128.5C 407.833,128.5 412.167,128.5 416.5,128.5 Z"/></g>
<g><path style="opacity:0.225" fill="#fafafa" d="M 474.5,129.5 C 479.762,129.195 484.928,129.529 490,130.5C 490.667,135.167 490.667,139.833 490,144.5C 489.626,145.416 489.126,146.25 488.5,147C 490.047,150.098 490.714,153.431 490.5,157C 490.333,159.5 490.167,162 490,164.5C 489.5,165 489,165.5 488.5,166C 484.922,165.972 481.422,166.139 478,166.5C 475.695,166.516 474.028,165.516 473,163.5C 469.299,151.878 473.466,146.545 485.5,147.5C 482.544,145.968 479.544,145.635 476.5,146.5C 475.522,146.023 474.689,145.357 474,144.5C 471.887,139.35 472.054,134.35 474.5,129.5 Z"/></g>
<g><path style="opacity:1" fill="#e6e6e5" d="M 475.5,130.5 C 479.833,130.5 484.167,130.5 488.5,130.5C 488.5,134.833 488.5,139.167 488.5,143.5C 484.167,143.5 479.833,143.5 475.5,143.5C 475.5,139.167 475.5,134.833 475.5,130.5 Z"/></g>
<g><path style="opacity:1" fill="#8b82de" d="M 168.5,138.5 C 168.833,138.5 169.167,138.5 169.5,138.5C 169.5,138.833 169.5,139.167 169.5,139.5C 169.263,140.791 169.596,141.791 170.5,142.5C 170.5,143.167 170.5,143.833 170.5,144.5C 170.5,145.5 170.5,146.5 170.5,147.5C 167.265,150.072 164.265,149.739 161.5,146.5C 161.5,145.833 161.5,145.167 161.5,144.5C 162.991,147.091 165.325,148.091 168.5,147.5C 168.5,144.5 168.5,141.5 168.5,138.5 Z"/></g>
<g><path style="opacity:0.776" fill="#aea5f2" d="M 455.5,148.5 C 458.579,148.26 461.579,148.593 464.5,149.5C 465.802,154.385 465.802,159.218 464.5,164C 452,167.5 447.5,163 451,150.5C 452.622,149.901 454.122,149.234 455.5,148.5 Z"/></g>
<g><path style="opacity:1" fill="#e6e6e5" d="M 475.5,149.5 C 479.833,149.5 484.167,149.5 488.5,149.5C 488.5,154.167 488.5,158.833 488.5,163.5C 484.167,163.5 479.833,163.5 475.5,163.5C 475.5,158.833 475.5,154.167 475.5,149.5 Z"/></g>
<g><path style="opacity:0.997" fill="#6b62f9" d="M 452.5,150.5 C 456.5,150.5 460.5,150.5 464.5,150.5C 464.5,154.5 464.5,158.5 464.5,162.5C 460.5,162.5 456.5,162.5 452.5,162.5C 452.5,158.5 452.5,154.5 452.5,150.5 Z"/></g>
<g><path style="opacity:1" fill="#867de9" d="M 428.5,149.5 C 433.032,149.182 437.366,149.515 441.5,150.5C 441.5,154.833 441.5,159.167 441.5,163.5C 436.833,163.5 432.167,163.5 427.5,163.5C 427.182,158.968 427.515,154.634 428.5,150.5C 428.5,150.167 428.5,149.833 428.5,149.5 Z"/></g>
<g><path style="opacity:1" fill="#3f3d55" d="M 205.5,167.5 C 234.24,167.175 262.907,167.509 291.5,168.5C 291.5,173.167 291.5,177.833 291.5,182.5C 291.5,184.167 291.5,185.833 291.5,187.5C 291.5,188.833 291.5,190.167 291.5,191.5C 292.147,222.057 291.48,252.391 289.5,282.5C 268.167,282.5 246.833,282.5 225.5,282.5C 224.508,290.316 224.174,298.316 224.5,306.5C 233.833,306.5 243.167,306.5 252.5,306.5C 312.167,306.5 371.833,306.5 431.5,306.5C 423.297,325.682 411.964,342.682 397.5,357.5C 379.167,357.5 360.833,357.5 342.5,357.5C 342.825,350.313 342.491,343.313 341.5,336.5C 340.833,333.833 339.167,332.167 336.5,331.5C 259.668,330.501 182.668,330.167 105.5,330.5C 97.4651,323.466 90.1317,315.799 83.5,307.5C 111.662,306.502 139.995,306.169 168.5,306.5C 174.833,306.5 181.167,306.5 187.5,306.5C 187.5,300.833 187.5,295.167 187.5,289.5C 187.5,287.167 187.5,284.833 187.5,282.5C 165.831,282.667 144.164,282.5 122.5,282C 122,281.5 121.5,281 121,280.5C 120.5,253.169 120.333,225.835 120.5,198.5C 120.181,188.251 120.514,178.084 121.5,168C 149.498,167.5 177.498,167.333 205.5,167.5 Z"/></g>
<g><path style="opacity:0.663" fill="#9e9ae6" d="M 451.5,169.5 C 453.641,168.837 455.975,168.503 458.5,168.5C 461.269,168.529 463.603,169.195 465.5,170.5C 465.167,170.5 464.833,170.5 464.5,170.5C 460.702,169.517 456.702,169.183 452.5,169.5C 452.167,169.5 451.833,169.5 451.5,169.5 Z"/></g>
<g><path style="opacity:1" fill="#8477e6" d="M 488.5,182.5 C 484.167,183.833 479.833,183.833 475.5,182.5C 475.5,178.167 475.5,173.833 475.5,169.5C 479.833,169.5 484.167,169.5 488.5,169.5C 488.5,173.833 488.5,178.167 488.5,182.5 Z"/></g>
<g><path style="opacity:1" fill="#6b62f8" d="M 452.5,169.5 C 456.702,169.183 460.702,169.517 464.5,170.5C 464.5,174.167 464.5,177.833 464.5,181.5C 460.5,181.5 456.5,181.5 452.5,181.5C 452.5,177.5 452.5,173.5 452.5,169.5 Z"/></g>
<g><path style="opacity:0.526" fill="#c4c1f8" d="M 488.5,182.5 C 488.5,178.167 488.5,173.833 488.5,169.5C 484.167,169.5 479.833,169.5 475.5,169.5C 475.5,173.833 475.5,178.167 475.5,182.5C 474.545,180.717 473.878,178.717 473.5,176.5C 474.269,173.885 474.603,171.219 474.5,168.5C 479.5,168.5 484.5,168.5 489.5,168.5C 489.819,173.363 489.486,178.03 488.5,182.5 Z"/></g>
<g><path style="opacity:1" fill="#6b62fb" d="M 476.5,170.5 C 480.167,170.5 483.833,170.5 487.5,170.5C 487.5,174.167 487.5,177.833 487.5,181.5C 483.802,181.448 480.135,181.114 476.5,180.5C 476.5,177.167 476.5,173.833 476.5,170.5 Z"/></g>
<g><path style="opacity:1" fill="#7368ef" d="M 291.5,168.5 C 294.187,168.336 296.854,168.503 299.5,169C 300.833,173.333 300.833,177.667 299.5,182C 296.854,182.497 294.187,182.664 291.5,182.5C 291.5,177.833 291.5,173.167 291.5,168.5 Z"/></g>
<g><path style="opacity:1" fill="#a69bec" d="M 451.5,169.5 C 451.833,169.5 452.167,169.5 452.5,169.5C 452.5,173.5 452.5,177.5 452.5,181.5C 456.5,181.5 460.5,181.5 464.5,181.5C 464.5,177.833 464.5,174.167 464.5,170.5C 464.833,170.5 465.167,170.5 465.5,170.5C 465.666,174.514 465.499,178.514 465,182.5C 451.828,186.919 447.328,182.585 451.5,169.5 Z"/></g>
<g><path style="opacity:1" fill="#9d96f1" d="M 291.5,187.5 C 294.385,187.194 297.052,187.527 299.5,188.5C 297.076,188.192 294.743,188.526 292.5,189.5C 292.863,190.183 293.196,190.85 293.5,191.5C 292.833,191.5 292.167,191.5 291.5,191.5C 291.5,190.167 291.5,188.833 291.5,187.5 Z"/></g>
<g><path style="opacity:0.647" fill="#c0b8ff" d="M 465.5,188.5 C 465.167,188.5 464.833,188.5 464.5,188.5C 460.5,188.5 456.5,188.5 452.5,188.5C 452.167,188.5 451.833,188.5 451.5,188.5C 456.143,186.041 460.81,186.041 465.5,188.5 Z"/></g>
<g><path style="opacity:1" fill="#6e64e6" d="M 299.5,188.5 C 299.802,191.059 299.468,193.393 298.5,195.5C 296.809,194.136 295.142,192.803 293.5,191.5C 293.196,190.85 292.863,190.183 292.5,189.5C 294.743,188.526 297.076,188.192 299.5,188.5 Z"/></g>
<g><path style="opacity:1" fill="#8c87da" d="M 299.5,188.5 C 300.473,190.948 300.806,193.615 300.5,196.5C 299.508,196.672 298.842,196.338 298.5,195.5C 299.468,193.393 299.802,191.059 299.5,188.5 Z"/></g>
<g><path style="opacity:1" fill="#f1f1f2" d="M 416.5,128.5 C 412.167,128.5 407.833,128.5 403.5,128.5C 402.637,134.455 402.303,140.455 402.5,146.5C 407.511,146.666 412.511,146.499 417.5,146C 418.252,145.329 418.586,144.496 418.5,143.5C 418.5,141.5 418.5,139.5 418.5,137.5C 420.308,137.491 421.975,137.991 423.5,139C 424.103,141.071 425.436,142.238 427.5,142.5C 427.5,143.167 427.833,143.5 428.5,143.5C 428.5,143.833 428.5,144.167 428.5,144.5C 427.167,146.167 427.167,147.833 428.5,149.5C 428.5,149.833 428.5,150.167 428.5,150.5C 427.515,154.634 427.182,158.968 427.5,163.5C 432.167,163.5 436.833,163.5 441.5,163.5C 441.5,159.167 441.5,154.833 441.5,150.5C 442.324,154.312 442.824,158.312 443,162.5C 444.751,164.49 445.751,166.823 446,169.5C 446.278,181.179 446.778,192.845 447.5,204.5C 446.465,208.877 446.965,213.21 449,217.5C 449.026,213.821 449.86,210.488 451.5,207.5C 451.5,211.833 451.5,216.167 451.5,220.5C 450.175,219.047 449.342,219.381 449,221.5C 449.593,251.374 443.76,279.707 431.5,306.5C 381.669,305.501 331.669,305.168 281.5,305.5C 291.204,302.07 301.204,299.237 311.5,297C 325.486,289.192 330.986,277.359 328,261.5C 322.221,248.575 316.721,235.575 311.5,222.5C 316.964,222.674 322.298,222.674 327.5,222.5C 325.571,219.775 325.071,216.775 326,213.5C 326.9,212.23 328.066,211.23 329.5,210.5C 328.675,209.614 327.675,209.281 326.5,209.5C 326.222,207.654 326.889,206.32 328.5,205.5C 329.524,206.853 330.857,207.52 332.5,207.5C 332.665,210.85 332.498,214.183 332,217.5C 331.174,215.595 330.007,215.261 328.5,216.5C 329.012,219.351 330.679,220.684 333.5,220.5C 338.167,221.833 342.833,221.833 347.5,220.5C 348.216,215.966 348.883,211.299 349.5,206.5C 343.994,204.183 338.327,203.849 332.5,205.5C 332.36,203.876 333.027,202.71 334.5,202C 332.1,201.814 329.766,201.314 327.5,200.5C 326.691,198.929 326.357,197.262 326.5,195.5C 327.5,195.5 328.5,195.5 329.5,195.5C 329.5,194.167 329.5,192.833 329.5,191.5C 328.167,191.5 326.833,191.5 325.5,191.5C 325.28,185.688 322.446,184.021 317,186.5C 314.761,185.909 312.594,185.242 310.5,184.5C 310.853,182.365 310.02,181.032 308,180.5C 304.931,181.875 304.764,183.541 307.5,185.5C 308.362,192.823 309.029,200.157 309.5,207.5C 309.5,210.833 309.5,214.167 309.5,217.5C 305.707,210.906 302.707,203.906 300.5,196.5C 300.806,193.615 300.473,190.948 299.5,188.5C 297.052,187.527 294.385,187.194 291.5,187.5C 291.5,185.833 291.5,184.167 291.5,182.5C 294.187,182.664 296.854,182.497 299.5,182C 300.833,177.667 300.833,173.333 299.5,169C 296.854,168.503 294.187,168.336 291.5,168.5C 262.907,167.509 234.24,167.175 205.5,167.5C 213.425,166.937 221.425,166.103 229.5,165C 234.654,155.855 239.654,146.688 244.5,137.5C 244.5,137.167 244.5,136.833 244.5,136.5C 246.446,135.965 247.446,134.632 247.5,132.5C 248.167,130.833 248.833,129.167 249.5,127.5C 249.834,124.812 249.168,122.479 247.5,120.5C 248.586,120.38 249.253,119.713 249.5,118.5C 252.578,104.942 255.078,91.275 257,77.5C 257.997,66.9989 262.497,58.4989 270.5,52C 291.696,37.7639 314.029,35.7639 337.5,46C 358.282,56.773 376.115,71.273 391,89.5C 400.929,101.59 409.429,114.59 416.5,128.5 Z M 264.5,130.5 C 268.437,130.207 272.27,130.54 276,131.5C 276.796,135.755 276.629,139.921 275.5,144C 263.239,146.668 259.573,142.168 264.5,130.5 Z"/></g>
<g><path style="opacity:1" fill="#817bd9" d="M 381.5,169.5 C 385.634,168.515 389.968,168.182 394.5,168.5C 394.5,173.167 394.5,177.833 394.5,182.5C 389.833,182.5 385.167,182.5 380.5,182.5C 380.182,177.968 380.515,173.634 381.5,169.5 Z"/></g>
<g><path style="opacity:1" fill="#6c62f9" d="M 381.5,169.5 C 385.5,169.5 389.5,169.5 393.5,169.5C 393.5,173.5 393.5,177.5 393.5,181.5C 389.5,181.5 385.5,181.5 381.5,181.5C 381.5,177.5 381.5,173.5 381.5,169.5 Z"/></g>
<g><path style="opacity:1" fill="#847cde" d="M 404.5,149.5 C 409.167,149.5 413.833,149.5 418.5,149.5C 418.5,154.167 418.5,158.833 418.5,163.5C 413.833,163.5 409.167,163.5 404.5,163.5C 404.5,158.833 404.5,154.167 404.5,149.5 Z"/></g>
<g><path style="opacity:1" fill="#6b62fa" d="M 405.5,150.5 C 409.5,150.5 413.5,150.5 417.5,150.5C 417.5,154.5 417.5,158.5 417.5,162.5C 413.5,162.5 409.5,162.5 405.5,162.5C 405.5,158.5 405.5,154.5 405.5,150.5 Z"/></g>
<g><path style="opacity:1" fill="#8278ea" d="M 309.5,149.5 C 314.167,149.5 318.833,149.5 323.5,149.5C 323.5,154.167 323.5,158.833 323.5,163.5C 318.833,163.5 314.167,163.5 309.5,163.5C 309.5,158.833 309.5,154.167 309.5,149.5 Z"/></g>
<g><path style="opacity:1" fill="#6c61fb" d="M 311.5,150.5 C 315.167,150.5 318.833,150.5 322.5,150.5C 322.5,154.5 322.5,158.5 322.5,162.5C 318.833,162.5 315.167,162.5 311.5,162.5C 311.222,159.71 311.889,157.21 313.5,155C 312.293,153.7 311.626,152.2 311.5,150.5 Z"/></g>
<g><path style="opacity:1" fill="#857cde" d="M 286.5,149.5 C 291.167,149.5 295.833,149.5 300.5,149.5C 300.5,154.167 300.5,158.833 300.5,163.5C 295.833,163.5 291.167,163.5 286.5,163.5C 286.5,158.833 286.5,154.167 286.5,149.5 Z"/></g>
<g><path style="opacity:1" fill="#6b62f8" d="M 428.5,150.5 C 432.5,150.5 436.5,150.5 440.5,150.5C 440.5,154.5 440.5,158.5 440.5,162.5C 436.5,162.5 432.5,162.5 428.5,162.5C 428.5,158.5 428.5,154.5 428.5,150.5 Z"/></g>
<g><path style="opacity:1" fill="#6c62f8" d="M 287.5,150.5 C 291.5,150.5 295.5,150.5 299.5,150.5C 299.5,154.5 299.5,158.5 299.5,162.5C 295.5,162.5 291.5,162.5 287.5,162.5C 287.5,158.5 287.5,154.5 287.5,150.5 Z"/></g>
<g><path style="opacity:1" fill="#6f65e1" d="M 323.5,143.5 C 319.167,144.833 314.833,144.833 310.5,143.5C 308.345,132.658 312.678,128.658 323.5,131.5C 323.5,135.5 323.5,139.5 323.5,143.5 Z"/></g>
<g><path style="opacity:1" fill="#847cde" d="M 346.5,143.5 C 342.366,144.485 338.032,144.818 333.5,144.5C 333.5,139.833 333.5,135.167 333.5,130.5C 338.167,130.5 342.833,130.5 347.5,130.5C 347.818,135.032 347.485,139.366 346.5,143.5 Z"/></g>
<g><path style="opacity:1" fill="#6b62f9" d="M 346.5,143.5 C 342.5,143.5 338.5,143.5 334.5,143.5C 334.5,139.5 334.5,135.5 334.5,131.5C 338.5,131.5 342.5,131.5 346.5,131.5C 346.5,135.5 346.5,139.5 346.5,143.5 Z"/></g>
<g><path style="opacity:1" fill="#9a93e5" d="M 323.5,143.5 C 323.5,139.5 323.5,135.5 323.5,131.5C 312.678,128.658 308.345,132.658 310.5,143.5C 309.515,139.366 309.182,135.032 309.5,130.5C 314.5,130.5 319.5,130.5 324.5,130.5C 324.818,135.032 324.485,139.366 323.5,143.5 Z"/></g>
<g><path style="opacity:1" fill="#6c62fd" d="M 313.5,132.5 C 316.5,132.5 319.5,132.5 322.5,132.5C 322.5,135.833 322.5,139.167 322.5,142.5C 318.833,142.5 315.167,142.5 311.5,142.5C 311.034,138.838 311.701,135.505 313.5,132.5 Z"/></g>
<g><path style="opacity:1" fill="#756bec" d="M 370.5,188.5 C 371.485,192.634 371.818,196.968 371.5,201.5C 366.833,201.5 362.167,201.5 357.5,201.5C 357.5,197.167 357.5,192.833 357.5,188.5C 361.833,188.5 366.167,188.5 370.5,188.5 Z"/></g>
<g><path style="opacity:1" fill="#6c61fd" d="M 359.5,189.5 C 360.552,189.351 361.552,189.517 362.5,190C 366.386,192.674 368.72,196.174 369.5,200.5C 365.833,200.5 362.167,200.5 358.5,200.5C 358.244,196.731 358.577,193.064 359.5,189.5 Z"/></g>
<g><path style="opacity:0.763" fill="#f1f1f1" d="M 483.5,185.5 C 486.547,184.855 488.713,185.855 490,188.5C 490.667,192.833 490.667,197.167 490,201.5C 489.311,202.357 488.478,203.023 487.5,203.5C 483.833,202.167 480.167,202.167 476.5,203.5C 474.364,202.528 473.197,200.861 473,198.5C 470.964,189.387 474.464,185.054 483.5,185.5 Z"/></g>
<g><path style="opacity:1" fill="#bebbfa" d="M 370.5,188.5 C 366.167,188.5 361.833,188.5 357.5,188.5C 357.5,192.833 357.5,197.167 357.5,201.5C 356.514,197.03 356.181,192.363 356.5,187.5C 361.363,187.181 366.03,187.514 370.5,188.5 Z"/></g>
<g><path style="opacity:1" fill="#c9c9ca" d="M 120.5,198.5 C 120.333,225.835 120.5,253.169 121,280.5C 121.5,281 122,281.5 122.5,282C 144.164,282.5 165.831,282.667 187.5,282.5C 187.5,284.833 187.5,287.167 187.5,289.5C 182.693,289.481 178.027,288.981 173.5,288C 171.818,293.672 171.151,299.506 171.5,305.5C 170.209,305.263 169.209,305.596 168.5,306.5C 139.995,306.169 111.662,306.502 83.5,307.5C 82.6618,307.158 82.3284,306.492 82.5,305.5C 89.8409,305.666 97.1742,305.5 104.5,305C 92.9669,296.755 88.4669,285.588 91,271.5C 94.6782,257.787 98.5116,244.12 102.5,230.5C 104.198,222.707 106.365,215.041 109,207.5C 111.565,202.757 115.398,199.757 120.5,198.5 Z"/></g>
<g><path style="opacity:1" fill="#8177e8" d="M 428.5,187.5 C 432.833,187.5 437.167,187.5 441.5,187.5C 441.5,192.167 441.5,196.833 441.5,201.5C 436.833,201.5 432.167,201.5 427.5,201.5C 427.226,196.737 427.559,192.07 428.5,187.5 Z"/></g>
<g><path style="opacity:1" fill="#6c62fc" d="M 430.5,188.5 C 432.143,188.48 433.476,189.147 434.5,190.5C 436.371,189.233 438.204,189.233 440,190.5C 440.498,193.817 440.665,197.15 440.5,200.5C 436.833,200.5 433.167,200.5 429.5,200.5C 429.237,196.4 429.57,192.4 430.5,188.5 Z"/></g>
<g><path style="opacity:0.985" fill="#a095ed" d="M 451.5,188.5 C 451.833,188.5 452.167,188.5 452.5,188.5C 452.5,192.5 452.5,196.5 452.5,200.5C 456.5,200.5 460.5,200.5 464.5,200.5C 464.5,196.5 464.5,192.5 464.5,188.5C 464.833,188.5 465.167,188.5 465.5,188.5C 465.666,192.846 465.499,197.179 465,201.5C 451.828,205.919 447.328,201.585 451.5,188.5 Z"/></g>
<g><path style="opacity:0.998" fill="#6b61f9" d="M 452.5,188.5 C 456.5,188.5 460.5,188.5 464.5,188.5C 464.5,192.5 464.5,196.5 464.5,200.5C 460.5,200.5 456.5,200.5 452.5,200.5C 452.5,196.5 452.5,192.5 452.5,188.5 Z"/></g>
<g><path style="opacity:1" fill="#675ecf" d="M 216.5,205.5 C 210.726,202.144 204.392,200.81 197.5,201.5C 197.918,200.778 198.584,200.278 199.5,200C 204.375,199.193 209.042,199.859 213.5,202C 214.71,203.039 215.71,204.206 216.5,205.5 Z"/></g>
<g><path style="opacity:1" fill="#c9c9c9" d="M 291.5,191.5 C 292.167,191.5 292.833,191.5 293.5,191.5C 295.142,192.803 296.809,194.136 298.5,195.5C 298.842,196.338 299.508,196.672 300.5,196.5C 302.707,203.906 305.707,210.906 309.5,217.5C 309.232,219.099 309.566,220.432 310.5,221.5C 310.5,222.167 310.833,222.5 311.5,222.5C 316.721,235.575 322.221,248.575 328,261.5C 330.986,277.359 325.486,289.192 311.5,297C 301.204,299.237 291.204,302.07 281.5,305.5C 272.808,305.831 264.141,305.498 255.5,304.5C 253.448,297.889 251.781,291.389 250.5,285C 263.212,284.186 275.879,284.353 288.5,285.5C 291.259,284.286 291.592,283.286 289.5,282.5C 291.48,252.391 292.147,222.057 291.5,191.5 Z"/></g>
<g><path style="opacity:1" fill="#ebeaf9" d="M 347.5,220.5 C 347.5,216.167 347.5,211.833 347.5,207.5C 342.833,207.5 338.167,207.5 333.5,207.5C 333.5,211.833 333.5,216.167 333.5,220.5C 330.679,220.684 329.012,219.351 328.5,216.5C 330.007,215.261 331.174,215.595 332,217.5C 332.498,214.183 332.665,210.85 332.5,207.5C 330.857,207.52 329.524,206.853 328.5,205.5C 326.889,206.32 326.222,207.654 326.5,209.5C 327.675,209.281 328.675,209.614 329.5,210.5C 328.066,211.23 326.9,212.23 326,213.5C 325.071,216.775 325.571,219.775 327.5,222.5C 322.298,222.674 316.964,222.674 311.5,222.5C 310.833,222.5 310.5,222.167 310.5,221.5C 315.032,221.818 319.366,221.485 323.5,220.5C 323.5,216.167 323.5,211.833 323.5,207.5C 319.167,207.5 314.833,207.5 310.5,207.5C 310.167,207.5 309.833,207.5 309.5,207.5C 309.029,200.157 308.362,192.823 307.5,185.5C 304.764,183.541 304.931,181.875 308,180.5C 310.02,181.032 310.853,182.365 310.5,184.5C 312.594,185.242 314.761,185.909 317,186.5C 322.446,184.021 325.28,185.688 325.5,191.5C 326.833,191.5 328.167,191.5 329.5,191.5C 329.5,192.833 329.5,194.167 329.5,195.5C 328.5,195.5 327.5,195.5 326.5,195.5C 326.357,197.262 326.691,198.929 327.5,200.5C 329.766,201.314 332.1,201.814 334.5,202C 333.027,202.71 332.36,203.876 332.5,205.5C 338.327,203.849 343.994,204.183 349.5,206.5C 348.883,211.299 348.216,215.966 347.5,220.5 Z"/></g>
<g><path style="opacity:1" fill="#7e73e5" d="M 310.5,187.5 C 314.833,187.5 319.167,187.5 323.5,187.5C 323.5,192.167 323.5,196.833 323.5,201.5C 318.833,201.5 314.167,201.5 309.5,201.5C 309.226,196.737 309.559,192.07 310.5,187.5 Z"/></g>
<g><path style="opacity:1" fill="#6b62fb" d="M 317.5,188.5 C 318.93,188.421 320.264,188.754 321.5,189.5C 322.586,193.155 322.586,196.822 321.5,200.5C 318.167,200.5 314.833,200.5 311.5,200.5C 311.5,196.833 311.5,193.167 311.5,189.5C 313.735,189.795 315.735,189.461 317.5,188.5 Z"/></g>
<g><path style="opacity:1" fill="#6b62fb" d="M 197.5,201.5 C 204.392,200.81 210.726,202.144 216.5,205.5C 216.833,205.5 217.167,205.5 217.5,205.5C 220.24,211.805 220.074,218.139 217,224.5C 215.568,226.439 213.735,227.772 211.5,228.5C 209.738,228.357 208.071,228.691 206.5,229.5C 205.452,228.617 204.285,227.95 203,227.5C 200.88,228.459 198.713,228.626 196.5,228C 195.663,226.989 195.33,225.822 195.5,224.5C 194.5,224.5 193.5,224.5 192.5,224.5C 192.741,221.966 191.741,220.3 189.5,219.5C 189.5,219.167 189.5,218.833 189.5,218.5C 189.782,214.426 190.448,210.426 191.5,206.5C 192.638,203.914 194.638,202.247 197.5,201.5 Z"/></g>
<g><path style="opacity:1" fill="#8177e3" d="M 404.5,207.5 C 409.167,207.5 413.833,207.5 418.5,207.5C 418.666,211.846 418.499,216.179 418,220.5C 413.599,221.467 409.099,221.8 404.5,221.5C 404.5,216.833 404.5,212.167 404.5,207.5 Z"/></g>
<g><path style="opacity:0.989" fill="#eaeaea" d="M 451.5,220.5 C 451.5,216.167 451.5,211.833 451.5,207.5C 452.681,205.933 454.347,205.099 456.5,205C 463.407,202.94 466.74,205.44 466.5,212.5C 466.583,215.54 465.916,218.373 464.5,221C 459.98,221.814 455.646,221.647 451.5,220.5 Z"/></g>
<g><path style="opacity:0.998" fill="#ebebeb" d="M 475.5,205.5 C 480.214,205.173 484.88,205.507 489.5,206.5C 493.368,221.462 488.201,225.795 474,219.5C 473.034,214.61 473.534,209.943 475.5,205.5 Z"/></g>
<g><path style="opacity:1" fill="#6b62fc" d="M 405.5,208.5 C 409.167,208.5 412.833,208.5 416.5,208.5C 416.5,212.167 416.5,215.833 416.5,219.5C 412.833,219.5 409.167,219.5 405.5,219.5C 405.5,215.833 405.5,212.167 405.5,208.5 Z"/></g>
<g><path style="opacity:1" fill="#6761cb" d="M 191.5,206.5 C 190.448,210.426 189.782,214.426 189.5,218.5C 188.366,216.034 188.199,213.367 189,210.5C 189.2,208.68 190.034,207.347 191.5,206.5 Z"/></g>
<g><path style="opacity:1" fill="#6b63f2" d="M 310.5,207.5 C 314.833,207.5 319.167,207.5 323.5,207.5C 323.5,211.833 323.5,216.167 323.5,220.5C 319.167,220.5 314.833,220.5 310.5,220.5C 310.5,216.167 310.5,211.833 310.5,207.5 Z"/></g>
<g><path style="opacity:1" fill="#877de7" d="M 347.5,220.5 C 342.833,221.833 338.167,221.833 333.5,220.5C 333.5,216.167 333.5,211.833 333.5,207.5C 338.167,207.5 342.833,207.5 347.5,207.5C 347.5,211.833 347.5,216.167 347.5,220.5 Z"/></g>
<g><path style="opacity:1" fill="#6b62fa" d="M 334.5,208.5 C 338.5,208.5 342.5,208.5 346.5,208.5C 346.5,212.167 346.5,215.833 346.5,219.5C 342.5,219.5 338.5,219.5 334.5,219.5C 334.5,215.833 334.5,212.167 334.5,208.5 Z"/></g>
<g><path style="opacity:1" fill="#8178e5" d="M 427.5,207.5 C 432.167,207.5 436.833,207.5 441.5,207.5C 441.5,212.167 441.5,216.833 441.5,221.5C 437.154,221.666 432.821,221.499 428.5,221C 427.533,216.599 427.2,212.099 427.5,207.5 Z"/></g>
<g><path style="opacity:1" fill="#6b62fc" d="M 429.5,208.5 C 433.167,208.5 436.833,208.5 440.5,208.5C 440.5,212.167 440.5,215.833 440.5,219.5C 436.833,219.5 433.167,219.5 429.5,219.5C 429.5,215.833 429.5,212.167 429.5,208.5 Z"/></g>
<g><path style="opacity:1" fill="#b9b3fd" d="M 309.5,207.5 C 309.833,207.5 310.167,207.5 310.5,207.5C 310.5,211.833 310.5,216.167 310.5,220.5C 314.833,220.5 319.167,220.5 323.5,220.5C 319.366,221.485 315.032,221.818 310.5,221.5C 309.566,220.432 309.232,219.099 309.5,217.5C 309.5,214.167 309.5,210.833 309.5,207.5 Z"/></g>
<g><path style="opacity:1" fill="#474487" d="M 217.5,205.5 C 218.458,205.953 219.292,206.619 220,207.5C 220.667,212.833 220.667,218.167 220,223.5C 217.499,226.848 214.332,229.182 210.5,230.5C 210.833,229.833 211.167,229.167 211.5,228.5C 213.735,227.772 215.568,226.439 217,224.5C 220.074,218.139 220.24,211.805 217.5,205.5 Z"/></g>
<g><path style="opacity:1" fill="#6b61e6" d="M 189.5,219.5 C 191.741,220.3 192.741,221.966 192.5,224.5C 193.5,224.5 194.5,224.5 195.5,224.5C 195.33,225.822 195.663,226.989 196.5,228C 198.713,228.626 200.88,228.459 203,227.5C 204.285,227.95 205.452,228.617 206.5,229.5C 208.071,228.691 209.738,228.357 211.5,228.5C 211.167,229.167 210.833,229.833 210.5,230.5C 199.922,233.38 192.922,229.713 189.5,219.5 Z"/></g>
<g><path style="opacity:0.999" fill="#f2f2f2" d="M 102.5,230.5 C 98.5116,244.12 94.6782,257.787 91,271.5C 88.4669,285.588 92.9669,296.755 104.5,305C 97.1742,305.5 89.8409,305.666 82.5,305.5C 71.3907,293.959 63.8907,280.292 60,264.5C 58.4903,250.02 64.657,240.52 78.5,236C 86.6114,234.346 94.6114,232.513 102.5,230.5 Z"/></g>
<g><path style="opacity:1" fill="#cac5cb" d="M 225.5,282.5 C 246.833,282.5 268.167,282.5 289.5,282.5C 291.592,283.286 291.259,284.286 288.5,285.5C 275.879,284.353 263.212,284.186 250.5,285C 251.781,291.389 253.448,297.889 255.5,304.5C 264.141,305.498 272.808,305.831 281.5,305.5C 331.669,305.168 381.669,305.501 431.5,306.5C 371.833,306.5 312.167,306.5 252.5,306.5C 252.5,305.833 252.167,305.5 251.5,305.5C 252.018,304.423 252.352,303.256 252.5,302C 251.958,296.526 250.624,291.359 248.5,286.5C 240.706,288.366 233.039,290.699 225.5,293.5C 225.5,289.833 225.5,286.167 225.5,282.5 Z"/></g>
<g><path style="opacity:1" fill="#fbb7b8" d="M 251.5,305.5 C 242.833,305.5 234.167,305.5 225.5,305.5C 225.5,301.5 225.5,297.5 225.5,293.5C 233.039,290.699 240.706,288.366 248.5,286.5C 250.624,291.359 251.958,296.526 252.5,302C 252.352,303.256 252.018,304.423 251.5,305.5 Z"/></g>
<g><path style="opacity:1" fill="#f7b6b8" d="M 187.5,289.5 C 187.5,295.167 187.5,300.833 187.5,306.5C 181.167,306.5 174.833,306.5 168.5,306.5C 169.209,305.596 170.209,305.263 171.5,305.5C 171.151,299.506 171.818,293.672 173.5,288C 178.027,288.981 182.693,289.481 187.5,289.5 Z"/></g>
<g><path style="opacity:1" fill="#b3909c" d="M 225.5,282.5 C 225.5,286.167 225.5,289.833 225.5,293.5C 225.5,297.5 225.5,301.5 225.5,305.5C 234.167,305.5 242.833,305.5 251.5,305.5C 252.167,305.5 252.5,305.833 252.5,306.5C 243.167,306.5 233.833,306.5 224.5,306.5C 224.174,298.316 224.508,290.316 225.5,282.5 Z"/></g>
<g><path style="opacity:1" fill="#c7c7c8" d="M 105.5,330.5 C 182.668,330.167 259.668,330.501 336.5,331.5C 314.49,331.167 292.49,331.5 270.5,332.5C 266.979,340.557 268.313,347.39 274.5,353C 273.503,354.596 272.337,356.096 271,357.5C 270.172,361.466 269.672,365.466 269.5,369.5C 268.596,370.209 268.263,371.209 268.5,372.5C 232.329,372.168 196.329,372.502 160.5,373.5C 155.522,371.009 150.855,368.009 146.5,364.5C 146.436,358.746 147.102,353.08 148.5,347.5C 148.341,344.157 147.008,341.324 144.5,339C 145.115,336.485 146.115,334.152 147.5,332C 133.837,331.5 120.171,331.333 106.5,331.5C 105.833,331.5 105.5,331.167 105.5,330.5 Z"/></g>
<g><path style="opacity:0.998" fill="#f2f2f2" d="M 106.5,331.5 C 120.171,331.333 133.837,331.5 147.5,332C 146.115,334.152 145.115,336.485 144.5,339C 147.008,341.324 148.341,344.157 148.5,347.5C 147.102,353.08 146.436,358.746 146.5,364.5C 132.39,354.445 119.057,343.445 106.5,331.5 Z"/></g>
<g><path style="opacity:0.999" fill="#f2f2f2" d="M 336.5,331.5 C 339.167,332.167 340.833,333.833 341.5,336.5C 341.17,356.674 341.503,376.674 342.5,396.5C 332.822,401.785 322.489,405.619 311.5,408C 298.32,410.981 284.987,412.814 271.5,413.5C 271.667,399.163 271.5,384.829 271,370.5C 270.617,369.944 270.117,369.611 269.5,369.5C 269.672,365.466 270.172,361.466 271,357.5C 272.337,356.096 273.503,354.596 274.5,353C 268.313,347.39 266.979,340.557 270.5,332.5C 292.49,331.5 314.49,331.167 336.5,331.5 Z"/></g>
<g><path style="opacity:1" fill="#fdfdfe" d="M 396.5,358.5 C 395.404,361.386 393.404,363.386 390.5,364.5C 374.675,363.504 358.675,363.17 342.5,363.5C 342.5,361.833 342.5,360.167 342.5,358.5C 360.5,358.5 378.5,358.5 396.5,358.5 Z"/></g>
<g><path style="opacity:1" fill="#a4a2ae" d="M 341.5,336.5 C 342.491,343.313 342.825,350.313 342.5,357.5C 360.833,357.5 379.167,357.5 397.5,357.5C 397.5,358.167 397.167,358.5 396.5,358.5C 378.5,358.5 360.5,358.5 342.5,358.5C 342.5,360.167 342.5,361.833 342.5,363.5C 358.675,363.17 374.675,363.504 390.5,364.5C 390.5,365.167 390.167,365.5 389.5,365.5C 374.009,364.504 358.342,364.17 342.5,364.5C 342.5,375.167 342.5,385.833 342.5,396.5C 341.503,376.674 341.17,356.674 341.5,336.5 Z"/></g>
<g><path style="opacity:1" fill="#403e55" d="M 389.5,365.5 C 375.727,378.563 360.061,388.897 342.5,396.5C 342.5,385.833 342.5,375.167 342.5,364.5C 358.342,364.17 374.009,364.504 389.5,365.5 Z"/></g>
<g><path style="opacity:1" fill="#313041" d="M 269.5,369.5 C 270.117,369.611 270.617,369.944 271,370.5C 271.5,384.829 271.667,399.163 271.5,413.5C 240.49,411.998 211.49,403.498 184.5,388C 176.27,383.392 168.27,378.559 160.5,373.5C 196.329,372.502 232.329,372.168 268.5,372.5C 268.263,371.209 268.596,370.209 269.5,369.5 Z"/></g>
</svg>
