<?xml version="1.0" encoding="UTF-8"?>
<!DOCTYPE svg PUBLIC "-//W3C//DTD SVG 1.1//EN" "http://www.w3.org/Graphics/SVG/1.1/DTD/svg11.dtd">
<svg xmlns="http://www.w3.org/2000/svg" version="1.1" width="96px" height="96px" style="shape-rendering:geometricPrecision; text-rendering:geometricPrecision; image-rendering:optimizeQuality; fill-rule:evenodd; clip-rule:evenodd" xmlns:xlink="http://www.w3.org/1999/xlink">
<g><path style="opacity:0.981" fill="#3865af" d="M 37.5,2.5 C 48.1035,0.847196 57.7702,3.01386 66.5,9C 74.6501,15.8168 82.1501,23.3168 89,31.5C 93.6325,41.7706 93.6325,52.1039 89,62.5C 81.1202,74.7134 70.9535,84.5467 58.5,92C 49.0709,94.4909 40.0709,93.4909 31.5,89C 19.6193,81.4529 10.1193,71.6195 3,59.5C 0.325453,49.2268 1.65879,39.5601 7,30.5C 15.1177,18.8801 25.2843,9.54681 37.5,2.5 Z"/></g>
<g><path style="opacity:1" fill="#e8edf5" d="M 31.5,19.5 C 37.7162,19.525 42.8829,21.8584 47,26.5C 61.619,14.7325 68.2856,18.3991 67,37.5C 71.3106,38.8219 74.9773,41.1553 78,44.5C 78.0386,51.976 74.2052,56.3094 66.5,57.5C 69.158,76.5461 62.8247,80.5461 47.5,69.5C 32.7693,80.4099 26.436,76.9099 28.5,59C 22.0397,57.363 17.7064,53.5297 15.5,47.5C 15.4062,45.0884 16.4062,43.255 18.5,42C 21.4799,39.676 24.8133,38.176 28.5,37.5C 26.3581,30.8364 27.3581,24.8364 31.5,19.5 Z"/></g>
<g><path style="opacity:1" fill="#416bb2" d="M 64.5,40.5 C 69.967,40.5532 73.6337,43.0532 75.5,48C 73.3382,52.4348 69.6715,54.9348 64.5,55.5C 64.0761,52.646 63.0761,49.9793 61.5,47.5C 62.9518,45.3585 63.9518,43.0252 64.5,40.5 Z"/></g>
<g><path style="opacity:1" fill="#406bb2" d="M 25.5,40.5 C 27.1667,40.5 28.8333,40.5 30.5,40.5C 30.4621,43.1813 31.1287,45.6813 32.5,48C 31.9251,55.6092 28.5918,57.2759 22.5,53C 19.4203,51.2894 18.2536,48.7894 19,45.5C 21.3256,43.9343 23.4922,42.2676 25.5,40.5 Z"/></g>
<g><path style="opacity:1" fill="#446eb3" d="M 57.5,38.5 C 61.5362,38.5724 62.3696,40.2391 60,43.5C 58.6283,42.0899 57.795,40.4233 57.5,38.5 Z"/></g>
<g><path style="opacity:1" fill="#4d74b6" d="M 32.5,38.5 C 38.3207,37.7509 38.9874,39.4176 34.5,43.5C 33.438,41.9783 32.7713,40.3117 32.5,38.5 Z"/></g>
<g><path style="opacity:1" fill="#416cb2" d="M 41.5,37.5 C 45.5546,37.1758 49.5546,37.5091 53.5,38.5C 55.2995,41.2672 56.9662,44.1006 58.5,47C 57.2895,50.5488 55.6229,53.8821 53.5,57C 44.0564,59.9162 38.3897,56.7495 36.5,47.5C 37.6502,43.8662 39.3169,40.5329 41.5,37.5 Z"/></g>
<g><path style="opacity:1" fill="#f4f6fa" d="M 43.5,42.5 C 52.8645,41.9358 54.8645,45.4358 49.5,53C 44.8421,54.1868 42.1755,52.3535 41.5,47.5C 41.9024,45.6998 42.5691,44.0332 43.5,42.5 Z"/></g>
<g><path style="opacity:1" fill="#446db3" d="M 45.5,31.5 C 47.3464,31.2222 48.6798,31.8888 49.5,33.5C 47.9255,34.6309 46.2588,34.7975 44.5,34C 45.2524,33.3292 45.5858,32.4959 45.5,31.5 Z"/></g>
<g><path style="opacity:1" fill="#406bb2" d="M 56.5,22.5 C 58.604,22.2011 60.604,22.5344 62.5,23.5C 63.4386,27.7649 63.7719,32.0983 63.5,36.5C 56.768,37.3298 52.1013,34.6631 49.5,28.5C 51.8528,26.4773 54.1862,24.4773 56.5,22.5 Z"/></g>
<g><path style="opacity:1" fill="#436cb3" d="M 32.5,22.5 C 37.1021,22.384 40.9354,24.0507 44,27.5C 43.9122,30.6422 42.4122,33.1422 39.5,35C 37.1093,35.2868 34.7759,35.7868 32.5,36.5C 31.914,36.2907 31.414,35.9574 31,35.5C 29.9784,30.8711 30.4784,26.5377 32.5,22.5 Z"/></g>
<g><path style="opacity:1" fill="#5177b8" d="M 33.5,52.5 C 35.7012,52.8584 37.0345,54.1917 37.5,56.5C 33.1459,58.1459 31.8126,56.8126 33.5,52.5 Z"/></g>
<g><path style="opacity:1" fill="#5176b8" d="M 59.5,51.5 C 60.9473,52.6222 61.9473,54.1222 62.5,56C 60.5527,56.9913 58.5527,57.3247 56.5,57C 57.7577,55.2591 58.7577,53.4258 59.5,51.5 Z"/></g>
<g><path style="opacity:1" fill="#3c68b0" d="M 57.5,59.5 C 59.5,59.5 61.5,59.5 63.5,59.5C 63.6655,63.5138 63.4988,67.5138 63,71.5C 57.3875,73.5933 52.8875,72.0933 49.5,67C 51.4324,63.5627 54.0991,61.0627 57.5,59.5 Z"/></g>
<g><path style="opacity:1" fill="#406bb2" d="M 30.5,59.5 C 33.8394,59.8897 37.1727,60.3897 40.5,61C 41.7899,63.292 43.4565,65.292 45.5,67C 41.8268,71.3358 37.1601,73.1691 31.5,72.5C 30.7051,68.2147 30.3718,63.8814 30.5,59.5 Z"/></g>
<g><path style="opacity:1" fill="#597dbb" d="M 43.5,61.5 C 45.6934,60.2031 48.0268,60.2031 50.5,61.5C 49.8333,62.8333 48.8333,63.8333 47.5,64.5C 46.1482,63.4756 44.8149,62.4756 43.5,61.5 Z"/></g>
</svg>
