<?xml version="1.0" encoding="UTF-8"?>
<!DOCTYPE svg PUBLIC "-//W3C//DTD SVG 1.1//EN" "http://www.w3.org/Graphics/SVG/1.1/DTD/svg11.dtd">
<svg xmlns="http://www.w3.org/2000/svg" version="1.1" width="300px" height="285px" style="shape-rendering:geometricPrecision; text-rendering:geometricPrecision; image-rendering:optimizeQuality; fill-rule:evenodd; clip-rule:evenodd" xmlns:xlink="http://www.w3.org/1999/xlink">
<g><path style="opacity:1" fill="#764abc" d="M 133.5,-0.5 C 142.167,-0.5 150.833,-0.5 159.5,-0.5C 192.222,9.39451 213.056,31.0612 222,64.5C 224.394,73.9368 226.227,83.4368 227.5,93C 225.833,93.6667 224.167,93.6667 222.5,93C 217.293,90.9858 211.96,89.4858 206.5,88.5C 204.319,65.7617 195.319,46.2617 179.5,30C 165.471,18.7946 149.804,15.7946 132.5,21C 111.676,27.1552 97.1762,40.3219 89,60.5C 73.7425,101.978 76.9092,141.978 98.5,180.5C 113.762,181.27 122.428,189.103 124.5,204C 121.863,220.5 112.196,227.5 95.5,225C 81.7074,218.464 77.374,207.964 82.5,193.5C 59.9705,155.292 53.8039,114.626 64,71.5C 73.615,34.057 96.7817,10.057 133.5,-0.5 Z"/></g>
<g><path style="opacity:1" fill="#764abc" d="M 299.5,198.5 C 299.5,207.833 299.5,217.167 299.5,226.5C 293.391,251.129 278.391,268.295 254.5,278C 246.537,280.822 238.537,282.988 230.5,284.5C 223.167,284.5 215.833,284.5 208.5,284.5C 195.2,282.294 182.2,278.628 169.5,273.5C 169.281,272.325 169.614,271.325 170.5,270.5C 176.273,266.528 181.773,262.195 187,257.5C 205.193,265.687 224.026,267.52 243.5,263C 273.04,250.754 284.873,228.92 279,197.5C 272.961,178.126 262.128,161.96 246.5,149C 217.804,126.269 185.137,116.102 148.5,118.5C 140.64,130.216 130.307,133.049 117.5,127C 107.901,119.959 105.068,110.792 109,99.5C 116.369,86.391 126.869,82.891 140.5,89C 143.833,91 146.5,93.6667 148.5,97C 203.327,95.8 247.827,116.3 282,158.5C 290.327,170.813 296.16,184.147 299.5,198.5 Z"/></g>
<g><path style="opacity:1" fill="#764abc" d="M -0.5,221.5 C -0.5,213.833 -0.5,206.167 -0.5,198.5C 5.06724,170.747 19.4006,148.58 42.5,132C 43.448,131.517 44.448,131.351 45.5,131.5C 47.0051,138.492 48.1718,145.492 49,152.5C 26.7733,168.952 16.44,190.952 18,218.5C 26.0016,249.195 46.0016,264.195 78,263.5C 114.745,260.293 145.745,245.293 171,218.5C 177.946,210.219 184.112,201.386 189.5,192C 183.936,185.861 182.103,178.694 184,170.5C 188.468,158.844 196.968,153.677 209.5,155C 220.664,158.159 226.664,165.493 227.5,177C 226.314,189.354 219.647,196.854 207.5,199.5C 180.15,251.451 136.983,279.451 78,283.5C 57.4042,283.301 38.9042,277.135 22.5,265C 9.82182,253.119 2.15515,238.619 -0.5,221.5 Z"/></g>
</svg>
