<?xml version="1.0" encoding="UTF-8"?>
<!DOCTYPE svg PUBLIC "-//W3C//DTD SVG 1.1//EN" "http://www.w3.org/Graphics/SVG/1.1/DTD/svg11.dtd">
<svg xmlns="http://www.w3.org/2000/svg" version="1.1" width="144px" height="141px" style="shape-rendering:geometricPrecision; text-rendering:geometricPrecision; image-rendering:optimizeQuality; fill-rule:evenodd; clip-rule:evenodd" xmlns:xlink="http://www.w3.org/1999/xlink">
<g><path style="opacity:1" fill="#f4f4f4" d="M 57.5,-0.5 C 65.8333,-0.5 74.1667,-0.5 82.5,-0.5C 108.741,5.06814 126.741,20.4015 136.5,45.5C 136.41,48.1522 137.076,50.4855 138.5,52.5C 145.334,84.8286 135.334,110.662 108.5,130C 99.3833,135.424 89.7166,138.924 79.5,140.5C 73.1667,140.5 66.8333,140.5 60.5,140.5C 27.7887,134.121 7.45532,114.787 -0.5,82.5C -0.5,74.1667 -0.5,65.8333 -0.5,57.5C 7.18136,26.4853 26.5147,7.15197 57.5,-0.5 Z M 73.5,22.5 C 77.145,21.6797 79.4783,23.013 80.5,26.5C 78.7051,30.6068 76.2051,31.2734 73,28.5C 72.3224,26.4024 72.4891,24.4024 73.5,22.5 Z M 89.5,36.5 C 94.0119,36.8689 95.5119,39.2022 94,43.5C 90.1868,46.5886 87.6868,45.7552 86.5,41C 86.5572,38.7911 87.5572,37.2911 89.5,36.5 Z M 80.5,42.5 C 78.8583,44.0808 76.8583,44.7475 74.5,44.5C 72.3131,42.7182 71.9797,40.5515 73.5,38C 77.8444,36.5243 80.1778,38.0243 80.5,42.5 Z M 103.5,50.5 C 109.427,51.0229 111.26,54.0229 109,59.5C 104.781,62.1488 101.947,60.9821 100.5,56C 100.863,53.8077 101.863,51.9744 103.5,50.5 Z M 88.5,51.5 C 94.6426,52.0262 95.9759,54.8595 92.5,60C 87.5036,60.6643 85.6703,58.4977 87,53.5C 87.7172,52.9558 88.2172,52.2891 88.5,51.5 Z M 61.5,52.5 C 65.1838,53.372 66.1838,55.5386 64.5,59C 61.4333,60.1642 59.7666,59.1642 59.5,56C 59.8618,54.5657 60.5285,53.3991 61.5,52.5 Z M 73.5,52.5 C 81.5433,53.1257 82.3766,55.7923 76,60.5C 72.4755,58.7302 71.6422,56.0636 73.5,52.5 Z M 38.5,53.5 C 42.1612,53.3501 43.1612,54.8501 41.5,58C 37.7071,58.4866 36.7071,56.9866 38.5,53.5 Z M 49.5,53.5 C 50.8333,53.5 52.1667,53.5 53.5,53.5C 53.5,55.1667 53.5,56.8333 53.5,58.5C 51.8333,58.5 50.1667,58.5 48.5,58.5C 48.366,56.7085 48.6993,55.0418 49.5,53.5 Z M 21.5,54.5 C 22.5735,55.2506 22.7401,56.2506 22,57.5C 20.2716,56.6477 20.105,55.6477 21.5,54.5 Z M 32.5,57.5 C 31.0413,57.5674 29.7079,57.2341 28.5,56.5C 29.1834,54.8235 30.5168,54.1568 32.5,54.5C 32.5,55.5 32.5,56.5 32.5,57.5 Z M 103.5,65.5 C 109.802,66.2707 111.468,69.4373 108.5,75C 103.859,76.6513 101.193,75.1513 100.5,70.5C 100.771,68.3074 101.771,66.6407 103.5,65.5 Z M 118.5,65.5 C 123.422,64.238 126.089,66.0713 126.5,71C 124.919,76.7362 121.585,77.9028 116.5,74.5C 114.883,70.911 115.55,67.911 118.5,65.5 Z M 75.5,66.5 C 80.2875,67.7261 81.2875,70.2261 78.5,74C 73.079,75.2799 71.079,73.1132 72.5,67.5C 73.791,67.7373 74.791,67.404 75.5,66.5 Z M 87.5,66.5 C 94.4438,66.2723 96.1105,69.1056 92.5,75C 90.2992,75.8249 88.4659,75.3249 87,73.5C 86.2967,71.0709 86.4634,68.7375 87.5,66.5 Z M 49.5,67.5 C 54.202,68.6475 54.702,70.9808 51,74.5C 48.318,72.6233 47.818,70.2899 49.5,67.5 Z M 60.5,67.5 C 62.1667,67.5 63.8333,67.5 65.5,67.5C 65.6621,69.5273 65.4955,71.5273 65,73.5C 59.6515,74.8948 58.1515,72.8948 60.5,67.5 Z M 41.5,72.5 C 40.0413,72.5674 38.7079,72.2341 37.5,71.5C 37.999,68.6108 39.499,67.9442 42,69.5C 42.7401,70.7494 42.5735,71.7494 41.5,72.5 Z M 20.5,69.5 C 22.337,69.6395 22.6704,70.3061 21.5,71.5C 20.7025,71.0431 20.3691,70.3764 20.5,69.5 Z M 28.5,69.5 C 29.9778,69.238 31.3112,69.5713 32.5,70.5C 30.5365,73.1939 29.2032,72.8606 28.5,69.5 Z M 103.5,80.5 C 110.299,81.1086 111.966,84.2753 108.5,90C 104.245,91.2336 101.578,89.7336 100.5,85.5C 100.771,83.3074 101.771,81.6407 103.5,80.5 Z M 74.5,81.5 C 79.0635,81.72 80.7301,83.8866 79.5,88C 75.9144,90.4172 73.5811,89.5838 72.5,85.5C 72.8029,83.8857 73.4695,82.5523 74.5,81.5 Z M 87.5,81.5 C 93.487,80.9773 95.487,83.4773 93.5,89C 86.8034,90.7859 84.8034,88.2859 87.5,81.5 Z M 49.5,82.5 C 53.35,82.7007 54.35,84.5341 52.5,88C 48.5369,88.1177 47.5369,86.2843 49.5,82.5 Z M 59.5,82.5 C 61.5,82.5 63.5,82.5 65.5,82.5C 65.5,84.5 65.5,86.5 65.5,88.5C 63.5,88.5 61.5,88.5 59.5,88.5C 59.5,86.5 59.5,84.5 59.5,82.5 Z M 29.5,83.5 C 32.8606,84.2032 33.1939,85.5365 30.5,87.5C 28.3576,86.5629 28.0243,85.2296 29.5,83.5 Z M 38.5,83.5 C 39.8333,83.5 41.1667,83.5 42.5,83.5C 42.5,84.8333 42.5,86.1667 42.5,87.5C 38.56,88.234 37.2266,86.9007 38.5,83.5 Z M 20.5,84.5 C 22.337,84.6395 22.6704,85.3061 21.5,86.5C 20.7025,86.0431 20.3691,85.3764 20.5,84.5 Z M 94.5,102.5 C 92.8583,104.081 90.8583,104.747 88.5,104.5C 85.8555,101.783 85.8555,98.9495 88.5,96C 92.6526,95.99 94.6526,98.1567 94.5,102.5 Z M 74.5,96.5 C 81.5619,97.6786 82.2286,100.345 76.5,104.5C 75.2638,103.754 73.9305,103.421 72.5,103.5C 72.1849,100.789 72.8516,98.4559 74.5,96.5 Z M 73.5,111.5 C 81.2846,111.858 82.2846,114.525 76.5,119.5C 75.2638,118.754 73.9305,118.421 72.5,118.5C 72.298,116.05 72.6314,113.717 73.5,111.5 Z"/></g>
<g><path style="opacity:0.996" fill="#939393" d="M 80.5,42.5 C 80.5858,43.4959 80.2524,44.3292 79.5,45C 77.6131,45.7796 75.9464,45.6129 74.5,44.5C 76.8583,44.7475 78.8583,44.0808 80.5,42.5 Z"/></g>
<g><path style="opacity:0.894" fill="#8f8f8f" d="M 136.5,45.5 C 137.924,47.5145 138.59,49.8478 138.5,52.5C 137.076,50.4855 136.41,48.1522 136.5,45.5 Z"/></g>
<g><path style="opacity:0.212" fill="#595959" d="M 28.5,56.5 C 29.7079,57.2341 31.0413,57.5674 32.5,57.5C 32.0831,58.1239 31.4164,58.4573 30.5,58.5C 29.2867,58.2528 28.62,57.5862 28.5,56.5 Z"/></g>
<g><path style="opacity:0.42" fill="#6d6d6d" d="M 14.5,71.5 C 14.1667,70.1667 13.8333,70.1667 13.5,71.5C 12.1153,70.6977 12.282,70.0311 14,69.5C 15.718,70.0311 15.8847,70.6977 14.5,71.5 Z"/></g>
<g><path style="opacity:0.161" fill="#575757" d="M 37.5,71.5 C 38.7079,72.2341 40.0413,72.5674 41.5,72.5C 41.0831,73.1239 40.4164,73.4573 39.5,73.5C 38.2867,73.2528 37.62,72.5862 37.5,71.5 Z"/></g>
<g><path style="opacity:0.937" fill="#959595" d="M 94.5,102.5 C 94.5858,103.496 94.2524,104.329 93.5,105C 91.6131,105.78 89.9464,105.613 88.5,104.5C 90.8583,104.747 92.8583,104.081 94.5,102.5 Z"/></g>
</svg>
