<?xml version="1.0" encoding="UTF-8"?>
<!DOCTYPE svg PUBLIC "-//W3C//DTD SVG 1.1//EN" "http://www.w3.org/Graphics/SVG/1.1/DTD/svg11.dtd">
<svg xmlns="http://www.w3.org/2000/svg" version="1.1" width="300px" height="180px" style="shape-rendering:geometricPrecision; text-rendering:geometricPrecision; image-rendering:optimizeQuality; fill-rule:evenodd; clip-rule:evenodd" xmlns:xlink="http://www.w3.org/1999/xlink">
<g><path style="opacity:1" fill="#1bacba" d="M 135.5,-0.5 C 136.833,-0.5 138.167,-0.5 139.5,-0.5C 139.389,0.117425 139.056,0.617425 138.5,1C 141.146,1.49742 143.813,1.66409 146.5,1.5C 146.649,2.55198 146.483,3.55198 146,4.5C 139.986,15.2067 133.486,25.54 126.5,35.5C 123.897,34.4383 121.23,34.2716 118.5,35C 121.051,35.0023 123.051,35.8356 124.5,37.5C 111.86,35.0947 100.193,37.4281 89.5,44.5C 95.0403,33.759 100.874,23.0924 107,12.5C 107.903,11.2986 109.069,10.4652 110.5,10C 109.906,9.53566 109.239,9.36899 108.5,9.5C 111.32,6.91925 114.654,5.08592 118.5,4C 124.253,2.31369 129.919,0.813694 135.5,-0.5 Z"/></g>
<g><path style="opacity:1" fill="#19b2ba" d="M 139.5,-0.5 C 147.5,-0.5 155.5,-0.5 163.5,-0.5C 167.1,0.387384 170.767,1.38738 174.5,2.5C 174.389,3.11742 174.056,3.61742 173.5,4C 176.292,4.89662 178.959,6.06329 181.5,7.5C 172.695,23.1027 163.861,38.7694 155,54.5C 151.965,51.1298 148.632,48.1298 145,45.5C 144.617,46.056 144.117,46.3893 143.5,46.5C 137.828,42.1644 131.494,39.1644 124.5,37.5C 123.051,35.8356 121.051,35.0023 118.5,35C 121.23,34.2716 123.897,34.4383 126.5,35.5C 133.486,25.54 139.986,15.2067 146,4.5C 146.483,3.55198 146.649,2.55198 146.5,1.5C 143.813,1.66409 141.146,1.49742 138.5,1C 139.056,0.617425 139.389,0.117425 139.5,-0.5 Z"/></g>
<g><path style="opacity:1" fill="#18b7ba" d="M 174.5,2.5 C 178.537,3.06533 182.203,4.39867 185.5,6.5C 175.776,23.1749 165.776,39.6749 155.5,56C 156.823,56.8159 157.489,57.9826 157.5,59.5C 152.807,55.1386 148.141,50.8052 143.5,46.5C 144.117,46.3893 144.617,46.056 145,45.5C 148.632,48.1298 151.965,51.1298 155,54.5C 163.861,38.7694 172.695,23.1027 181.5,7.5C 178.959,6.06329 176.292,4.89662 173.5,4C 174.056,3.61742 174.389,3.11742 174.5,2.5 Z"/></g>
<g><path style="opacity:1" fill="#17b8b9" d="M 185.5,6.5 C 189.117,7.64174 192.45,9.30841 195.5,11.5C 198.675,15.1389 202.009,18.8056 205.5,22.5C 195.059,40.4333 185.059,58.1 175.5,75.5C 168.602,71.2744 162.602,65.941 157.5,59.5C 157.489,57.9826 156.823,56.8159 155.5,56C 165.776,39.6749 175.776,23.1749 185.5,6.5 Z"/></g>
<g><path style="opacity:1" fill="#1ca9bc" d="M 108.5,9.5 C 109.239,9.36899 109.906,9.53566 110.5,10C 109.069,10.4652 107.903,11.2986 107,12.5C 100.874,23.0924 95.0403,33.759 89.5,44.5C 83.8448,49.1573 78.8448,54.4906 74.5,60.5C 77.5555,41.5837 86.5555,25.7504 101.5,13C 103.577,11.295 105.91,10.1283 108.5,9.5 Z"/></g>
<g><path style="opacity:1" fill="#15beb8" d="M 195.5,11.5 C 206.385,18.713 216.051,27.3797 224.5,37.5C 224.393,39.9032 225.393,41.7365 227.5,43C 217.853,57.4713 208.853,72.3047 200.5,87.5C 191.182,85.3395 182.849,81.3395 175.5,75.5C 185.059,58.1 195.059,40.4333 205.5,22.5C 202.009,18.8056 198.675,15.1389 195.5,11.5 Z"/></g>
<g><path style="opacity:0.992" fill="#11ccb7" d="M 299.5,29.5 C 299.5,30.8333 299.5,32.1667 299.5,33.5C 294.764,52.4684 284.431,67.6351 268.5,79C 260.209,84.2632 251.209,87.4299 241.5,88.5C 247.031,77.4098 253.031,66.5764 259.5,56C 257.5,55.6667 255.5,55.3333 253.5,55C 256.678,54.3405 259.678,53.5072 262.5,52.5C 271.999,51.7497 280.333,48.2497 287.5,42C 291.731,37.9379 295.731,33.7712 299.5,29.5 Z"/></g>
<g><path style="opacity:0.998" fill="#14c4b7" d="M 224.5,37.5 C 231.614,44.6302 239.947,49.6302 249.5,52.5C 248.957,52.56 248.624,52.8933 248.5,53.5C 249.833,54.1667 251.167,54.8333 252.5,55.5C 246.667,65.8333 240.833,76.1667 235,86.5C 231.255,87.297 227.421,87.797 223.5,88C 222.748,88.6708 222.414,89.5041 222.5,90.5C 215.071,90.0823 207.737,89.0823 200.5,87.5C 208.853,72.3047 217.853,57.4713 227.5,43C 225.393,41.7365 224.393,39.9032 224.5,37.5 Z"/></g>
<g><path style="opacity:1" fill="#13c7b7" d="M 249.5,52.5 C 253.833,52.5 258.167,52.5 262.5,52.5C 259.678,53.5072 256.678,54.3405 253.5,55C 255.5,55.3333 257.5,55.6667 259.5,56C 253.031,66.5764 247.031,77.4098 241.5,88.5C 235.383,89.8792 229.05,90.5459 222.5,90.5C 222.414,89.5041 222.748,88.6708 223.5,88C 227.421,87.797 231.255,87.297 235,86.5C 240.833,76.1667 246.667,65.8333 252.5,55.5C 251.167,54.8333 249.833,54.1667 248.5,53.5C 248.624,52.8933 248.957,52.56 249.5,52.5 Z"/></g>
<g><path style="opacity:1" fill="#1bacba" d="M 97.5,91.5 C 96.469,92.2485 95.3024,92.9152 94,93.5C 86.0325,107.48 78.0325,121.48 70,135.5C 67.7797,132.811 65.2797,131.478 62.5,131.5C 50.0644,125.764 37.3977,125.097 24.5,129.5C 23.4019,128.603 23.4019,127.77 24.5,127C 26.6864,125.691 28.8531,125.524 31,126.5C 34.8054,124.391 38.9721,123.057 43.5,122.5C 49.0679,112.521 54.7345,102.687 60.5,93C 56.5991,92.7111 52.7657,93.2111 49,94.5C 48.5,94.3333 48,94.1667 47.5,94C 48.4158,93.7216 49.0825,93.2216 49.5,92.5C 65.2894,87.7047 81.2894,87.3714 97.5,91.5 Z"/></g>
<g><path style="opacity:1" fill="#1da6bb" d="M 49.5,92.5 C 49.0825,93.2216 48.4158,93.7216 47.5,94C 48,94.1667 48.5,94.3333 49,94.5C 52.7657,93.2111 56.5991,92.7111 60.5,93C 54.7345,102.687 49.0679,112.521 43.5,122.5C 38.9721,123.057 34.8054,124.391 31,126.5C 28.8531,125.524 26.6864,125.691 24.5,127C 23.4019,127.77 23.4019,128.603 24.5,129.5C 14.017,133.986 5.68369,140.986 -0.5,150.5C -0.5,148.833 -0.5,147.167 -0.5,145.5C 0.442336,142.345 1.77567,139.345 3.5,136.5C 3.97093,137.901 4.6376,139.234 5.5,140.5C 7.48292,139.018 9.31625,137.351 11,135.5C 15.7321,126.371 20.7321,117.371 26,108.5C 26.765,106.934 26.5983,105.601 25.5,104.5C 32.3556,98.4055 40.3556,94.4055 49.5,92.5 Z"/></g>
<g><path style="opacity:1" fill="#19b2ba" d="M 97.5,91.5 C 106.317,93.5779 114.317,97.2446 121.5,102.5C 121.859,104.371 122.859,105.871 124.5,107C 114.44,123.621 104.774,140.454 95.5,157.5C 93.7853,157.404 92.1186,157.404 90.5,157.5C 81.4414,148.438 72.1081,139.771 62.5,131.5C 65.2797,131.478 67.7797,132.811 70,135.5C 78.0325,121.48 86.0325,107.48 94,93.5C 95.3024,92.9152 96.469,92.2485 97.5,91.5 Z"/></g>
<g><path style="opacity:0.999" fill="#1ea5bd" d="M 25.5,104.5 C 26.5983,105.601 26.765,106.934 26,108.5C 20.7321,117.371 15.7321,126.371 11,135.5C 9.31625,137.351 7.48292,139.018 5.5,140.5C 4.6376,139.234 3.97093,137.901 3.5,136.5C 7.39016,123.361 14.7235,112.694 25.5,104.5 Z"/></g>
<g><path style="opacity:1" fill="#18b6ba" d="M 121.5,102.5 C 124.117,103.786 126.45,105.453 128.5,107.5C 127.504,107.414 126.671,107.748 126,108.5C 116.535,125.575 106.702,142.408 96.5,159C 98.7514,161.795 101.418,164.128 104.5,166C 103.906,166.464 103.239,166.631 102.5,166.5C 97.9289,164.262 93.9289,161.262 90.5,157.5C 92.1186,157.404 93.7853,157.404 95.5,157.5C 104.774,140.454 114.44,123.621 124.5,107C 122.859,105.871 121.859,104.371 121.5,102.5 Z"/></g>
<g><path style="opacity:1" fill="#17b8b9" d="M 128.5,107.5 C 135.798,113.131 142.465,119.464 148.5,126.5C 146.83,126.751 145.33,127.418 144,128.5C 135.861,142.769 127.695,157.103 119.5,171.5C 117.144,172.294 114.811,171.961 112.5,170.5C 111.702,170.957 111.369,171.624 111.5,172.5C 108.291,170.735 105.291,168.735 102.5,166.5C 103.239,166.631 103.906,166.464 104.5,166C 101.418,164.128 98.7514,161.795 96.5,159C 106.702,142.408 116.535,125.575 126,108.5C 126.671,107.748 127.504,107.414 128.5,107.5 Z"/></g>
<g><path style="opacity:1" fill="#15beb8" d="M 148.5,126.5 C 151.874,129.51 155.208,132.51 158.5,135.5C 157.761,135.369 157.094,135.536 156.5,136C 160.241,138.732 164.241,141.066 168.5,143C 161.96,154.582 155.293,166.082 148.5,177.5C 146.176,177.987 143.676,177.987 141,177.5C 138.705,177.547 136.871,178.213 135.5,179.5C 135.167,179.5 134.833,179.5 134.5,179.5C 126.692,177.96 119.025,175.626 111.5,172.5C 111.369,171.624 111.702,170.957 112.5,170.5C 114.811,171.961 117.144,172.294 119.5,171.5C 127.695,157.103 135.861,142.769 144,128.5C 145.33,127.418 146.83,126.751 148.5,126.5 Z"/></g>
<g><path style="opacity:0.979" fill="#12cab8" d="M 178.5,175.5 C 177.227,174.923 177.227,174.257 178.5,173.5C 181.599,172.638 184.433,171.305 187,169.5C 192.686,160.794 197.853,151.794 202.5,142.5C 201.007,141.859 200.007,140.859 199.5,139.5C 209.902,134.942 218.402,127.942 225,118.5C 220.11,144.608 205.777,163.608 182,175.5C 181.014,174.829 179.847,174.829 178.5,175.5 Z"/></g>
<g><path style="opacity:0.997" fill="#13c4b7" d="M 158.5,135.5 C 171.532,143.132 185.199,144.466 199.5,139.5C 200.007,140.859 201.007,141.859 202.5,142.5C 197.853,151.794 192.686,160.794 187,169.5C 184.433,171.305 181.599,172.638 178.5,173.5C 177.227,174.257 177.227,174.923 178.5,175.5C 173.911,177.147 169.244,178.48 164.5,179.5C 154.833,179.5 145.167,179.5 135.5,179.5C 136.871,178.213 138.705,177.547 141,177.5C 143.676,177.987 146.176,177.987 148.5,177.5C 155.293,166.082 161.96,154.582 168.5,143C 164.241,141.066 160.241,138.732 156.5,136C 157.094,135.536 157.761,135.369 158.5,135.5 Z"/></g>
</svg>
