<?xml version="1.0" encoding="UTF-8"?>
<!DOCTYPE svg PUBLIC "-//W3C//DTD SVG 1.1//EN" "http://www.w3.org/Graphics/SVG/1.1/DTD/svg11.dtd">
<svg xmlns="http://www.w3.org/2000/svg" version="1.1" width="677px" height="369px" style="shape-rendering:geometricPrecision; text-rendering:geometricPrecision; image-rendering:optimizeQuality; fill-rule:evenodd; clip-rule:evenodd" xmlns:xlink="http://www.w3.org/1999/xlink">
<g><path style="opacity:1" fill="#2f2d3f" d="M 274.5,93.5 C 272.704,89.0492 269.371,86.3826 264.5,85.5C 258.742,87.2111 253.075,89.2111 247.5,91.5C 245.792,91.2972 244.459,90.4638 243.5,89C 240.854,88.5026 238.187,88.3359 235.5,88.5C 234.534,94.7812 233.867,101.115 233.5,107.5C 233.5,108.167 233.5,108.833 233.5,109.5C 232.617,113.957 231.117,118.29 229,122.5C 228.18,129.014 228.347,135.347 229.5,141.5C 231.145,147.072 231.979,152.738 232,158.5C 229.926,162.077 227.093,164.744 223.5,166.5C 217.374,167.725 212.374,170.725 208.5,175.5C 208.495,177.401 207.828,179.401 206.5,181.5C 202.019,182.12 198.352,180.787 195.5,177.5C 196.246,176.264 196.579,174.93 196.5,173.5C 197.11,172.609 197.443,171.609 197.5,170.5C 199.754,169.876 201.421,168.543 202.5,166.5C 211.12,161.096 211.786,154.763 204.5,147.5C 205.043,147.44 205.376,147.107 205.5,146.5C 204.758,145.713 203.925,145.047 203,144.5C 202.309,136.805 202.475,129.139 203.5,121.5C 204.372,117.007 205.706,112.674 207.5,108.5C 208.643,108.092 209.643,107.425 210.5,106.5C 211.726,103.984 213.226,101.651 215,99.5C 215.667,96.8333 215.667,94.1667 215,91.5C 214.617,90.944 214.117,90.6107 213.5,90.5C 213.5,89.8333 213.167,89.5 212.5,89.5C 211.32,86.8304 211.487,84.1637 213,81.5C 218.587,69.5748 226.754,59.7415 237.5,52C 243.885,48.4562 249.885,48.9562 255.5,53.5C 256.946,55.6179 257.613,57.9512 257.5,60.5C 263.561,60.2417 268.728,62.2417 273,66.5C 275.945,73.8813 278.445,81.3813 280.5,89C 281.144,94.1715 279.144,95.6715 274.5,93.5 Z"/></g>
<g><path style="opacity:1" fill="#302d3f" d="M 370.5,122.5 C 368.465,124.73 366.132,125.063 363.5,123.5C 361.11,121.624 360.11,119.124 360.5,116C 361.742,110.88 362.242,105.713 362,100.5C 357.747,95.255 353.914,89.755 350.5,84C 345.028,81.7146 339.362,81.0479 333.5,82C 329.321,83.985 326.988,87.1517 326.5,91.5C 323.516,86.8983 324.182,82.7317 328.5,79C 326.769,71.7944 329.435,67.1277 336.5,65C 340.486,64.5012 344.486,64.3345 348.5,64.5C 350.545,48.4762 358.879,43.9762 373.5,51C 380.574,56.9245 381.241,63.4245 375.5,70.5C 382.109,78.7145 384.276,88.0478 382,98.5C 378.509,105.829 373.676,112.162 367.5,117.5C 368.26,119.36 369.26,121.027 370.5,122.5 Z"/></g>
<g><path style="opacity:0.998" fill="#302d3e" d="M 527.5,109.5 C 527.167,109.5 526.833,109.5 526.5,109.5C 525.081,108.549 523.415,108.216 521.5,108.5C 519.802,104.457 518.969,100.123 519,95.5C 516.774,91.1392 513.274,89.6392 508.5,91C 508.05,93.5006 507.05,95.6672 505.5,97.5C 502.538,95.2441 500.871,92.2441 500.5,88.5C 498.473,88.6621 496.473,88.4955 494.5,88C 492.685,77.1806 488.352,75.8472 481.5,84C 480.552,84.4828 479.552,84.6495 478.5,84.5C 472.221,79.8839 470.887,74.0505 474.5,67C 478.3,64.3975 482.467,62.5641 487,61.5C 488.473,61.9031 489.806,62.5697 491,63.5C 491.709,60.3804 493.542,58.3804 496.5,57.5C 503.911,58.002 511.244,58.8354 518.5,60C 523.863,65.8901 528.363,72.3901 532,79.5C 532.667,82.1667 532.667,84.8333 532,87.5C 530.327,94.8777 528.827,102.211 527.5,109.5 Z"/></g>
<g><path style="opacity:1" fill="#9b6069" d="M 363.5,123.5 C 356.52,124.165 349.52,124.498 342.5,124.5C 342.492,121.455 342.159,118.455 341.5,115.5C 330.463,111.451 325.463,103.451 326.5,91.5C 326.988,87.1517 329.321,83.985 333.5,82C 339.362,81.0479 345.028,81.7146 350.5,84C 353.914,89.755 357.747,95.255 362,100.5C 362.242,105.713 361.742,110.88 360.5,116C 360.11,119.124 361.11,121.624 363.5,123.5 Z"/></g>
<g><path style="opacity:1" fill="#33316f" d="M 213.5,90.5 C 214.117,90.6107 214.617,90.944 215,91.5C 215.667,94.1667 215.667,96.8333 215,99.5C 213.226,101.651 211.726,103.984 210.5,106.5C 209.643,107.425 208.643,108.092 207.5,108.5C 208.901,105.366 210.568,102.366 212.5,99.5C 213.993,98.6879 214.66,97.3545 214.5,95.5C 214.272,93.7927 213.938,92.126 213.5,90.5 Z"/></g>
<g><path style="opacity:1" fill="#f6b4b6" d="M 274.5,93.5 C 271.48,103.681 264.647,109.348 254,110.5C 248.141,107.207 243.308,108.207 239.5,113.5C 237.084,111.751 235.084,109.751 233.5,107.5C 233.867,101.115 234.534,94.7812 235.5,88.5C 238.187,88.3359 240.854,88.5026 243.5,89C 244.459,90.4638 245.792,91.2972 247.5,91.5C 253.075,89.2111 258.742,87.2111 264.5,85.5C 269.371,86.3826 272.704,89.0492 274.5,93.5 Z"/></g>
<g><path style="opacity:1" fill="#6b62fa" d="M 212.5,99.5 C 210.568,102.366 208.901,105.366 207.5,108.5C 205.706,112.674 204.372,117.007 203.5,121.5C 201.94,123.156 200.94,125.156 200.5,127.5C 199.399,137.835 199.399,148.335 200.5,159C 200.167,161.833 199.833,164.667 199.5,167.5C 197.192,167.965 195.858,169.299 195.5,171.5C 193.651,172.593 191.984,173.926 190.5,175.5C 180.167,175.5 169.833,175.5 159.5,175.5C 154.52,170.855 149.52,166.188 144.5,161.5C 143.614,160.675 143.281,159.675 143.5,158.5C 158.267,134.21 175.934,112.043 196.5,92C 197.094,91.5357 197.761,91.369 198.5,91.5C 203.142,90.3274 207.809,90.3274 212.5,91.5C 212.5,94.1667 212.5,96.8333 212.5,99.5 Z"/></g>
<g><path style="opacity:1" fill="#6c62da" d="M 212.5,89.5 C 213.167,89.5 213.5,89.8333 213.5,90.5C 213.938,92.126 214.272,93.7927 214.5,95.5C 214.66,97.3545 213.993,98.6879 212.5,99.5C 212.5,96.8333 212.5,94.1667 212.5,91.5C 207.809,90.3274 203.142,90.3274 198.5,91.5C 199.347,90.0337 200.68,89.2004 202.5,89C 205.888,88.3412 209.221,88.5078 212.5,89.5 Z"/></g>
<g><path style="opacity:1" fill="#fab6b8" d="M 521.5,108.5 C 516.78,111.351 512.114,114.517 507.5,118C 505.892,118.658 504.725,118.158 504,116.5C 503.617,117.056 503.117,117.389 502.5,117.5C 502.047,116.542 501.381,115.708 500.5,115C 484.92,110.644 477.587,100.477 478.5,84.5C 479.552,84.6495 480.552,84.4828 481.5,84C 488.352,75.8472 492.685,77.1806 494.5,88C 496.473,88.4955 498.473,88.6621 500.5,88.5C 500.871,92.2441 502.538,95.2441 505.5,97.5C 507.05,95.6672 508.05,93.5006 508.5,91C 513.274,89.6392 516.774,91.1392 519,95.5C 518.969,100.123 519.802,104.457 521.5,108.5 Z"/></g>
<g><path style="opacity:1" fill="#e4b0d4" d="M 521.5,108.5 C 523.415,108.216 525.081,108.549 526.5,109.5C 523.678,110.507 520.678,111.34 517.5,112C 516.944,112.383 516.611,112.883 516.5,113.5C 512.783,116.543 508.783,119.209 504.5,121.5C 503.326,120.486 502.66,119.153 502.5,117.5C 503.117,117.389 503.617,117.056 504,116.5C 504.725,118.158 505.892,118.658 507.5,118C 512.114,114.517 516.78,111.351 521.5,108.5 Z"/></g>
<g><path style="opacity:1" fill="#8570dc" d="M 526.5,109.5 C 526.833,109.5 527.167,109.5 527.5,109.5C 529.025,111.216 530.025,113.216 530.5,115.5C 528.952,115.179 528.285,114.179 528.5,112.5C 524.434,112.307 520.434,112.64 516.5,113.5C 516.611,112.883 516.944,112.383 517.5,112C 520.678,111.34 523.678,110.507 526.5,109.5 Z"/></g>
<g><path style="opacity:1" fill="#6c62fc" d="M 530.5,115.5 C 531.32,117.14 532.153,118.807 533,120.5C 538.145,124.971 543.312,129.304 548.5,133.5C 548.657,134.873 548.49,136.207 548,137.5C 547.346,136.304 546.846,136.304 546.5,137.5C 547.14,143.387 548.307,143.72 550,138.5C 552.506,141.87 553.172,145.537 552,149.5C 552.667,148.833 553.333,148.167 554,147.5C 556.721,156.274 558.221,165.274 558.5,174.5C 535.833,174.5 513.167,174.5 490.5,174.5C 490.5,173.5 490.5,172.5 490.5,171.5C 492.382,166.735 494.548,162.068 497,157.5C 497.044,154.525 496.877,151.525 496.5,148.5C 496.392,143.13 496.725,137.797 497.5,132.5C 499.492,128.53 501.826,124.863 504.5,121.5C 508.783,119.209 512.783,116.543 516.5,113.5C 520.434,112.64 524.434,112.307 528.5,112.5C 528.285,114.179 528.952,115.179 530.5,115.5 Z"/></g>
<g><path style="opacity:1" fill="#38356c" d="M 233.5,109.5 C 232.111,117.284 230.778,125.117 229.5,133C 229.547,135.295 230.213,137.129 231.5,138.5C 231.068,139.71 230.401,140.71 229.5,141.5C 228.347,135.347 228.18,129.014 229,122.5C 231.117,118.29 232.617,113.957 233.5,109.5 Z"/></g>
<g><path style="opacity:0.992" fill="#cbcbcc" d="M 370.5,122.5 C 383.185,122.325 391.685,128.325 396,140.5C 399.048,157.452 401.881,174.452 404.5,191.5C 401.562,201.806 399.895,212.472 399.5,223.5C 396.167,223.5 392.833,223.5 389.5,223.5C 389.667,208.83 389.5,194.163 389,179.5C 387.512,177.84 385.679,176.84 383.5,176.5C 353.167,175.833 322.833,175.167 292.5,174.5C 296.988,164.188 301.488,153.855 306,143.5C 307.167,142.333 308.333,141.167 309.5,140C 319.065,135.436 328.398,130.436 337.5,125C 339.134,124.506 340.801,124.34 342.5,124.5C 349.52,124.498 356.52,124.165 363.5,123.5C 366.132,125.063 368.465,124.73 370.5,122.5 Z"/></g>
<g><path style="opacity:1" fill="#6d63ea" d="M 233.5,107.5 C 235.084,109.751 237.084,111.751 239.5,113.5C 240.598,114.601 240.765,115.934 240,117.5C 237.257,124.569 234.423,131.569 231.5,138.5C 230.213,137.129 229.547,135.295 229.5,133C 230.778,125.117 232.111,117.284 233.5,109.5C 233.5,108.833 233.5,108.167 233.5,107.5 Z"/></g>
<g><path style="opacity:1" fill="#332e62" d="M 203.5,121.5 C 202.475,129.139 202.309,136.805 203,144.5C 203.925,145.047 204.758,145.713 205.5,146.5C 205.376,147.107 205.043,147.44 204.5,147.5C 204.167,147.5 203.833,147.5 203.5,147.5C 202.496,146.317 201.662,144.984 201,143.5C 200.501,138.177 200.334,132.844 200.5,127.5C 200.94,125.156 201.94,123.156 203.5,121.5 Z"/></g>
<g><path style="opacity:0.665" fill="#726bd9" d="M 497.5,132.5 C 496.725,137.797 496.392,143.13 496.5,148.5C 494.383,143.135 494.716,137.801 497.5,132.5 Z"/></g>
<g><path style="opacity:1" fill="#7165d9" d="M 200.5,127.5 C 200.334,132.844 200.501,138.177 201,143.5C 201.662,144.984 202.496,146.317 203.5,147.5C 202.235,148.514 201.569,150.014 201.5,152C 202.198,156.811 202.531,161.644 202.5,166.5C 201.421,168.543 199.754,169.876 197.5,170.5C 196.833,170.833 196.167,171.167 195.5,171.5C 195.858,169.299 197.192,167.965 199.5,167.5C 199.833,164.667 200.167,161.833 200.5,159C 199.399,148.335 199.399,137.835 200.5,127.5 Z"/></g>
<g><path style="opacity:1" fill="#f2b3c0" d="M 203.5,147.5 C 203.833,147.5 204.167,147.5 204.5,147.5C 211.786,154.763 211.12,161.096 202.5,166.5C 202.531,161.644 202.198,156.811 201.5,152C 201.569,150.014 202.235,148.514 203.5,147.5 Z"/></g>
<g><path style="opacity:1" fill="#9c616b" d="M 268.5,170.5 C 265.335,174.317 261.335,176.984 256.5,178.5C 253.835,174.503 251.668,170.17 250,165.5C 247.812,158.215 250.145,153.215 257,150.5C 265.698,154.215 269.531,160.881 268.5,170.5 Z"/></g>
<g><path style="opacity:0.906" fill="#c5bfe6" d="M 559.5,160.5 C 560.5,160.5 561.5,160.5 562.5,160.5C 560.849,165.324 560.183,170.324 560.5,175.5C 562.735,175.205 564.735,175.539 566.5,176.5C 564.167,176.5 561.833,176.5 559.5,176.5C 559.5,176.167 559.5,175.833 559.5,175.5C 559.5,170.5 559.5,165.5 559.5,160.5 Z"/></g>
<g><path style="opacity:1" fill="#302e43" d="M 143.5,158.5 C 143.281,159.675 143.614,160.675 144.5,161.5C 149.52,166.188 154.52,170.855 159.5,175.5C 145.598,175.852 131.765,176.852 118,178.5C 116.272,177.648 116.105,176.648 117.5,175.5C 121.195,173.322 124.528,170.489 127.5,167C 133.07,164.436 138.403,161.602 143.5,158.5 Z"/></g>
<g><path style="opacity:0.984" fill="#cbcbcb" d="M 268.5,170.5 C 269.675,170.281 270.675,170.614 271.5,171.5C 274.578,179.241 277.744,186.908 281,194.5C 282.376,193.295 283.542,191.962 284.5,190.5C 285.117,190.611 285.617,190.944 286,191.5C 287.252,204.134 288.086,216.8 288.5,229.5C 287.683,227.031 287.183,224.365 287,221.5C 281.748,224.097 276.581,224.097 271.5,221.5C 263.922,208.102 258.922,193.769 256.5,178.5C 261.335,176.984 265.335,174.317 268.5,170.5 Z"/></g>
<g><path style="opacity:1" fill="#7068e9" d="M 548.5,133.5 C 553.904,141.694 557.571,150.694 559.5,160.5C 559.5,165.5 559.5,170.5 559.5,175.5C 535.809,176.157 512.476,175.49 489.5,173.5C 489.328,172.508 489.662,171.842 490.5,171.5C 490.5,172.5 490.5,173.5 490.5,174.5C 513.167,174.5 535.833,174.5 558.5,174.5C 558.221,165.274 556.721,156.274 554,147.5C 553.333,148.167 552.667,148.833 552,149.5C 553.172,145.537 552.506,141.87 550,138.5C 548.307,143.72 547.14,143.387 546.5,137.5C 546.846,136.304 547.346,136.304 548,137.5C 548.49,136.207 548.657,134.873 548.5,133.5 Z"/></g>
<g><path style="opacity:0.944" fill="#f2f2f3" d="M 562.5,160.5 C 569.755,163.254 574.922,168.254 578,175.5C 579.596,181.073 580.762,186.739 581.5,192.5C 579.862,202.123 579.029,211.79 579,221.5C 580.356,222.38 581.856,222.714 583.5,222.5C 580.375,223.479 577.042,223.813 573.5,223.5C 573.806,226.385 573.473,229.052 572.5,231.5C 572.667,214.497 572.5,197.497 572,180.5C 570.982,178.072 569.148,176.738 566.5,176.5C 564.735,175.539 562.735,175.205 560.5,175.5C 560.183,170.324 560.849,165.324 562.5,160.5 Z"/></g>
<g><path style="opacity:1" fill="#7d7c8b" d="M 292.5,174.5 C 322.833,175.167 353.167,175.833 383.5,176.5C 352.662,176.831 321.995,176.498 291.5,175.5C 291.5,174.833 291.833,174.5 292.5,174.5 Z"/></g>
<g><path style="opacity:1" fill="#544d9c" d="M 489.5,173.5 C 512.476,175.49 535.809,176.157 559.5,175.5C 559.5,175.833 559.5,176.167 559.5,176.5C 535.328,176.831 511.328,176.498 487.5,175.5C 488.167,174.833 488.833,174.167 489.5,173.5 Z"/></g>
<g><path style="opacity:1" fill="#3f3c55" d="M 196.5,173.5 C 196.579,174.93 196.246,176.264 195.5,177.5C 198.352,180.787 202.019,182.12 206.5,181.5C 207.828,179.401 208.495,177.401 208.5,175.5C 210.437,176.931 212.27,178.598 214,180.5C 214.5,188.827 214.666,197.16 214.5,205.5C 214.5,211.5 214.5,217.5 214.5,223.5C 214.002,226.487 213.502,229.487 213,232.5C 212.167,234.667 210.667,236.167 208.5,237C 178.167,237.667 147.833,237.667 117.5,237C 115.951,235.786 114.785,234.286 114,232.5C 113.741,229.413 113.241,226.413 112.5,223.5C 111.4,210.496 110.4,197.496 109.5,184.5C 110.068,179.6 112.735,176.6 117.5,175.5C 116.105,176.648 116.272,177.648 118,178.5C 131.765,176.852 145.598,175.852 159.5,175.5C 169.833,175.5 180.167,175.5 190.5,175.5C 192.886,175.741 194.886,175.075 196.5,173.5 Z"/></g>
<g><path style="opacity:1" fill="#3f3d55" d="M 487.5,175.5 C 511.328,176.498 535.328,176.831 559.5,176.5C 561.833,176.5 564.167,176.5 566.5,176.5C 569.148,176.738 570.982,178.072 572,180.5C 572.5,197.497 572.667,214.497 572.5,231.5C 571.069,233.437 569.402,235.27 567.5,237C 536.833,237.667 506.167,237.667 475.5,237C 472.034,233.96 470.7,230.126 471.5,225.5C 471.483,217.299 470.817,209.299 469.5,201.5C 469.167,201.5 468.833,201.5 468.5,201.5C 468.088,193.847 468.588,186.181 470,178.5C 470.903,177.299 472.069,176.465 473.5,176C 478.155,175.501 482.821,175.334 487.5,175.5 Z"/></g>
<g><path style="opacity:1" fill="#3f3d54" d="M 291.5,175.5 C 321.995,176.498 352.662,176.831 383.5,176.5C 385.679,176.84 387.512,177.84 389,179.5C 389.5,194.163 389.667,208.83 389.5,223.5C 390.729,229.255 389.062,233.755 384.5,237C 353.833,237.667 323.167,237.667 292.5,237C 289.976,235.117 288.642,232.617 288.5,229.5C 288.086,216.8 287.252,204.134 286,191.5C 285.617,190.944 285.117,190.611 284.5,190.5C 283.925,183.984 286.258,178.984 291.5,175.5 Z"/></g>
<g><path style="opacity:0.983" fill="#f1f1f1" d="M 404.5,191.5 C 424.66,192.641 432.66,202.975 428.5,222.5C 430.099,222.232 431.432,222.566 432.5,223.5C 430.549,223.227 429.049,223.893 428,225.5C 427.25,224.874 426.416,224.374 425.5,224C 416.84,223.5 408.173,223.334 399.5,223.5C 399.895,212.472 401.562,201.806 404.5,191.5 Z"/></g>
<g><path style="opacity:1" fill="#fbb6b7" d="M 223.5,166.5 C 228.633,185.364 233.299,204.364 237.5,223.5C 240.833,223.5 244.167,223.5 247.5,223.5C 249.332,226.011 251.832,227.678 255,228.5C 255.495,230.473 255.662,232.473 255.5,234.5C 247.025,237.332 238.359,237.999 229.5,236.5C 226.447,232.243 223.78,227.909 221.5,223.5C 219.673,217.2 217.34,211.2 214.5,205.5C 214.666,197.16 214.5,188.827 214,180.5C 212.27,178.598 210.437,176.931 208.5,175.5C 212.374,170.725 217.374,167.725 223.5,166.5 Z"/></g>
<g><path style="opacity:1" fill="#6d62f7" d="M 468.5,201.5 C 468.833,201.5 469.167,201.5 469.5,201.5C 469.801,209.586 469.467,217.586 468.5,225.5C 466.074,226.308 463.741,227.308 461.5,228.5C 459.927,228.248 458.594,227.582 457.5,226.5C 455.855,222.855 453.188,220.188 449.5,218.5C 449.297,216.61 449.963,215.11 451.5,214C 457.063,209.591 462.729,205.424 468.5,201.5 Z"/></g>
<g><path style="opacity:1" fill="#665ecd" d="M 469.5,201.5 C 470.817,209.299 471.483,217.299 471.5,225.5C 470.5,225.5 469.5,225.5 468.5,225.5C 469.467,217.586 469.801,209.586 469.5,201.5 Z"/></g>
<g><path style="opacity:0.969" fill="#e3e3e3" d="M 271.5,221.5 C 276.581,224.097 281.748,224.097 287,221.5C 287.183,224.365 287.683,227.031 288.5,229.5C 288.642,232.617 289.976,235.117 292.5,237C 323.167,237.667 353.833,237.667 384.5,237C 389.062,233.755 390.729,229.255 389.5,223.5C 392.833,223.5 396.167,223.5 399.5,223.5C 408.173,223.334 416.84,223.5 425.5,224C 426.416,224.374 427.25,224.874 428,225.5C 429.049,223.893 430.549,223.227 432.5,223.5C 434.5,223.5 436.5,223.5 438.5,223.5C 435.363,226.165 432.529,229.165 430,232.5C 428.488,237.71 430.321,240.71 435.5,241.5C 439.504,240.994 443.171,239.66 446.5,237.5C 445.972,238.721 445.305,239.887 444.5,241C 445.624,241.249 446.624,241.749 447.5,242.5C 444.938,243.641 442.272,244.474 439.5,245C 440.833,245.333 442.167,245.667 443.5,246C 437.684,248.332 431.684,249.832 425.5,250.5C 311.166,250.667 196.833,250.5 82.5,250C 73.273,246.016 70.4396,239.182 74,229.5C 78.7088,224.078 84.7088,221.745 92,222.5C 98.9069,223.422 105.74,223.756 112.5,223.5C 113.241,226.413 113.741,229.413 114,232.5C 114.785,234.286 115.951,235.786 117.5,237C 147.833,237.667 178.167,237.667 208.5,237C 210.667,236.167 212.167,234.667 213,232.5C 213.502,229.487 214.002,226.487 214.5,223.5C 216.833,223.5 219.167,223.5 221.5,223.5C 223.78,227.909 226.447,232.243 229.5,236.5C 238.359,237.999 247.025,237.332 255.5,234.5C 255.662,232.473 255.495,230.473 255,228.5C 251.832,227.678 249.332,226.011 247.5,223.5C 255.665,223.05 263.665,222.384 271.5,221.5 Z"/></g>
<g><path style="opacity:0.976" fill="#e3e2e3" d="M 583.5,222.5 C 598.869,221.691 605.036,228.691 602,243.5C 600.019,246.745 597.186,248.911 593.5,250C 537.501,250.5 481.501,250.667 425.5,250.5C 431.684,249.832 437.684,248.332 443.5,246C 442.167,245.667 440.833,245.333 439.5,245C 442.272,244.474 444.938,243.641 447.5,242.5C 446.624,241.749 445.624,241.249 444.5,241C 445.305,239.887 445.972,238.721 446.5,237.5C 448.019,233.397 451.019,231.231 455.5,231C 457.037,229.89 457.703,228.39 457.5,226.5C 458.594,227.582 459.927,228.248 461.5,228.5C 463.741,227.308 466.074,226.308 468.5,225.5C 469.5,225.5 470.5,225.5 471.5,225.5C 470.7,230.126 472.034,233.96 475.5,237C 506.167,237.667 536.833,237.667 567.5,237C 569.402,235.27 571.069,233.437 572.5,231.5C 573.473,229.052 573.806,226.385 573.5,223.5C 577.042,223.813 580.375,223.479 583.5,222.5 Z"/></g>
<g><path style="opacity:1" fill="#fab7b9" d="M 449.5,218.5 C 453.188,220.188 455.855,222.855 457.5,226.5C 457.703,228.39 457.037,229.89 455.5,231C 451.019,231.231 448.019,233.397 446.5,237.5C 443.171,239.66 439.504,240.994 435.5,241.5C 430.321,240.71 428.488,237.71 430,232.5C 432.529,229.165 435.363,226.165 438.5,223.5C 443.088,223.704 446.755,222.037 449.5,218.5 Z"/></g>
<g><path style="opacity:0.912" fill="#e5e5e5" d="M 177.5,279.5 C 288.501,279.333 399.501,279.5 510.5,280C 515.833,283.667 515.833,287.333 510.5,291C 399.5,291.667 288.5,291.667 177.5,291C 172.316,287.19 172.316,283.356 177.5,279.5 Z"/></g>
<g><path style="opacity:0.891" fill="#e5e5e5" d="M 251.5,307.5 C 313.168,307.333 374.834,307.5 436.5,308C 441.214,309.726 442.547,312.892 440.5,317.5C 439.335,318.584 438.002,319.417 436.5,320C 375.167,320.667 313.833,320.667 252.5,320C 244.893,316.532 244.56,312.365 251.5,307.5 Z"/></g>
</svg>
